<?xml version="1.0" encoding="UTF-8"?>
<svg id="Calque_2" data-name="Calque 2" xmlns="http://www.w3.org/2000/svg" viewBox="0 0 38.04 59.86">
  <defs>
    <style>
      .cls-1 {
        fill: #94368e;
      }
    </style>
  </defs>
  <g id="Calque_1-2" data-name="Calque 1">
    <path class="cls-1" d="m11.03,46.19h14.17v13.67h-14.17v-13.67ZM0,2.43C2.91,1.55,5.83.93,8.75.55c2.92-.37,5.91-.55,8.96-.55,1.54,0,3.11.1,4.71.31s3.16.54,4.67,1.01c1.51.47,2.93,1.07,4.26,1.81,1.33.74,2.5,1.64,3.5,2.7,1,1.06,1.78,2.27,2.35,3.64.56,1.37.85,2.94.85,4.69,0,1.89-.32,3.59-.97,5.08-.64,1.5-1.45,2.88-2.41,4.16-.96,1.28-2.02,2.51-3.17,3.69-1.15,1.18-2.23,2.41-3.25,3.68-1.02,1.28-1.89,2.65-2.64,4.12-.74,1.47-1.18,3.13-1.32,5h-12.31c0-2.69.56-5.04,1.69-7.04.55-1.01,1.14-1.98,1.77-2.88.63-.9,1.29-1.78,1.98-2.63.69-.85,1.34-1.69,1.98-2.51.63-.82,1.22-1.63,1.77-2.43,1.12-1.62,1.69-3.35,1.69-5.19,0-1.07-.29-1.99-.87-2.76-.58-.77-1.32-1.4-2.22-1.89-.91-.49-1.91-.86-3.01-1.09-1.1-.23-2.15-.35-3.17-.35-4.75,0-9.17,1.04-13.26,3.13L0,2.43Z"/>
  </g>
</svg>