<?xml version="1.0" encoding="UTF-8"?>
<svg id="Layer_2" data-name="Layer 2" xmlns="http://www.w3.org/2000/svg" viewBox="0 0 88.22 135.04">
  <defs>
    <style>
      .cls-1 {
        fill: #94368e;
        stroke-width: 0px;
      }
    </style>
  </defs>
  <g id="Calque_1" data-name="Calque 1">
    <g>
      <path class="cls-1" d="m43.96,76.78c-17.97-.02-32.63-14.87-32.58-32.98.05-17.67,14.98-32.53,32.64-32.48,18.15.05,32.88,14.87,32.82,33.04-.06,17.83-14.88,32.44-32.88,32.42m4.06,39.63s-.01-.01-.02-.01c0,0,.01-.01.02-.01,0,.01,0,.02,0,.03m-.93,17.85s-.04-.01-.06-.02c.06-.01.12-.02.18-.05-.04.02-.08.05-.12.06m-6.9-45.2v-.04h.08s-.05.02-.08.04m-1.96-1.98s0-.01,0-.02c0,0,0,0,.01.01,0,0-.01,0-.01.01m0,26.89h-.15c.07-.03.15-.04.21-.05-.02.02-.04.03-.06.05m0,.05s0-.04,0-.05c.01,0,.01.01.02.02-.01.01-.02.02-.03.03m-19.98-10.67h0s-.06-.06-.07-.07c.03.02.05.05.08.07h-.01ZM84.69,27.06c-2.54-6.5-6.49-12.18-12.18-16.46-.6-.86-1.47-1.39-2.37-1.86-.36-.32-.69-.68-1.09-.95C59.31,1.19,48.58-1.26,37.01.6c-7.99,1.28-15.26,4.43-21.34,9.96-.61.21-1.05.63-1.41,1.15-5.33,4.82-9.21,10.65-11.57,17.4-3.36,9.64-3.77,19.37-.17,29.08.22,1.25.52,2.47,1.36,3.48,2.31,5.99,6.09,10.92,10.83,15.18.17.17.35.33.53.5.46.35.93.69,1.39,1.04,1.15,1.18,2.45,2.16,3.97,2.82.67.73,1.53,1.14,2.42,1.52.18.49.61.45,1.01.45.69.62,1.46,1.02,2.41.98.14.45.49.53.89.52,3.41,1.75,7.06,2.59,10.85,2.99.03,4.55.01,9.1.13,13.65.04,1.62-.85,1.6-1.99,1.59-4.96-.02-9.92-.04-14.87.02-1.09.01-2.26-.42-3.28.34-.55,3.66-.49,7.33-.04,11h0c.65.37,1.33.21,2.01.13,6.02.04,12.03.07,18.05.11.03,6.01.15,12.02.03,18.03-.04,2.08.62,2.64,2.59,2.49,2.18-.17,4.39-.18,6.57,0,1.98.16,2.63-.4,2.59-2.48-.12-6.01,0-12.02.02-18.03,6.69-.18,13.38.26,20.06-.24.37-3.57.66-7.15-.13-10.7-.36-1.19-1.36-.64-2.05-.64-5.36-.05-10.72-.07-16.08,0-1.5.02-1.95-.43-1.91-1.93.1-3.81.09-7.63,0-11.45-.04-1.46.43-1.89,1.88-2.08,2.4-.32,4.77-.9,7.01-1.9,1.23-.26,2.38-.72,3.43-1.41.76-.13,1.43-.43,1.98-.98,1.11-.43,2.29-.77,2.93-1.92.72,0,1.31-.21,1.5-1,2.25-.71,3.55-2.65,5.3-4.03.8-.12,1.18-.72,1.52-1.36.17-.16.35-.32.52-.49.36-.32.77-.61,1.08-.98,11.52-13.96,14.25-29.45,7.65-46.33"/>
      <path class="cls-1" d="m39.73,27.94c-3.29.17-6.61-.54-9.87.37-.39.4-.32.9-.32,1.38,0,10.16,0,20.33,0,30.49,0,.47-.11.99.39,1.32,2.76.33,5.52.17,8.29.09.17,0,.34,0,.51,0h.48c.16,0,.33,0,.49,0,1.01.11.97-.59.97-1.26,0-10.33,0-20.66-.01-30.99,0-.66,0-1.44-.93-1.39"/>
      <path class="cls-1" d="m58.67,29.92c0-.55.13-1.15-.32-1.62-3.26-.91-6.59-.21-9.88-.36-1.1-.05-.93.93-.93,1.62-.01,10.17-.02,20.34,0,30.51,0,.66-.27,1.59.96,1.5.16,0,.33,0,.49,0,.16,0,.32,0,.48,0,.17,0,.34,0,.51,0,2.76.09,5.53.24,8.29-.09.59-.4.39-1.02.39-1.56,0-10,0-20,0-30.01"/>
    </g>
  </g>
</svg>