<?xml version="1.0" encoding="UTF-8"?>
<svg id="Calque_2" data-name="Calque 2" xmlns="http://www.w3.org/2000/svg" xmlns:xlink="http://www.w3.org/1999/xlink" viewBox="0 0 677.78 601.41">
  <defs>
    <style>
      .cls-1 {
        clip-path: url(#clippath-4);
      }

      .cls-1, .cls-2, .cls-3, .cls-4, .cls-5, .cls-6, .cls-7, .cls-8, .cls-9, .cls-10 {
        fill: none;
      }

      .cls-11 {
        fill: #f47a44;
      }

      .cls-12 {
        fill: #c76428;
      }

      .cls-13 {
        fill: #f16474;
      }

      .cls-14 {
        fill: #852d46;
      }

      .cls-15 {
        fill: #c43666;
      }

      .cls-16 {
        fill: #d5ac53;
      }

      .cls-17 {
        fill: #af82a7;
      }

      .cls-18 {
        fill: #e7f5fa;
      }

      .cls-19 {
        fill: #f8a88a;
      }

      .cls-20 {
        fill: #201a1b;
      }

      .cls-21 {
        fill: #f1f4fa;
      }

      .cls-22 {
        fill: #c0e3ef;
      }

      .cls-23 {
        fill: #9e2a46;
      }

      .cls-2 {
        stroke: #9e2a46;
      }

      .cls-2, .cls-7, .cls-8, .cls-9, .cls-10 {
        stroke-linecap: round;
        stroke-linejoin: round;
      }

      .cls-2, .cls-7, .cls-10 {
        stroke-width: 2.59px;
      }

      .cls-24 {
        fill: #faaa46;
      }

      .cls-3 {
        clip-path: url(#clippath-5);
      }

      .cls-25 {
        fill: #bb993f;
      }

      .cls-26 {
        fill: #d5eef6;
      }

      .cls-27 {
        fill: #fcccbb;
      }

      .cls-28 {
        fill: #c25340;
      }

      .cls-29 {
        fill: #f5895e;
      }

      .cls-30 {
        fill: #f6916b;
      }

      .cls-4 {
        clip-path: url(#clippath-3);
      }

      .cls-31 {
        fill: #0a1635;
      }

      .cls-6 {
        clip-path: url(#clippath);
      }

      .cls-7, .cls-8 {
        stroke: #e17c56;
      }

      .cls-32 {
        fill: #ad3d5b;
      }

      .cls-33 {
        fill: #ac503b;
      }

      .cls-34 {
        fill: #a17ba0;
      }

      .cls-35 {
        fill: #ef4955;
      }

      .cls-36 {
        fill: #c5d7ec;
      }

      .cls-8, .cls-9 {
        stroke-width: 1.29px;
      }

      .cls-37 {
        fill: #e6cc9a;
      }

      .cls-9 {
        stroke: #f8a88a;
      }

      .cls-10 {
        stroke: #c43666;
      }

      .cls-38 {
        fill: #e6c5de;
      }
    </style>
    <clipPath id="clippath">
      <rect class="cls-5" width="677.78" height="601.41"/>
    </clipPath>
    <clipPath id="clippath-1">
      <rect class="cls-5" x="617.66" y="518.65" width=".54" height="12.32"/>
    </clipPath>
    <clipPath id="clippath-3">
      <rect class="cls-5" x="-1887.08" y="51.64" width="2509.39" height="495.61"/>
    </clipPath>
    <clipPath id="clippath-4">
      <rect class="cls-5" x="-1887.08" y="51.64" width="2509.39" height="495.61"/>
    </clipPath>
    <clipPath id="clippath-5">
      <rect class="cls-5" x="-1887.08" y="51.64" width="2509.39" height="495.61"/>
    </clipPath>
  </defs>
  <g id="Calque_1-2" data-name="Calque 1">
    <g class="cls-6">
      <g class="cls-4">
        <path class="cls-38" d="m63.72,480.18c2.11-31.56,6.66-67.95,30.1-84.32,14.94-10.43,34.91-10.21,47.66-23.99,20.38-22.03,11.13-67.16,33.46-86.51,16.74-14.5,41.19-5.43,60.79-13.88,19.88-8.57,30.51-32.74,44.01-51.66,13.84-19.4,32.59-34.66,53.79-40.27,21.2-5.61,44.82-.81,61.63,15.15,12.85,12.21,21.36,30.16,35.53,40.23,13.87,9.85,31.14,10.66,47.36,9.03,16.22-1.63,32.45-5.4,48.65-3.62,16.21,1.78,33.04,10.41,40.49,27.14,11.64,26.13-3.57,60.24,7.8,86.53,7.17,16.58,23.29,25.83,31.23,41.94,9.07,18.39,5.16,42.86-6.39,59.28-11.55,16.42-29.4,25.59-47.44,29.26-18.04,3.67-36.52,2.39-54.8,1.28-148.34-9.05-277.44-10.41-425.51,3.3"/>
        <path class="cls-17" d="m229.28,463.42c-45.98-2.32-92.33-4.62-137.77,3.74-8.61,1.58-17.45,3.68-24.65,9.38-7.19,5.7-12.39,15.89-10.6,25.76,1.78,9.79,9.85,16.63,18.2,19.23,8.36,2.6,17.17,1.9,25.82,2.12,24.3.62,47.94,8.63,71.8,13.99,43.08,9.67,87.28,10.71,131.12,8.86,45.72-1.92,91.34-6.94,136.55-15.03,33.02-5.91,65.9-13.46,99.24-16.04,21.61-1.67,43.87-1.38,64.04-10.5,8.28-3.74,16.76-10.1,18.83-20.09,2.2-10.6-3.98-21.62-12.15-27.08-8.17-5.45-17.9-6.59-27.3-7.51-124.15-12.16-249.52-7.45-372.72,14.01"/>
        <path class="cls-34" d="m481.08,492.29c0,10.9-57.58,19.74-128.61,19.74s-128.61-8.84-128.61-19.74,57.58-19.74,128.61-19.74,128.61,8.84,128.61,19.74"/>
        <path class="cls-24" d="m559.49,417.65c12.47-2.62,23.98-9.62,32.02-19.51,6.3-7.74,11.35-18.12,12.13-28.2,1-12.8-11.55-3.49-17.45.78-14.99,10.88-25.34,28.35-26.71,46.92"/>
        <path class="cls-24" d="m600.05,364.71c-3.37,0-9.85,4.7-12.81,6.86l-.28.2c-14.58,10.59-24.21,27.01-26.02,44.22,11.58-2.82,22.03-9.41,29.57-18.67,6.72-8.25,11.15-18.53,11.84-27.48.14-1.85.06-4.19-1.15-4.87-.32-.18-.71-.26-1.16-.26m-40.56,54.23c-.31,0-.61-.11-.85-.32-.31-.27-.47-.66-.44-1.07,1.37-18.59,11.55-36.48,27.24-47.87l.28-.2c6.35-4.61,12.87-8.93,16.76-6.76,1.93,1.08,2.76,3.55,2.47,7.33-.75,9.6-5.27,20.14-12.42,28.92-8.29,10.17-19.92,17.26-32.76,19.96-.09.02-.18.03-.27.03"/>
        <path class="cls-11" d="m591.51,398.14c6.3-7.74,11.35-18.12,12.13-28.2.24-3.08-.31-4.87-1.36-5.77-12.62,18.37-33.33,32.26-42.73,52.83-.02.21-.05.43-.07.64,12.47-2.62,23.98-9.63,32.02-19.51"/>
        <path class="cls-11" d="m602.19,366.55c-5.06,7-11.28,13.45-17.31,19.7-8.76,9.07-17.8,18.44-23.34,29.6,11.34-2.91,21.55-9.42,28.96-18.52,6.72-8.25,11.15-18.53,11.84-27.48.11-1.36.05-2.47-.16-3.29m-42.7,52.39c-.31,0-.62-.11-.85-.32-.31-.27-.47-.67-.44-1.07.01-.13.03-.26.04-.39l.03-.27c.01-.15.05-.3.12-.43,5.62-12.31,15.29-22.33,24.64-32.02,6.42-6.66,13.06-13.54,18.19-21,.21-.3.53-.5.9-.55.36-.05.73.06,1.01.3,1.48,1.26,2.07,3.5,1.81,6.85-.75,9.6-5.27,20.14-12.42,28.92-8.29,10.17-19.92,17.26-32.76,19.96-.09.02-.18.03-.27.03"/>
        <path class="cls-12" d="m559.25,418.95c-.18,0-.35-.04-.52-.11-.65-.29-.95-1.05-.66-1.71,5.58-12.62,15.42-22.82,24.95-32.68,10.57-10.95,21.51-22.27,26.08-36.66.22-.68.94-1.06,1.63-.84.68.22,1.06.94.84,1.63-4.75,14.97-15.9,26.51-26.68,37.67-9.37,9.7-19.06,19.73-24.44,31.93-.21.48-.69.77-1.19.77"/>
        <path class="cls-12" d="m578.53,411.12c-.7,0-1.28-.56-1.29-1.27-.07-3.39-.04-6.7,0-9.91.03-2.59.06-5.25.03-7.95-1.84.73-3.53,1.4-5.21,2.05-2.21.86-4.41,1.73-6.96,2.76-.67.27-1.42-.05-1.69-.71s.05-1.42.71-1.68c2.57-1.04,4.78-1.9,6.99-2.77,2.2-.86,4.39-1.72,6.93-2.74.4-.16.84-.11,1.2.12.36.23.57.63.58,1.05.07,3.39.04,6.7,0,9.91-.03,3.19-.07,6.48,0,9.83.02.71-.55,1.31-1.27,1.32h-.03Z"/>
        <path class="cls-12" d="m592.17,397.77c-.51,0-.99-.3-1.19-.8-1.86-4.42-1.83-9.05-1.81-13.53,0-1.63.02-3.3-.07-4.96l-12.86,3.09c-.69.17-1.39-.26-1.56-.96-.17-.69.26-1.39.96-1.56l14.35-3.44c.37-.09.75-.01,1.06.21.31.22.5.56.53.94.2,2.27.19,4.53.18,6.71-.02,4.41-.04,8.58,1.6,12.52.28.66-.03,1.42-.69,1.69-.16.07-.33.1-.5.1"/>
        <path class="cls-24" d="m245.37,454.34c-2.5-13.27-12.83-24.75-25.76-28.64-14.25-4.28-30.26.19-44.1-5.27,8.26,20.18,27.82,35.27,49.43,38.14,6.25.83,13.44,1.1,17.41,6.01"/>
        <path class="cls-24" d="m242.36,465.88c-.38,0-.75-.16-1.01-.48-3.17-3.92-8.84-4.6-14.32-5.26-.76-.09-1.51-.18-2.25-.28-22.18-2.94-41.99-18.23-50.46-38.93-.2-.48-.09-1.03.28-1.4.37-.37.91-.49,1.4-.3,7.13,2.81,14.77,2.91,22.86,3,7.03.08,14.29.17,21.14,2.23,13.36,4.01,24.08,15.92,26.66,29.64.13.7-.33,1.38-1.03,1.51-.7.14-1.38-.33-1.51-1.03-2.41-12.79-12.4-23.89-24.86-27.64-6.5-1.95-13.58-2.04-20.42-2.12-6.98-.08-14.16-.17-20.93-2.2,8.68,18.5,26.92,31.97,47.23,34.67.73.1,1.47.18,2.22.27,5.72.69,12.19,1.47,16.03,6.2.45.55.36,1.37-.19,1.82-.24.19-.53.29-.81.29"/>
        <path class="cls-11" d="m245.37,454.34c-2.5-13.27-12.83-24.75-25.76-28.64-14.25-4.28-30.26.19-44.1-5.27.1.25.21.49.32.73,4.16,6.08,13.81,10.41,20.84,11.67,7.54,1.35,15.44,1.52,22.37,4.79,6.08,2.87,10.84,7.87,15.46,12.76,3.06,3.24,6.12,6.48,9.18,9.73l1.7-5.77Z"/>
        <path class="cls-11" d="m179.04,422.95c4.49,4.37,11.93,7.56,17.86,8.61,2.04.37,4.15.65,6.2.92,5.55.74,11.29,1.51,16.49,3.97,6.38,3.01,11.41,8.34,15.85,13.04l7.63,8.09.97-3.31c-2.51-12.66-12.44-23.62-24.8-27.33-6.5-1.95-13.58-2.04-20.42-2.12-6.58-.08-13.35-.16-19.78-1.87m64.63,38.46c-.35,0-.69-.14-.94-.41l-9.18-9.73c-4.49-4.76-9.13-9.67-15.07-12.48-4.84-2.28-10.13-2.99-15.73-3.74-2.07-.28-4.22-.57-6.31-.94-7.54-1.35-17.41-5.97-21.68-12.21-.05-.07-.09-.15-.12-.23l-.32-.75c-.2-.48-.09-1.03.28-1.4.37-.37.91-.49,1.4-.3,7.14,2.81,14.77,2.9,22.86,3,7.02.09,14.29.17,21.14,2.23,13.36,4.01,24.07,15.92,26.66,29.64.04.2.03.41-.03.6l-1.7,5.77c-.13.44-.49.78-.94.89-.1.02-.2.04-.3.04"/>
        <path class="cls-12" d="m244.87,462.67c-.34,0-.69-.14-.94-.41l-10.38-11c-4.49-4.76-9.13-9.67-15.07-12.48-4.84-2.28-10.13-2.99-15.73-3.74-2.07-.28-4.22-.57-6.31-.94-8.42-1.5-18.88-6.68-22.56-13.66-.33-.63-.09-1.42.54-1.75.63-.33,1.42-.09,1.75.54,3.27,6.18,13.12,10.97,20.73,12.32,2.04.37,4.16.65,6.2.92,5.55.74,11.28,1.51,16.49,3.97,6.38,3.01,11.41,8.34,15.85,13.04l10.38,10.99c.49.52.47,1.34-.05,1.83-.25.23-.57.35-.89.35"/>
        <path class="cls-12" d="m192.45,444.31c-.52,0-1.01-.32-1.21-.83-.26-.67.07-1.42.74-1.67,9.2-3.56,18.61-3.9,28.24-3.64-3.09-3.18-8.02-8.74-9.83-13.46-.25-.67.08-1.42.75-1.67.66-.25,1.42.08,1.67.75,1.74,4.53,7.31,10.83,11.55,14.84.39.37.51.94.3,1.44-.21.5-.65.85-1.24.79-10.49-.39-20.71-.43-30.51,3.36-.15.06-.31.09-.47.09"/>
        <path class="cls-12" d="m208.72,455.22c-.48,0-.93-.26-1.16-.72-.32-.64-.06-1.42.58-1.74,6.68-3.32,14.09-3.56,21.25-3.78.68-.02,1.35-.04,2.03-.07l.08-16.09c0-.71.58-1.29,1.29-1.29h0c.72,0,1.29.59,1.29,1.3l-.09,17.33c0,.69-.55,1.26-1.24,1.29-1.1.05-2.19.08-3.29.11-7.2.23-14,.44-20.18,3.52-.18.09-.38.14-.57.14"/>
        <path class="cls-24" d="m452.02,458.46c7.72-14.18,20.82-24.58,34.11-33.75,13.29-9.17,27.31-17.67,38.21-29.58-.96,16.74-8.39,33.03-20.41,44.71-12.02,11.69-28.51,18.66-45.27,19.15-1.43.04-3.07.14-3.93,1.28"/>
        <path class="cls-24" d="m454.73,461.55c-.27,0-.55-.09-.78-.26-.57-.43-.68-1.24-.25-1.81,1.27-1.68,3.56-1.75,4.92-1.79,16.43-.48,32.62-7.32,44.41-18.78,10.92-10.62,17.98-25.11,19.71-40.24-8.64,8.68-18.94,15.63-28.93,22.37-2.33,1.57-4.65,3.14-6.95,4.72-12.96,8.94-26.01,19.17-33.71,33.31-.34.63-1.13.86-1.75.52-.63-.34-.86-1.13-.52-1.76,7.95-14.62,21.29-25.08,34.51-34.2,2.31-1.59,4.64-3.17,6.97-4.74,10.87-7.34,22.11-14.92,31.02-24.65.37-.4.95-.53,1.46-.32.5.21.82.72.79,1.27-.97,17.05-8.55,33.66-20.8,45.57-12.25,11.91-29.06,19.02-46.14,19.51-1.22.04-2.45.12-2.94.76-.25.34-.64.51-1.03.51"/>
        <path class="cls-11" d="m493.04,432.73c12.6-8.11,22.88-19.8,29.32-33.33l.41-2.61c-10.66,11.05-23.97,19.18-36.63,27.92-13.29,9.17-26.39,19.57-34.11,33.75l.59.39c10.28-12.31,26.86-17.38,40.43-26.12"/>
        <path class="cls-11" d="m519.92,401.39c-8.02,7.45-17.21,13.66-26.15,19.69-2.31,1.56-4.62,3.12-6.91,4.7-10.73,7.4-21.52,15.68-29.28,26.33,6.18-5.15,13.52-8.94,20.68-12.63,4.73-2.44,9.62-4.96,14.07-7.83,11.52-7.41,21.23-18.08,27.58-30.25m-67.32,58.76c-.25,0-.5-.07-.71-.22l-.59-.39c-.56-.37-.74-1.11-.42-1.69,7.95-14.62,21.29-25.08,34.51-34.2,2.29-1.58,4.61-3.15,6.93-4.71,10.26-6.93,20.87-14.09,29.51-23.04.39-.41,1.01-.51,1.51-.26.5.25.79.8.7,1.36l-.41,2.61c-.02.12-.06.25-.11.36-6.59,13.85-16.89,25.56-29.79,33.86-4.56,2.94-9.51,5.49-14.29,7.96-9.85,5.08-19.16,9.89-25.86,17.91-.25.3-.62.46-.99.46"/>
        <path class="cls-12" d="m451.67,461.26c-.28,0-.56-.09-.79-.27-.57-.44-.67-1.25-.23-1.81,7.07-9.13,17.5-14.5,27.58-19.69,4.74-2.44,9.64-4.97,14.11-7.84,12.31-7.93,22.56-19.58,28.85-32.8.31-.64,1.08-.92,1.73-.61.64.31.92,1.08.61,1.73-6.59,13.85-16.89,25.56-29.79,33.86-4.57,2.94-9.53,5.5-14.32,7.97-10.28,5.3-20,10.3-26.72,18.97-.25.33-.64.5-1.02.5"/>
        <path class="cls-12" d="m473.22,444.36c-.4,0-.79-.19-1.04-.53-.32-.44-.34-1.03-.03-1.49l9.53-14.23c.4-.6,1.2-.75,1.8-.36.59.4.75,1.2.35,1.8l-7.61,11.37c8-1.89,16.38-2.06,24.45-.46.7.14,1.16.82,1.02,1.52-.14.7-.82,1.15-1.52,1.02-8.79-1.74-17.98-1.29-26.57,1.3-.12.04-.25.06-.37.06"/>
        <path class="cls-12" d="m497.42,429.84c-.35,0-.7-.14-.95-.41-.35-.38-.44-.92-.24-1.4l6.31-14.62c.28-.66,1.05-.96,1.7-.68.66.28.96,1.05.67,1.7l-5.19,12.03c4.26-1.18,8.76-1.7,13.15-1.52.71.03,1.27.63,1.24,1.35-.03.71-.66,1.31-1.35,1.24-5.02-.2-10.17.57-14.91,2.23-.14.05-.29.07-.43.07"/>
        <path class="cls-31" d="m450.47,459.1c-.33,0-.66-.12-.91-.37-.51-.5-.52-1.32-.02-1.83,15.57-15.87,27.2-35.51,33.62-56.8,6.43-21.28,7.6-44.08,3.41-65.91-.14-.7.33-1.38,1.03-1.52.69-.13,1.38.33,1.51,1.03,4.27,22.24,3.07,45.46-3.48,67.15-6.55,21.69-18.39,41.69-34.25,57.86-.25.26-.59.39-.92.39"/>
        <path class="cls-13" d="m477.74,310.59c-3.57,5.88-5.79,12.58-6.45,19.43-.16,1.71.17,3.98,1.86,4.28,1.69.3,2.78-1.69,3.31-3.32,1.4-4.31,2.81-8.62,4.21-12.93.27,4.46,1.33,8.88,3.09,12.98.54,1.27,1.28,2.62,2.58,3.07,1.36.48,2.92-.26,3.76-1.42.85-1.17,1.09-2.66,1.12-4.1.09-4.61-1.81-9-3.68-13.22,3.67,2.9,8.82,3.82,13.26,2.35,1.47-.48,2.92-1.26,3.8-2.53.89-1.27,1.07-3.12.11-4.34-.89-1.13-2.45-1.45-3.88-1.64-5.57-.75-11.22-.8-16.8-.15.4.07.8.13,1.2.19"/>
        <path class="cls-13" d="m473.52,335.62c-.19,0-.39-.02-.59-.05-2.07-.37-3.22-2.6-2.92-5.68.67-7.03,2.96-13.94,6.63-19.97.37-.61,1.17-.81,1.78-.44.61.37.81,1.17.44,1.78-3.46,5.71-5.63,12.23-6.26,18.88-.13,1.32.14,2.76.8,2.88.69.12,1.44-1.19,1.86-2.45l4.21-12.93c.19-.59.78-.96,1.39-.88.62.08,1.09.58,1.13,1.2.27,4.34,1.27,8.56,2.99,12.55.41.95.98,2.07,1.82,2.36.8.28,1.79-.27,2.29-.96.56-.77.85-1.87.87-3.36.08-4.41-1.86-8.8-3.57-12.68-.24-.54-.08-1.18.39-1.55.47-.37,1.13-.36,1.6,0,3.31,2.62,8.04,3.46,12.05,2.13,1.48-.49,2.54-1.18,3.15-2.05.63-.9.7-2.11.15-2.8-.58-.74-1.8-.99-3.04-1.15-4.8-.64-9.67-.76-14.49-.35-.28.3-.7.46-1.15.39l-1.2-.2c-.64-.1-1.1-.66-1.09-1.31.01-.65.5-1.18,1.14-1.26,5.69-.66,11.45-.61,17.12.15,1.77.24,3.57.66,4.73,2.12,1.24,1.58,1.21,4.05-.07,5.88-.93,1.34-2.43,2.36-4.46,3.02-3.58,1.18-7.5.97-10.93-.47,1.26,3.16,2.31,6.57,2.24,10.15-.04,2.04-.48,3.62-1.36,4.83-1.25,1.72-3.45,2.52-5.24,1.89-1.79-.63-2.73-2.35-3.34-3.78-1.07-2.49-1.88-5.06-2.43-7.7l-2.45,7.53c-.89,2.74-2.4,4.25-4.18,4.25"/>
        <path class="cls-24" d="m485.3,308.03c-.86-1.08-1.32-2.41-1.85-3.69-.53-1.28-1.17-2.57-2.27-3.41-1.1-.84-2.76-1.08-3.84-.22-.95.76-1.17,2.1-1.33,3.31-.18,1.44-.37,2.93.05,4.32.41,1.39,1.6,2.66,3.05,2.7,2.23.06,3.91-2.66,6.13-2.38"/>
        <path class="cls-24" d="m478.98,301.47c-.31,0-.6.08-.82.25-.55.45-.73,1.46-.85,2.47-.17,1.29-.34,2.63,0,3.78.25.85.98,1.75,1.84,1.78h.04c.67,0,1.41-.48,2.2-1,.64-.42,1.33-.87,2.1-1.14-.4-.72-.7-1.48-1-2.21l-.23-.56c-.46-1.1-1-2.21-1.86-2.87-.39-.29-.93-.49-1.42-.49m.21,10.87s-.07,0-.11,0c-1.88-.05-3.63-1.54-4.25-3.62-.5-1.68-.29-3.37-.09-4.85.15-1.13.39-3.02,1.8-4.15,1.65-1.33,3.99-.91,5.43.2,1.35,1.03,2.11,2.57,2.68,3.94l.24.58c.42,1.04.81,2.02,1.43,2.8.29.36.35.83.21,1.24.02.11.02.24,0,.36-.09.71-.72,1.2-1.45,1.12-.69-.08-1.42.4-2.28.97-1.02.67-2.17,1.42-3.61,1.42"/>
        <path class="cls-31" d="m460.9,449.47c-.58,0-1.11-.4-1.26-.99-6.12-25.25,4.14-84.57,4.58-87.08.12-.7.8-1.17,1.5-1.05.71.12,1.17.79,1.05,1.5-.11.61-10.61,61.3-4.61,86.02.17.69-.26,1.39-.95,1.56-.1.02-.21.04-.31.04"/>
        <path class="cls-13" d="m465.89,352.38c-5.15,2.25-9.78,5.67-13.44,9.94-.92,1.07-1.76,2.74-.77,3.73.99.99,2.65.18,3.78-.66,2.96-2.22,5.93-4.43,8.89-6.65-1.92,3.11-3.29,6.55-4.05,10.12-.23,1.1-.38,2.35.28,3.27.68.96,2.07,1.2,3.18.82,1.11-.38,1.98-1.26,2.68-2.21,2.23-3.04,3.02-6.87,3.76-10.56,1.08,3.66,4.1,6.7,7.75,7.81,1.21.37,2.54.53,3.73.1,1.19-.43,2.18-1.58,2.11-2.85-.06-1.18-.96-2.12-1.82-2.92-3.36-3.11-7.12-5.81-11.14-8,.23.23.47.46.71.69"/>
        <path class="cls-13" d="m462.71,374.42c-1.28,0-2.47-.55-3.18-1.54-.95-1.33-.76-2.99-.49-4.28.4-1.9.96-3.74,1.68-5.52l-4.49,3.35c-2.19,1.64-4.19,1.84-5.47.54-1.31-1.31-1.03-3.47.71-5.49,3.78-4.4,8.59-7.96,13.91-10.28.66-.29,1.42.02,1.7.67.29.65-.01,1.42-.67,1.7-4.97,2.17-9.45,5.49-12.98,9.6-.73.85-1.05,1.76-.83,1.98.21.21,1.07-.03,2.08-.79l8.89-6.65c.5-.37,1.19-.34,1.65.08.46.42.55,1.1.23,1.63-1.85,3-3.15,6.27-3.88,9.71-.16.77-.3,1.73.06,2.24.3.41,1.06.57,1.71.35.69-.24,1.36-.81,2.05-1.75,2.1-2.86,2.86-6.68,3.54-10.05.12-.58.62-1.01,1.21-1.04.59-.04,1.13.36,1.3.93.95,3.23,3.66,5.95,6.88,6.93,1.17.36,2.15.4,2.91.12.74-.27,1.3-.96,1.26-1.56-.04-.68-.7-1.38-1.4-2.04-2.87-2.66-6.03-5-9.4-6.98-.37.05-.77-.07-1.07-.36l-.71-.69c-.46-.45-.52-1.18-.13-1.69.39-.52,1.09-.68,1.66-.37,4.12,2.24,7.96,5,11.41,8.19,1.11,1.03,2.15,2.2,2.23,3.8.09,1.76-1.13,3.46-2.96,4.13-1.3.47-2.83.45-4.55-.08-2.82-.85-5.26-2.69-6.91-5.1-.64,2.56-1.55,5.15-3.19,7.38-1.01,1.38-2.09,2.26-3.3,2.67-.49.17-.99.25-1.47.25"/>
        <path class="cls-24" d="m472.15,354.23c-.07-1.13.25-2.23.5-3.33s.43-2.27.09-3.34c-.34-1.08-1.33-2.02-2.46-1.95-.99.06-1.77.85-2.44,1.59-.8.87-1.62,1.78-2,2.91-.38,1.12-.19,2.53.76,3.23,1.46,1.09,3.86.07,5.21,1.3"/>
        <path class="cls-24" d="m470.39,346.89s-.02,0-.04,0c-.49.03-1.05.59-1.57,1.17-.7.77-1.43,1.56-1.73,2.44-.2.61-.14,1.45.31,1.79.39.29,1.09.31,1.83.34.53.02,1.13.04,1.73.17.08-.58.21-1.15.34-1.7l.11-.48c.21-.92.36-1.88.11-2.67-.18-.58-.68-1.05-1.1-1.05m1.41,9.03c-.31,0-.62-.11-.87-.34-.34-.31-1.03-.34-1.83-.37-1.06-.04-2.25-.08-3.28-.85-1.31-.98-1.81-2.91-1.22-4.68.47-1.4,1.47-2.49,2.27-3.37.65-.71,1.74-1.9,3.32-2,1.86-.13,3.3,1.35,3.77,2.86.44,1.38.21,2.8-.06,4.01l-.12.51c-.21.87-.4,1.7-.35,2.47.02.44-.17.85-.5,1.1-.05.09-.11.17-.18.25-.25.28-.6.42-.96.42"/>
        <path class="cls-24" d="m236.48,332.3c4.63-11.87,5.06-25.34,1.19-37.48-3.03-9.5-8.96-19.41-16.97-25.58-10.17-7.83-9.25,7.76-8.89,15.03.91,18.5,9.87,36.72,24.67,48.03"/>
        <path class="cls-24" d="m214.36,269.39c-1.85,2.82-1.45,10.82-1.27,14.48l.02.34c.88,18,9.36,35.05,22.78,45.97,3.97-11.24,4.18-23.59.55-34.97-3.23-10.14-9.41-19.47-16.53-24.95-1.46-1.13-3.47-2.34-4.7-1.7-.33.17-.61.46-.85.82m23.2,63.62c-.17.26-.43.45-.73.54-.39.11-.81.03-1.13-.22-14.81-11.32-24.22-29.63-25.17-48.99l-.02-.34c-.39-7.84-.44-15.66,3.51-17.73,1.96-1.02,4.48-.37,7.48,1.95,7.63,5.88,13.97,15.43,17.41,26.21,3.98,12.5,3.55,26.12-1.22,38.34-.03.08-.07.16-.12.24"/>
        <path class="cls-11" d="m237.67,294.82c-3.03-9.5-8.96-19.42-16.97-25.58-2.45-1.89-4.25-2.4-5.57-2.02,8.47,20.61,8.77,45.55,20.85,64.67.17.13.33.28.5.41,4.63-11.87,5.06-25.34,1.19-37.48"/>
        <path class="cls-11" d="m217.07,268.6c3.09,8.07,5.09,16.8,7.02,25.26,2.8,12.3,5.7,24.99,12,35.73,3.77-11.08,3.91-23.19.35-34.38-3.23-10.14-9.41-19.47-16.53-24.95-1.08-.83-2.04-1.39-2.84-1.67m20.5,64.41c-.17.26-.43.45-.73.54-.39.11-.82.03-1.14-.22-.1-.08-.2-.16-.3-.24l-.21-.17c-.12-.09-.22-.2-.3-.33-7.23-11.44-10.33-25.02-13.32-38.15-2.06-9.02-4.19-18.34-7.63-26.72-.14-.34-.13-.72.03-1.05.16-.33.45-.58.8-.68,1.87-.54,4.07.19,6.72,2.23,7.63,5.88,13.98,15.44,17.41,26.22,3.98,12.5,3.55,26.12-1.22,38.34-.03.08-.07.16-.12.24"/>
        <path class="cls-12" d="m237.45,333.21c-.09.15-.22.27-.38.38-.6.39-1.4.22-1.79-.38-7.52-11.57-10.66-25.4-13.71-38.77-3.38-14.84-6.87-30.19-16.42-41.88-.45-.55-.37-1.37.18-1.82.55-.45,1.37-.37,1.82.18,9.93,12.17,13.49,27.82,16.94,42.95,2.99,13.15,6.09,26.75,13.35,37.93.29.44.27,1,0,1.42"/>
        <path class="cls-12" d="m241.44,312.79c-.39.59-1.17.76-1.77.39-2.87-1.79-5.63-3.64-8.29-5.42-2.15-1.44-4.36-2.92-6.64-4.37-.39,1.94-.76,3.71-1.13,5.48-.48,2.32-.97,4.64-1.5,7.34-.14.7-.82,1.16-1.52,1.02-.7-.14-1.16-.82-1.02-1.52.54-2.71,1.02-5.04,1.51-7.37.48-2.31.96-4.61,1.49-7.31.08-.42.37-.77.76-.94.39-.17.84-.14,1.2.09,2.87,1.79,5.63,3.64,8.29,5.42,2.65,1.77,5.39,3.6,8.22,5.38.61.38.79,1.18.41,1.78,0,0-.01.02-.02.02"/>
        <path class="cls-12" d="m237.73,294.07c-.28.42-.79.66-1.32.56-4.72-.87-8.58-3.42-12.31-5.89-1.36-.9-2.76-1.82-4.19-2.66l-4.45,12.45c-.24.67-.98,1.02-1.65.78-.67-.24-1.02-.98-.78-1.65l4.97-13.9c.13-.35.4-.64.75-.77.35-.14.74-.11,1.08.07,2.01,1.07,3.89,2.32,5.71,3.52,3.68,2.43,7.15,4.73,11.36,5.5.7.13,1.17.8,1.04,1.51-.03.17-.1.33-.19.47"/>
        <path class="cls-34" d="m170.76,493.98c0,7.99-19.15,14.46-42.77,14.46s-42.77-6.47-42.77-14.46,19.15-14.46,42.77-14.46,42.77,6.47,42.77,14.46"/>
        <path class="cls-24" d="m235.59,215.37c0,11.84-9.49,21.44-21.2,21.44s-21.2-9.6-21.2-21.44,9.49-21.44,21.2-21.44,21.2,9.6,21.2,21.44"/>
        <path class="cls-24" d="m214.39,195.33c-10.92,0-19.81,8.99-19.81,20.04s8.89,20.04,19.81,20.04,19.81-8.99,19.81-20.04-8.89-20.04-19.81-20.04m0,42.87c-12.46,0-22.6-10.24-22.6-22.83s10.14-22.83,22.6-22.83,22.6,10.24,22.6,22.83-10.14,22.83-22.6,22.83"/>
        <path class="cls-21" d="m229.2,215.37c0,8.27-6.63,14.97-14.81,14.97s-14.81-6.7-14.81-14.97,6.63-14.97,14.81-14.97,14.81,6.7,14.81,14.97"/>
        <path class="cls-21" d="m214.39,201.79c-7.4,0-13.41,6.09-13.41,13.58s6.02,13.58,13.41,13.58,13.41-6.09,13.41-13.58-6.02-13.58-13.41-13.58m0,29.94c-8.93,0-16.2-7.34-16.2-16.37s7.27-16.37,16.2-16.37,16.2,7.34,16.2,16.37-7.27,16.37-16.2,16.37"/>
        <path class="cls-31" d="m219.68,223.65c-.41,0-.83-.18-1.1-.54l-6.1-7.84c-.32-.41-.38-.97-.16-1.44l2.61-5.66c.32-.7,1.15-1.01,1.85-.68s1.01,1.15.68,1.85l-2.26,4.89,5.58,7.17c.47.61.37,1.49-.24,1.96-.25.2-.56.29-.86.29"/>
        <path class="cls-36" d="m199.62,214.6c-.01.26-.04.51-.04.77,0,8.27,6.63,14.97,14.81,14.97,3.95,0,7.53-1.57,10.18-4.12-13.91,1.06-21.17-5.21-24.95-11.62"/>
        <path class="cls-36" d="m201.69,219.74c1.8,5.35,6.81,9.21,12.7,9.21,1.96,0,3.86-.43,5.6-1.25-8.81-.38-14.57-3.91-18.3-7.96m12.7,12c-8.93,0-16.2-7.34-16.2-16.37,0-.21.01-.41.03-.61v-.23c.04-.62.48-1.14,1.07-1.28.6-.15,1.22.11,1.54.65,4.77,8.09,12.72,11.77,23.65,10.94.59-.04,1.14.28,1.38.82.24.54.12,1.17-.31,1.58-3.03,2.91-6.99,4.51-11.15,4.51"/>
        <path class="cls-19" d="m136.14,240.97c12.83,8.59,24.1,19.49,33.11,32.03,9.82-12.4,19.65-24.8,29.47-37.21,1.46-1.85,3.11-3.81,5.41-4.31,1.8-.39,3.65.2,5.45.59,7.28,1.57,15.22-.34,21-5.03-1.15,3.92-2.58,8.2-6.12,10.24-4.6,2.64-10.7.27-15.59,2.35-3.68,1.56-5.88,5.29-7.86,8.76-7.61,13.36-15.64,26.47-24.08,39.32-1.49,2.27-3.29,4.72-5.96,5.16-2.13.35-4.22-.7-6.12-1.71-4.31-2.3-8.62-4.6-12.93-6.89-5.54-2.95-11.15-5.96-15.71-10.27s-8-10.18-8.04-16.46c-.02-3.77,1.16-7.43,2.5-10.95.85-2.22,1.83-4.53,3.71-5.98,1.88-1.46,4.93-1.68,6.46.14"/>
        <path class="cls-9" d="m136.14,240.97c12.83,8.59,24.1,19.49,33.11,32.03,9.82-12.4,19.65-24.8,29.47-37.21,1.46-1.85,3.11-3.81,5.41-4.31,1.8-.39,3.65.2,5.45.59,7.28,1.57,15.22-.34,21-5.03-1.15,3.92-2.58,8.2-6.12,10.24-4.6,2.64-10.7.27-15.59,2.35-3.68,1.56-5.88,5.29-7.86,8.76-7.61,13.36-15.64,26.47-24.08,39.32-1.49,2.27-3.29,4.72-5.96,5.16-2.13.35-4.22-.7-6.12-1.71-4.31-2.3-8.62-4.6-12.93-6.89-5.54-2.95-11.15-5.96-15.71-10.27s-8-10.18-8.04-16.46c-.02-3.77,1.16-7.43,2.5-10.95.85-2.22,1.83-4.53,3.71-5.98,1.88-1.46,4.93-1.68,6.46.14"/>
        <path class="cls-30" d="m155.95,286.39c2.86-6.25,4.08-15.93,4.56-24.21-5.95-6.63-12.56-12.67-19.73-17.95l-6.97,10.58s.81,9.28,1.57,18.32c.28.29.57.57.85.84,4.56,4.32,10.17,7.32,15.7,10.27,1.34.71,2.68,1.43,4.01,2.14"/>
        <path class="cls-30" d="m119.11,366.82c-.24,13.31-2.99,20.27-.49,43.65,1.8,16.84,6.68,53.44,4.38,70.21-.34,2.47-.73,5.23.61,7.25,1.52,2.28,4.5,2.49,7.08,2.49,10.06-.01,18.98-.02,29.04-.04.76,0,1.67-.09,2.03-.83.49-1.02-.54-2.11-1.47-2.66-3.29-1.96-7.2-3.14-10.62-4.81-3.42-1.68-6.75-4-8.66-7.52-2.73-5.02-1.6-11.29-1.31-17.12,1.59-32.96,2.78-60.1,4.93-89.84"/>
        <path class="cls-30" d="m130.64,491.05c-2.95,0-5.89-.34-7.49-2.75-1.47-2.2-1.07-5.08-.72-7.62,1.97-14.36-1.28-42.88-3.44-61.75-.36-3.12-.68-5.96-.94-8.38-1.72-16.1-.97-24.39-.24-32.41.34-3.69.65-7.17.73-11.33,0-.34.26-.61.57-.61h.01c.32,0,.57.29.56.64-.08,4.21-.39,7.72-.73,11.43-.72,7.95-1.47,16.18.23,32.14.26,2.42.58,5.25.94,8.37,2.16,18.94,5.42,47.56,3.44,62.01-.34,2.51-.69,5.01.5,6.79,1.3,1.95,3.92,2.23,6.57,2.23h.05l29.04-.03c.55,0,1.31-.05,1.52-.5.3-.61-.6-1.44-1.24-1.81-1.92-1.14-4.11-2.04-6.23-2.9-1.45-.59-2.95-1.21-4.35-1.89-4.32-2.12-7.23-4.66-8.92-7.78-2.33-4.3-1.96-9.4-1.6-14.34.08-1.05.15-2.1.2-3.14l.58-12.09c1.33-27.76,2.47-51.73,4.35-77.77.02-.34.29-.6.62-.57.32.03.55.33.53.67-1.88,26.02-3.02,49.99-4.35,77.73l-.58,12.09c-.05,1.05-.13,2.11-.21,3.17-.34,4.74-.7,9.64,1.44,13.6,1.56,2.88,4.31,5.26,8.41,7.27,1.37.67,2.85,1.28,4.28,1.86,2.15.88,4.38,1.79,6.38,2.98,1.31.78,2.35,2.16,1.7,3.5-.56,1.16-1.94,1.16-2.53,1.17l-29.03.03h-.06Z"/>
        <path class="cls-19" d="m98.87,376.61c-.24,13.31-2.99,20.27-.49,43.65,1.8,16.84,6.68,53.44,4.38,70.21-.34,2.47-.73,5.23.61,7.25,1.52,2.28,4.5,2.49,7.08,2.49,10.06-.01,18.98-.02,29.04-.04.76,0,1.67-.09,2.03-.83.49-1.02-.54-2.11-1.47-2.66-3.29-1.96-7.2-3.14-10.62-4.81-3.42-1.68-6.75-4-8.67-7.52-2.73-5.02-1.59-11.29-1.31-17.12,1.59-32.96,2.78-60.1,4.93-89.84"/>
        <path class="cls-19" d="m110.39,500.84c-2.95,0-5.89-.34-7.49-2.75-1.47-2.2-1.07-5.08-.72-7.62,1.96-14.36-1.29-42.88-3.44-61.75-.36-3.12-.68-5.96-.94-8.38-1.72-16.1-.97-24.39-.24-32.41.34-3.69.65-7.17.73-11.33,0-.34.26-.61.57-.61h.01c.32,0,.57.29.56.64-.08,4.21-.39,7.72-.73,11.43-.72,7.95-1.47,16.18.23,32.14.26,2.42.58,5.25.94,8.37,2.16,18.94,5.42,47.56,3.44,62.01-.34,2.51-.69,5.01.5,6.79,1.3,1.95,3.92,2.23,6.57,2.23h.05l29.04-.03c.55,0,1.31-.05,1.52-.5.3-.61-.6-1.44-1.24-1.81-1.92-1.14-4.11-2.04-6.23-2.9-1.45-.59-2.95-1.21-4.35-1.89-4.32-2.12-7.24-4.66-8.92-7.78-2.33-4.3-1.96-9.4-1.6-14.34.08-1.05.15-2.1.21-3.14l.58-12.09c1.33-27.76,2.47-51.73,4.35-77.77.02-.34.29-.6.62-.57.32.03.55.33.53.67-1.88,26.02-3.02,49.99-4.35,77.73l-.58,12.09c-.05,1.05-.13,2.11-.21,3.17-.35,4.74-.71,9.64,1.44,13.6,1.56,2.88,4.31,5.26,8.41,7.27,1.37.67,2.85,1.28,4.28,1.86,2.15.88,4.38,1.79,6.37,2.98,1.31.78,2.35,2.16,1.7,3.5-.56,1.16-1.94,1.16-2.53,1.17l-29.04.03h-.05Z"/>
        <path class="cls-15" d="m133.98,248.92c-3.92,3.36-10.12,2.87-14.44.05s-7.72-9.35-9.88-14.04c0,1.14-6.64,0-8.45,7.35-5.87,23.74-4.18,45.16-8.7,69.31-4.49,23.98-5.91,57.25,1.98,84.68,17.4,1.54,34.97,1.19,52.29-1.04,3.53-22.32,3.43-45.2-.31-67.48-2.04-12.16-5.16-24.47-3.29-36.66,1.44-9.35,5.78-18.23,5.9-27.69.12-9.87-5.2-21.63-14.2-26.43,2.43,3.47,2.67,8.89-.89,11.94"/>
        <path class="cls-10" d="m133.98,248.92c-3.92,3.36-10.12,2.87-14.44.05s-7.72-9.35-9.88-14.04c0,1.14-6.64,0-8.45,7.35-5.87,23.74-4.18,45.16-8.7,69.31-4.49,23.98-5.91,57.25,1.98,84.68,17.4,1.54,34.97,1.19,52.29-1.04,3.53-22.32,3.43-45.2-.31-67.48-2.04-12.16-5.16-24.47-3.29-36.66,1.44-9.35,5.78-18.23,5.9-27.69.12-9.87-5.2-21.63-14.2-26.43,2.43,3.47,2.67,8.89-.89,11.94Z"/>
        <path class="cls-23" d="m146.78,395.23c1.21-7.65,1.98-15.37,2.34-23.11-31.84-2.74-50.56-16.09-60.19-25.87-.41,16.69,1.04,34.31,5.57,50.02,17.4,1.54,34.97,1.19,52.29-1.04"/>
        <path class="cls-2" d="m146.78,395.23c1.21-7.65,1.98-15.37,2.34-23.11-31.84-2.74-50.56-16.09-60.19-25.87-.41,16.69,1.04,34.31,5.57,50.02,17.4,1.54,34.97,1.19,52.29-1.04Z"/>
        <path class="cls-19" d="m134.94,234.36c.06,3.37.98,6.83,3.2,9.37,1.7,1.95,4.14,3.35,5.15,5.74,1.54,3.66-1.33,8.06-5.12,9.27-3.78,1.21-7.94-.04-11.4-1.99-10.43-5.88-16.54-18.59-14.61-30.41.28-1.69.73-3.41,1.83-4.72,1.88-2.24,5.15-2.71,8.08-2.56,3.21.16,11.18,1.04,13.26,3.99,1.95,2.78-.44,8-.38,11.32"/>
        <path class="cls-30" d="m133.3,234.94c.38-3.02,1.24-6.32,2.12-10.76l-13.73-4.1-1.62.96,4.19,4.88s3.52,6.15,9.04,9.02"/>
        <path class="cls-30" d="m122.57,221.79l2.76,3.21c.06.07.11.14.15.21.03.05,2.66,4.57,6.77,7.44.25-1.39.57-2.86.92-4.47.21-.96.42-1.97.65-3.05l-11.24-3.35Zm10.74,14.54c-.22,0-.44-.05-.64-.16-5.45-2.83-8.99-8.52-9.54-9.44l-4.1-4.79c-.27-.31-.38-.73-.32-1.14.07-.41.31-.76.67-.97l1.62-.96c.34-.2.74-.25,1.11-.14l13.73,4.1c.69.21,1.11.9.97,1.61-.31,1.58-.62,3.01-.91,4.34-.51,2.38-.96,4.43-1.2,6.33-.06.45-.33.85-.74,1.06-.2.11-.42.16-.65.16"/>
        <path class="cls-19" d="m121.63,221.15c-.06-.34-.13-.68-.19-1.02,4.92,2.12,10.09,4.28,15.43,3.82,5.34-.46,7.44-.93,9.12-7.35.36-1.37,1.31-4.06,1.44-5.47.13-1.42.96-2.93,2.35-3.19.66-.12,1.45.02,1.9-.48.54-.6.07-1.54-.37-2.21-3.8-5.8-5.5-13.17-4.35-20.02l-1.96-4.81s-21.55,3.3-21.85,3.47-4.47,23.47-4.47,23.47"/>
        <path class="cls-9" d="m121.63,221.15c-.06-.34-.13-.68-.19-1.02,4.92,2.12,10.09,4.28,15.43,3.82,5.34-.46,7.44-.93,9.12-7.35.36-1.37,1.31-4.06,1.44-5.47.13-1.42.96-2.93,2.35-3.19.66-.12,1.45.02,1.9-.48.54-.6.07-1.54-.37-2.21-3.8-5.8-5.5-13.17-4.35-20.02l-1.96-4.81s-21.55,3.3-21.85,3.47-4.47,23.47-4.47,23.47"/>
        <path class="cls-31" d="m130.69,490.42c10.06-.01,18.97-.02,29.04-.04.76,0,1.67-.09,2.03-.83.49-1.02-.54-2.11-1.47-2.66-3.29-1.96-7.2-3.14-10.62-4.81-.89-.44-1.76-.92-2.61-1.44h-.02c-3.89,2.94-7.89,3.2-12.01.66-1.67-1.03-3.1-2.45-4.73-3.55-1.63-1.09-3.6-1.84-5.45-1.32,0,0-.53-.01-1.43-.03-.1,1.53-.23,2.97-.41,4.28-.34,2.47-.73,5.23.61,7.25,1.52,2.29,4.5,2.49,7.08,2.49"/>
        <path class="cls-31" d="m124.47,477.68c-.09,1.17-.2,2.22-.33,3.19-.32,2.38-.65,4.75.4,6.32,1.15,1.73,3.61,1.97,6.1,1.97.02,0,.07.01.06,0l29.03-.03c.84,0,1.01-.16,1.02-.18-.03-.11-.38-.59-1.01-.96-1.89-1.12-4.06-2.01-6.16-2.86-1.46-.6-2.97-1.21-4.39-1.91-.73-.36-1.44-.74-2.11-1.13-4.11,2.84-8.36,2.94-12.64.3-.96-.6-1.84-1.3-2.68-1.99-.71-.57-1.38-1.11-2.08-1.58-1.18-.79-2.94-1.64-4.56-1.17-.1.03-.21.04-.31.04h-.34Zm6.17,13.99c-3.1,0-6.21-.37-7.96-3-1.6-2.41-1.17-5.56-.83-8.08.18-1.3.31-2.67.41-4.26.04-.67.54-1.19,1.16-1.17l1.28.03c1.86-.47,4,.05,6.17,1.51.79.53,1.53,1.12,2.25,1.7.83.67,1.61,1.3,2.45,1.82,3.7,2.29,7.23,2.09,10.8-.6.16-.12.35-.2.54-.22.23-.03.49.03.7.16.78.49,1.63.96,2.52,1.39,1.35.66,2.76,1.24,4.25,1.85,2.17.89,4.42,1.8,6.45,3.01,1.88,1.12,2.65,2.86,1.93,4.35-.72,1.49-2.41,1.49-3.04,1.5l-29.04.03h0-.06Z"/>
        <path class="cls-31" d="m110.45,500.22c10.06-.01,18.97-.02,29.04-.04.76,0,1.67-.09,2.03-.83.49-1.02-.54-2.11-1.47-2.66-3.29-1.96-7.2-3.14-10.62-4.81-.89-.44-1.76-.92-2.61-1.44h-.02c-3.89,2.94-7.89,3.2-12.01.66-1.67-1.03-3.1-2.45-4.73-3.55-1.63-1.09-3.6-1.84-5.45-1.32,0,0-.53-.01-1.43-.03-.1,1.53-.23,2.97-.41,4.28-.34,2.47-.73,5.23.61,7.25,1.52,2.29,4.5,2.49,7.08,2.49"/>
        <path class="cls-31" d="m104.22,487.48c-.09,1.17-.2,2.22-.33,3.19-.32,2.38-.65,4.75.4,6.32,1.15,1.73,3.61,1.97,6.1,1.97.02,0,.07.01.06,0l29.03-.03c.84,0,1.01-.16,1.02-.18-.03-.11-.38-.59-1.01-.96-1.89-1.12-4.06-2.01-6.16-2.86-1.46-.6-2.97-1.21-4.39-1.91-.73-.36-1.44-.74-2.11-1.13-4.12,2.84-8.36,2.94-12.64.3-.96-.6-1.84-1.3-2.68-1.99-.71-.57-1.38-1.11-2.08-1.58-1.19-.79-2.94-1.63-4.57-1.17-.1.03-.21.04-.31.04h-.34Zm6.17,13.99c-3.1,0-6.21-.37-7.96-3-1.6-2.41-1.17-5.56-.83-8.08.18-1.3.31-2.67.41-4.26.04-.67.54-1.19,1.16-1.17l1.28.03c1.86-.47,4,.05,6.17,1.51.79.53,1.53,1.12,2.25,1.7.83.67,1.61,1.3,2.45,1.82,3.7,2.29,7.23,2.09,10.8-.6.16-.12.35-.2.54-.22.23-.03.49.03.7.16.78.49,1.63.96,2.52,1.39,1.35.66,2.76,1.24,4.25,1.85,2.17.89,4.42,1.8,6.45,3.01,1.88,1.12,2.65,2.86,1.93,4.35-.72,1.49-2.41,1.49-3.04,1.5l-29.03.03h-.06Z"/>
        <path class="cls-20" d="m142.78,199.42c0,1.05-.58,1.9-1.3,1.9s-1.3-.85-1.3-1.9.58-1.9,1.3-1.9,1.3.85,1.3,1.9"/>
        <path class="cls-31" d="m141.48,198.66c-.09.14-.19.4-.19.76s.1.62.19.76c.09-.14.19-.4.19-.76s-.1-.62-.19-.76m.11,1.65h.01-.01Zm-.11,2.04c-1.35,0-2.4-1.29-2.4-2.93s1.05-2.93,2.4-2.93,2.4,1.28,2.4,2.93-1.06,2.93-2.4,2.93"/>
        <path class="cls-17" d="m112.35,163.98c-.48,0-.94-.25-1.17-.71l-2.94-5.52c-.34-.65-.1-1.45.55-1.8.65-.35,1.45-.1,1.8.55l2.94,5.52c.34.65.1,1.45-.55,1.8-.2.11-.41.16-.62.16"/>
        <path class="cls-17" d="m121.65,161.2c-.06,0-.12,0-.18-.01-.73-.1-1.24-.77-1.14-1.49.39-2.92.09-5.93-.87-8.72-.24-.69.13-1.45.82-1.69.69-.24,1.45.13,1.69.82,1.09,3.17,1.44,6.61.99,9.94-.09.67-.66,1.15-1.32,1.15"/>
        <path class="cls-17" d="m131.56,160.75c-.07,0-.14,0-.22-.02-.72-.12-1.21-.8-1.1-1.53l1.37-8.4c.12-.73.8-1.21,1.53-1.1.72.12,1.21.8,1.1,1.53l-1.38,8.4c-.11.65-.67,1.11-1.31,1.11"/>
        <path class="cls-17" d="m138.01,162.15c-.21,0-.43-.05-.63-.16-.65-.35-.89-1.15-.54-1.8l3.76-6.98c.34-.64,1.15-.89,1.8-.54.65.35.89,1.15.54,1.8l-3.76,6.98c-.24.45-.7.7-1.17.7"/>
        <path class="cls-19" d="m100.28,244.05c2.28-2.41,5.82-2.53,8.93-1.38,4.47,1.65,5.79,7.33,5.68,12.09-.34,14.1-7.23,27.06-12.06,40.31-1,2.74-1.92,5.57-1.93,8.48,0,2.88.89,5.68,1.77,8.43,4.14,12.85,8.5,26.11,17.47,36.21.47.53,2.81,2.69,2.83,3.39.04,1.35-3.3-.16-4.5-.78-1.2-.62-2.2-1.33-2.74-2.57,1.47,4.07,4.86,12.7,3.46,13.42s-4.58-8.68-5.27-8.48c-.69.2.58,4.03.89,5.2.31,1.17,1.39,7.13.27,7.57-.95.38-2.19-9.25-3.77-8.76-1.58.49.41,9.9-1.63,9.9-1.6,0-1.12-9.44-2.68-9.16-1.56.27-.3,6.73-2.23,7.97-2.44-13.71-6.22-29.04-11.83-41.78-3.2-7.27-6.96-14.54-7.52-22.47-.44-6.33,1.21-12.6,2.84-18.73,3.14-11.78,1.99-10.49,5.13-22.28,0,0,4.6-14.19,6.89-16.59"/>
        <path class="cls-9" d="m100.28,244.05c2.28-2.41,5.82-2.53,8.93-1.38,4.47,1.65,5.79,7.33,5.68,12.09-.34,14.1-7.23,27.06-12.06,40.31-1,2.74-1.92,5.57-1.93,8.48,0,2.88.89,5.68,1.77,8.43,4.14,12.85,8.5,26.11,17.47,36.21.47.53,2.81,2.69,2.83,3.39.04,1.35-3.3-.16-4.5-.78-1.2-.62-2.2-1.33-2.74-2.57,1.47,4.07,4.86,12.7,3.46,13.42s-4.58-8.68-5.27-8.48c-.69.2.58,4.03.89,5.2.31,1.17,1.39,7.13.27,7.57-.95.38-2.19-9.25-3.77-8.76-1.58.49.41,9.9-1.63,9.9-1.6,0-1.12-9.44-2.68-9.16-1.56.27-.3,6.73-2.23,7.97-2.44-13.71-6.22-29.04-11.83-41.78-3.2-7.27-6.96-14.54-7.52-22.47-.44-6.33,1.21-12.6,2.84-18.73,3.14-11.78,1.99-10.49,5.13-22.28,0,0,4.6-14.19,6.89-16.59Z"/>
        <path class="cls-8" d="m141.48,212.11c1.22,1.76,3.24,3.02,5.2,2.17"/>
        <path class="cls-28" d="m104.65,193.01c-1.87,5.2-3.75,10.49-4.16,16-.2,2.71-.09,5.64-1.62,7.89-1.53,2.25-4.44,3.36-5.68,5.79-2.11,4.16,1.97,8.81,6.03,11.12,6.25,3.55,13.92,5.39,20.68,2.94,6.76-2.45,11.78-10.16,9.54-16.99-1.41-4.29-5.35-8.56-3.41-12.64,1.3-2.74,4.96-4.11,5.5-7.1.62-3.41-3.32-6.57-2.36-9.9.73-2.52,3.83-3.4,6.46-3.53,22.67-1.07,9.2-15.47-4.83-14.05-13.55,1.37-22.2,9.48-26.14,20.47"/>
        <path class="cls-7" d="m143.18,192.94c-1.76-.88-4.1-.42-5.4,1.06"/>
        <path class="cls-22" d="m456.81,91.42h-209.42c-3.5,0-6.34,3.5-6.34,7.81v14.88c0,4.31,2.84,7.81,6.34,7.81h.99v3.23c0,3.66.66,7.13,1.83,10.26h0s.07.2.07.2h0c.07.2.15.39.23.57v.03c.12.25.23.5.34.75h0c.08.19.16.37.25.55v.03c.13.24.25.48.37.71l.02.03c.12.24.25.47.37.7v.02c.11.17.2.34.3.5v.02s.11.16.11.16h0c.1.18.2.34.31.51v.02c.15.22.3.44.44.65v.02c.12.16.23.32.34.47h0s.11.16.11.16l.02.02c.11.15.22.3.33.44l.02.03.11.14h0c.11.15.23.3.35.44l.04.05c.11.14.22.27.34.4l.03.03.11.12.04.04c.11.13.23.25.34.38l.04.05.11.12.03.03c.07.08.15.16.22.23l.02.03.11.11.05.05.11.1.04.04.19.19.06.06.1.09.06.06.1.09.03.03c.07.07.14.13.22.2l.05.05.11.09.06.05c.08.07.16.14.24.21h0s.11.09.11.09l.06.05.11.09.07.06.17.14.08.06.1.08.07.05.11.08.07.05.18.13.09.07.09.06.1.07.08.06.16.11.09.06.1.07.09.06.12.07.1.06.14.09.08.05.11.07.08.05.14.08.12.07.11.06.09.05.11.06.08.05.18.1.08.04.12.06.08.04.13.06.07.04.19.09.07.03.14.06.08.04.18.08.04.02.17.07.08.03.14.06.07.03.2.08.06.02.16.06.07.02.15.05.07.02.2.07.06.02.16.05.07.02.19.06h.02s.21.07.21.07l.07.02.16.05.06.02c.07.02.14.04.22.06h.03s.18.05.18.05l.07.02.17.04h.05c.07.03.14.05.22.06h.05s.17.05.17.05h.07s.18.05.18.05h.04c.07.02.15.03.22.05h.06s.17.04.17.04h.06c.08.02.15.03.23.04h.02s.21.03.21.03h.07s.17.02.17.02h.06c.08.01.15.02.23.02h.04s.19.02.19.02h.07s.2.02.2.02h.04c.07,0,.15,0,.23.01h.06s.18,0,.18,0h.06s.13,0,.13,0c4.66,51.26,34.85,97.29,62.43,117.31,5.01,3.64,5.01,12.67,0,16.3-29.73,21.58-62.49,73.39-63.04,129.38h-.04s-.04,0-.04,0h-.2s-.07.01-.07.01h-.19s-.04.02-.04.02c-.08,0-.15.01-.23.02h-.06s-.17.02-.17.02h-.07s-.21.03-.21.03h-.02c-.07.01-.15.02-.23.03h-.06s-.17.03-.17.03h-.06c-.07.02-.15.03-.22.05h-.04s-.18.04-.18.04h-.07s-.17.05-.17.05h-.05c-.07.02-.15.04-.22.06h-.05s-.17.05-.17.05l-.07.02-.18.05h-.03c-.07.03-.14.05-.22.07l-.06.02-.16.04-.07.02-.21.06h-.02s-.19.07-.19.07l-.07.02-.16.05-.06.02-.2.07-.07.02-.15.06-.07.02-.16.06-.06.02-.2.08-.07.03-.14.06-.08.03-.17.07-.04.02-.18.08-.08.04-.14.06-.07.03-.19.09-.07.04-.13.06-.08.04-.13.07-.07.04-.18.1-.07.04-.12.07-.09.05-.12.07-.08.05-.16.1-.08.05-.11.07-.08.05-.14.09-.1.07-.12.07-.09.06-.11.07-.07.05-.17.11-.08.06-.1.07-.09.06-.09.07-.14.11-.1.07-.11.08-.07.05-.1.08-.08.06-.17.14-.07.06-.1.08-.07.06-.11.09h0c-.08.07-.16.14-.24.21l-.06.05-.11.09-.05.05c-.07.06-.14.13-.22.2l-.03.03-.1.1-.06.06-.1.09-.07.06-.17.16-.07.07-.09.09-.06.06-.1.1-.02.02c-.07.07-.14.15-.22.23l-.04.05-.1.11-.05.06c-.11.12-.22.25-.33.37l-.04.04-.11.12-.03.03c-.11.13-.23.27-.34.4l-.04.05-.11.13h0c-.08.1-.16.21-.24.3h0s-.11.15-.11.15l-.02.03c-.11.15-.22.29-.33.44l-.02.02-.11.15h-.01c-.11.17-.22.32-.33.48v.02c-.12.16-.23.33-.34.49l-.1.15-.02.04c-.1.16-.2.32-.3.48l-.02.02-.09.16v.02c-.11.16-.2.33-.3.5l-.02.03c-.13.23-.25.46-.37.69l-.02.05c-.12.23-.23.47-.35.7l-.02.04c-.08.18-.17.35-.25.53h0s-.08.2-.08.2h0c-.08.19-.16.37-.23.56l-.02.04c-.07.18-.15.37-.22.55v.02s-.07.17-.07.17v.02c-1.18,3.13-1.84,6.6-1.84,10.26v3.23h-.99c-3.5,0-6.34,3.5-6.34,7.81v14.88c0,4.31,2.84,7.81,6.34,7.81h209.42c3.5,0,6.34-3.5,6.34-7.81v-14.88c0-4.31-2.84-7.81-6.34-7.81h-1.41v-3.23c0-13.25-8.61-24.14-19.28-24.61-.03-3.46-.19-6.92-.46-10.34-.02-.31-.05-.62-.08-.94-.1-1.24-.23-2.49-.36-3.73-.1-.93-.21-1.86-.33-2.78-.08-.62-.16-1.23-.24-1.85-.47-3.38-1.04-6.74-1.71-10.06-.11-.53-.22-1.06-.33-1.59-.07-.32-.14-.64-.21-.96-.07-.3-.13-.61-.2-.91-.02-.11-.05-.23-.08-.34-.07-.3-.14-.6-.2-.89-.08-.33-.15-.66-.23-.98-.07-.29-.14-.58-.21-.87-.03-.12-.06-.25-.09-.37-.07-.29-.14-.57-.21-.86-.03-.11-.06-.23-.09-.34-2.64-10.43-6.22-20.45-10.46-29.88l-.08-.18c-.63-1.39-1.27-2.77-1.93-4.13-.14-.3-.29-.6-.44-.9-.12-.24-.23-.48-.35-.71-.06-.13-.13-.26-.19-.39-.21-.43-.43-.86-.65-1.29-.13-.25-.25-.5-.38-.75-.31-.6-.62-1.21-.94-1.81l-.49-.93c-.21-.39-.41-.77-.62-1.15-.29-.53-.57-1.06-.87-1.58-.09-.16-.18-.32-.26-.48-.48-.86-.96-1.71-1.45-2.55-.39-.67-.78-1.33-1.17-1.99-.23-.38-.46-.77-.69-1.15-.17-.28-.33-.55-.5-.83-.24-.39-.48-.78-.72-1.17-.06-.1-.12-.2-.18-.29-.16-.27-.33-.53-.5-.79-.33-.53-.67-1.05-1-1.56-.17-.26-.34-.52-.5-.78l-.15-.23c-.48-.73-.96-1.45-1.44-2.16l-.09-.13c-.43-.63-.86-1.26-1.3-1.88-.29-.41-.58-.82-.87-1.24-.14-.21-.29-.41-.44-.61-.29-.41-.59-.81-.88-1.21l-.07-.09c-.53-.72-1.06-1.43-1.59-2.13l-.04-.06c-.14-.18-.27-.36-.41-.53-.41-.53-.82-1.06-1.23-1.58-.12-.15-.24-.3-.35-.45-2.08-2.62-4.19-5.12-6.32-7.49-.39-.43-.78-.86-1.17-1.28-.39-.42-.78-.84-1.17-1.25-1.56-1.65-3.14-3.23-4.72-4.74-.2-.19-.39-.37-.59-.56-1.38-1.3-2.77-2.54-4.15-3.73-.2-.17-.4-.34-.6-.5-.23-.2-.47-.39-.71-.59-.29-.24-.59-.48-.88-.72-.29-.24-.59-.47-.88-.7-.35-.28-.7-.55-1.05-.82-.23-.18-.47-.36-.7-.53-.47-.35-.94-.7-1.4-1.03-.08-.06-.16-.11-.23-.17-.08-.06-.15-.12-.23-.18l-.11-.09-.17-.15-.12-.12-.05-.04-.18-.18-.18-.2c-.1-.11-.2-.22-.29-.34l-.09-.11-.16-.22-.1-.14c-.07-.1-.14-.21-.21-.31l-.04-.07c-.06-.09-.12-.19-.17-.29l-.06-.1c-.2-.36-.38-.73-.54-1.11l-.06-.16c-.12-.31-.23-.63-.32-.95l-.05-.16c-.78-2.86-.42-6.12,1.05-8.63.08-.14.17-.28.26-.42l.14-.2.02-.03c.08-.11.16-.22.24-.32l.09-.12c.45-.56.97-1.05,1.56-1.48,26.31-18.99,54.38-61.39,61.11-109.45.08-.57.16-1.14.23-1.71.04-.31.08-.61.12-.92.04-.32.08-.64.12-.96.09-.72.17-1.45.24-2.18.04-.38.08-.76.11-1.14v-.15c.04-.27.07-.54.09-.81,10.95-.07,19.88-11.13,19.88-24.62v-3.23h1.41c3.5,0,6.34-3.5,6.34-7.81v-14.88c0-4.31-2.84-7.81-6.34-7.81"/>
        <path class="cls-32" d="m456.81,91.42h-209.42c-3.5,0-6.34,3.5-6.34,7.81v14.32c0,4.62,3.04,8.36,6.79,8.36h.54v3.23c0,3.66.66,7.13,1.83,10.26h0s.07.2.07.2h0c.07.2.15.39.23.57v.03c.12.25.23.5.34.75h0c.08.19.16.37.25.55v.03c.13.24.25.48.37.71l.02.03c.12.24.25.47.37.7v.02c.11.17.2.34.3.5v.02s.11.16.11.16h0c.1.18.2.34.31.51v.02c.15.22.3.44.44.65v.02c.12.16.23.32.34.47h0s.11.16.11.16l.02.02c.11.15.22.3.33.44l.02.03.11.14h0c.11.15.23.3.35.44l.04.05c.11.14.22.27.34.4l.03.03.11.12.04.04c.11.13.23.25.34.38l.04.05.11.12.03.03c.07.08.15.16.22.23l.02.03.11.11.05.05.11.1.04.04.19.19.06.06.1.09.06.06.1.09.03.03c.07.07.14.13.22.2l.05.05.11.09.06.05c.08.07.16.14.24.21h0s.11.09.11.09l.06.05.11.09.07.06.17.14.08.06.1.08.07.05.11.08.07.05.18.13.09.07.09.06.1.07.08.06.16.11.09.06.1.07.09.06.12.07.1.06.14.09.08.05.11.07.08.05.14.08.12.07.11.06.09.05.11.06.08.05.18.1.08.04.12.06.08.04.13.06.07.04.19.09.07.03.14.06.08.04.18.08.04.02.17.07.08.03.14.06.07.03.2.08.06.02.16.06.07.02.15.05.07.02.2.07.06.02.16.05.07.02.19.06h.02s.21.07.21.07l.07.02.16.05.06.02c.07.02.14.04.22.06h.03s.18.05.18.05l.07.02.17.04h.05c.07.03.14.05.22.06h.05s.17.05.17.05h.07s.18.05.18.05h.04c.07.02.15.03.22.05h.06s.17.04.17.04h.06c.08.02.15.03.23.04h.02s.21.03.21.03h.07s.17.02.17.02h.06c.08.01.15.02.23.02h.04s.19.02.19.02h.07s.2.02.2.02h.04c.07,0,.15,0,.23.01h.06s.18,0,.18,0h.06s.13,0,.13,0h.1s167.02,0,167.02,0h.11c10.95-.08,19.88-11.13,19.88-24.63v-3.23h1.41c3.5,0,6.34-3.5,6.34-7.81v-14.88c0-4.31-2.84-7.81-6.34-7.81"/>
        <path class="cls-32" d="m456.35,440.59h-.96v-3.23c0-13.25-8.61-24.14-19.28-24.61-.24,0-.48-.02-.71-.02h-167.02c-.08,0-.16,0-.23,0h-.24s-.06,0-.06,0h-.18s-.05,0-.05,0h-.03s-.2.01-.2.01h-.07s-.19.02-.19.02h-.04c-.07,0-.15.02-.23.02h-.06s-.18.02-.18.02h-.07s-.21.03-.21.03h-.01c-.08.01-.15.02-.23.03h-.06s-.17.04-.17.04h-.06c-.07.02-.15.03-.22.05h-.04s-.18.04-.18.04h-.07s-.17.05-.17.05h-.05c-.07.02-.14.04-.22.06h-.05s-.17.05-.17.05l-.07.02-.18.05h-.03c-.07.03-.14.05-.22.07l-.06.02-.16.04-.07.02-.21.06h-.02s-.19.07-.19.07l-.07.02-.16.05-.06.02-.2.07-.07.02-.15.06-.07.02-.16.06-.06.02-.2.08-.07.03-.14.06-.08.03-.17.07-.05.02-.18.08-.08.04-.13.06-.07.03-.19.09-.07.04-.13.06-.08.04-.14.07-.07.04-.18.1-.08.04-.12.07-.09.05-.12.07-.08.05-.16.1-.08.05-.11.07-.08.05-.15.09-.1.07-.12.07-.09.06-.11.07-.07.05-.17.11-.08.06-.1.07-.09.06-.1.07-.14.11-.1.07-.11.08-.07.05-.11.08-.07.06-.17.14-.07.06-.1.08-.07.06-.11.09h0c-.08.07-.16.14-.25.21l-.06.05-.11.09-.05.05c-.07.06-.15.13-.22.2l-.04.03-.1.1-.06.06-.1.09-.07.06-.17.16-.07.07-.09.09-.06.06-.1.1-.02.02c-.07.07-.14.15-.22.23l-.05.05-.1.11-.05.06c-.11.12-.23.25-.34.37l-.03.04-.11.12-.03.03c-.11.13-.23.27-.34.4l-.04.05-.11.13h0c-.08.1-.16.21-.24.3h0s-.11.15-.11.15l-.02.03c-.11.15-.22.29-.33.44l-.02.02-.11.15h-.01c-.11.17-.22.32-.33.48l-.02.02c-.11.16-.22.33-.32.49l-.1.15-.02.04c-.1.16-.2.32-.3.48v.02s-.11.16-.11.16v.02c-.11.16-.21.33-.3.5l-.02.03c-.13.23-.25.46-.37.69l-.02.05c-.12.23-.24.47-.35.7l-.02.04c-.08.18-.17.35-.25.53h0s-.08.2-.08.2h0c-.08.19-.16.37-.23.56l-.02.04c-.07.18-.15.37-.22.55v.02s-.07.17-.07.17v.02c-1.18,3.13-1.84,6.6-1.84,10.26v3.23h-.54c-3.75,0-6.79,3.74-6.79,8.36v14.32c0,4.31,2.84,7.81,6.34,7.81h208.96c3.75,0,6.79-3.74,6.79-8.36v-13.76c0-4.62-3.04-8.36-6.79-8.36"/>
        <path class="cls-37" d="m388.27,355.61c-2.74-1.01-5.36-2.08-7.91-3.19-.31-.14-.62-.27-.92-.41-.46-.21-.92-.41-1.38-.62-7.94-3.63-15.2-7.75-22.78-12.22-.52-.31-1.04-.62-1.57-.93-.53-.31-1.05-.62-1.58-.94-.79-.47-1.59-.95-2.4-1.42-2.41-1.43-4.88-2.89-7.43-4.38-3.8-2-8.28-1.43-12.08.26-1.2.53-2.33,1.2-3.44,1.96h0c-1.96,1.34-3.8,2.93-5.66,4.48-8.06,6.73-15.87,13.82-22.16,23.09-6.42,9.27-11.5,20.07-14.45,31.72-.92,3.63-1.8,7.63-2.2,11.63-.27,2.74-.31,5.47.02,8.1h134.07c2.11-24.64-11.27-50.2-28.16-57.13"/>
        <path class="cls-16" d="m388.27,355.61c-2.74-1.01-5.36-2.08-7.91-3.19-.31-.14-.62-.27-.92-.41-.46-.21-.92-.41-1.38-.62-7.94-3.63-15.2-7.75-22.78-12.22-.52-.31-1.04-.62-1.57-.93-.53-.31-1.05-.62-1.58-.94-.79-.47-1.59-.95-2.4-1.42-2.41-1.43-4.88-2.89-7.43-4.38-3.8-2-8.28-1.43-12.08.26-1.2.53-2.33,1.2-3.44,1.96-11.57,18.58-20.62,40.65-24.17,64.35-.75,5.04-4.31,8.65-8.41,8.65-.21,0-.43-.01-.64-.03l-7.65-.71c-1.31-.12-2.52-.6-3.58-1.34-.27,2.74-.31,5.47.02,8.1h134.07c2.11-24.64-11.27-50.2-28.16-57.13"/>
        <path class="cls-37" d="m393.79,230.69c4.04-5.54,7.74-11.63,10.9-18.12-.46-.42-.92-.83-1.39-1.23-14.73-12.37-36.83-11.29-53.76-2.08-1.27.69-3.18,0-4.46,0-7.47-4.24-16.26-5.24-24.61-3.26-6.77,1.6-13.24,5.15-18.47,10.51,6.42,11.91,16.71,24.31,26.5,33.4,4.27,3.96,8.44,7.28,12.15,9.67,2.15,1.38,1.76,7.4,1.63,9.73-.21,3.64,1.78,6.85,4.92,7.43,1.41.26,3.14.09,3.94,1.54.55,1,.37,2.35.63,3.52.22.97.78,1.79,1.49,2.28.47.33,1.01.5,1.56.48.56-.02,1.13-.23,1.69-.11.65.15,1.33.74,1.9.34.24-.17.39-.48.52-.78.08-.17.16-.34.23-.51.32-.69.63-1.39.95-2.08.52-1.14,1.04-2.3,1.35-3.55.26-1.06.35-2.17.44-3.26.26-3.05.39-6.09.6-9.14.02-.33.05-.71.08-1.13.13-1.74.41-4.01,1.57-4.75,5.59-3.56,13.04-10.11,19.7-17.14,3.71-3.91,7.17-7.97,9.93-11.75"/>
        <path class="cls-16" d="m393.79,230.69c4.04-5.54,7.74-11.63,10.9-18.12-.46-.42-.92-.83-1.39-1.23-14.73-12.37-36.83-11.29-53.76-2.08-1.27.69-3.18,0-4.46,0-7.47-4.24-16.26-5.24-24.61-3.26,4.35,8.63,9.24,16.69,14.44,23.99,5.35,7.51,1.42,19.11-6.41,19.91,4.27,3.96,8.44,7.28,12.15,9.67,2.15,1.38,1.76,7.4,1.63,9.73-.21,3.64,1.78,6.85,4.92,7.43,1.41.26,3.14.09,3.94,1.54.55,1,.37,2.35.63,3.52.22.97.78,1.79,1.49,2.28.47.33,1.01.5,1.56.48.56-.02,1.13-.23,1.69-.11.65.15,1.33.74,1.9.34.24-.17.39-.48.52-.78.08-.17.16-.34.23-.51.32-.69.63-1.39.95-2.08.52-1.14,1.04-2.3,1.35-3.55.26-1.06.35-2.17.44-3.26.26-3.05.39-6.09.6-9.14.02-.33.05-.71.08-1.13.13-1.74.41-4.01,1.57-4.75,5.59-3.56,13.04-10.11,19.7-17.14,3.71-3.91,7.17-7.97,9.93-11.75"/>
        <path class="cls-26" d="m267.9,412.74h.18s.06,0,.06,0c.08,0,.16,0,.23,0h13.98c-.33-2.62-.29-5.36-.02-8.1-3.16-2.21-5-6.8-4.13-11.5,6.66-36.03,25.81-67.86,46.6-88.82,1.54-1.55,3.46-2.39,5.44-2.39.21,0,.43,0,.64.03,7.16.66,10.54,11.26,5.62,17.7-3.38,4.41-6.64,9.11-9.71,14.05,1.1-.75,2.24-1.42,3.44-1.96,3.8-1.69,8.28-2.26,12.08-.26,4.54,2.65,8.81,5.21,12.98,7.67,7.58,4.47,14.83,8.59,22.78,12.22.46.21.92.42,1.38.62.31.14.61.27.92.41,2.55,1.12,5.17,2.18,7.91,3.19,16.89,6.93,30.27,32.49,28.16,57.13h5.18c-.55-55.87-32.6-107.58-62.44-129.24-.08.17-.16.34-.23.51-.14.3-.28.61-.52.78-.57.41-1.25-.19-1.9-.34-.55-.13-1.12.09-1.69.11-.54.02-1.08-.16-1.55-.48-.71-.49-1.28-1.31-1.49-2.28-.26-1.17-.08-2.51-.63-3.52-.8-1.46-2.53-1.28-3.94-1.54-3.14-.58-5.13-3.79-4.92-7.43.13-2.34.52-8.36-1.63-9.73-3.72-2.38-7.89-5.71-12.15-9.67-.28.03-.57.04-.86.04-2.41,0-4.74-1.1-6.53-3.09-16.71-18.63-32.08-45.25-39.69-75.13-1.73-6.79,2.39-13.7,8.17-13.7h7.95c3.82,0,7.17,3.11,8.22,7.63,3.33,14.31,8.47,27.93,14.72,40.35,8.34-1.97,17.14-.98,24.61,3.26h0c1.27,0,3.18.69,4.46,0,16.93-9.21,39.03-10.29,53.76,2.08,9.11-18.46,15.73-39.54,17.7-61.59h-152.73c4.66,51.25,34.85,97.29,62.43,117.31,5.01,3.64,5.01,12.67,0,16.3-29.73,21.58-62.49,73.39-63.04,129.38h.18s.06,0,.06,0Z"/>
        <path class="cls-25" d="m388.27,355.61c-2.74-1.01-5.36-2.08-7.91-3.19-.31-.14-.62-.27-.92-.41-.46-.21-.92-.41-1.38-.62-7.94-3.63-15.2-7.75-22.78-12.22-4.17-2.46-8.44-5.03-12.98-7.67-3.55-1.87-8-1.5-11.92.2-.02,5.25-.83,13.44.85,14.48,5.62,3.19,10.15,5.85,13.9,9.75l.16-.08c.12.18.22.37.32.57,3.42,3.71,6.21,8.56,8.61,15.96,3.4,12.58,19.58,2.1,28.94,4.19,9.36,2.1,10.22,22.01,8.51,34.6-.08.53-.16,1.05-.25,1.56h25c2.11-24.64-11.27-50.2-28.16-57.13"/>
        <path class="cls-25" d="m349.54,209.27c-1.27.69-3.18,0-4.46,0,10.88,5.52,21.56,13.29,32.85,17.8.13.05.26.1.39.15.51.2,1.03.4,1.55.58.39.14.78.28,1.16.41.52.18,1.04.34,1.56.5.26.08.52.16.78.23.26.08.53.15.79.22.26.07.53.14.79.21.68.17,1.36.33,2.05.47.22.05.44.09.67.13,1.54.3,3.09.5,4.66.62.49.04.98.06,1.47.08,4.04-5.54,7.75-11.62,10.9-18.12-.46-.42-.92-.83-1.39-1.23-14.73-12.37-36.83-11.29-53.76-2.08"/>
        <path class="cls-14" d="m456.36,91.42h-2.92v10.42c0,4.62-3.04,8.36-6.79,8.36h-205.59v3.34c0,4.62,3.04,8.36,6.79,8.36h196.27c-2.92,9.16-10.18,15.7-18.63,15.7h-167.02c-2.94,0-5.73-.79-8.25-2.21h0s.07.2.07.2h0c.07.2.15.39.23.57v.03c.12.25.23.5.34.75h0c.08.19.16.37.25.55v.03c.13.24.25.48.37.71l.02.03c.12.24.25.47.37.7v.02c.11.17.2.34.3.5v.02s.11.16.11.16h0c.1.18.2.34.31.51v.02c.15.22.3.44.44.65v.02c.12.16.23.32.34.47h0s.11.16.11.16l.02.02c.11.15.22.3.33.44l.02.03.11.14h0c.11.15.23.3.35.44l.04.05c.11.14.22.27.34.4l.03.03.11.12.04.04c.11.13.23.25.34.38l.04.05.11.12.03.03c.07.08.15.16.23.23l.02.03.11.11.05.05.11.1.04.04.19.19.06.06.1.09.06.06.1.09.03.03c.07.07.14.13.22.2l.05.05.11.09.06.05c.08.07.16.14.24.21h0s.11.09.11.09l.06.05.11.09.07.06.17.14.08.06.1.08.07.05.11.08.07.05.18.13.09.07.09.06.1.07.08.06.16.11.09.06.1.07.09.06.11.07.1.06.14.09.08.05.11.07.08.05.14.08.12.07.11.06.09.05.11.06.08.05.18.1.08.04.12.06.08.04.13.06.07.04.19.09.07.03.14.06.08.04.18.08.05.02.17.07.08.03.14.06.07.03.2.08.06.02.16.06.07.02.15.05.07.02.2.07.06.02.16.05.07.02.19.06h.02s.21.07.21.07l.07.02.16.05.06.02c.07.02.14.04.22.06h.03s.18.05.18.05l.07.02.17.04h.05c.07.03.14.05.22.06h.05s.17.05.17.05h.07s.18.05.18.05h.04c.07.02.15.03.22.05h.06s.17.04.17.04h.06c.08.02.15.03.23.04h.02s.21.03.21.03h.07s.17.02.17.02h.06c.08.01.15.02.23.02h.04s.19.02.19.02h.07s.2.02.2.02h.04c.07,0,.15,0,.23.01h.06s.18,0,.18,0h.06s.13,0,.13,0h.1s167.02,0,167.02,0h.11c10.95-.08,19.88-11.13,19.88-24.63v-3.23h.96c3.75,0,6.79-3.75,6.79-8.36v-13.76c0-4.62-3.04-8.36-6.79-8.36"/>
        <path class="cls-14" d="m435.4,412.73h-167.02c-.08,0-.16,0-.23,0h-.24s-.06,0-.06,0h-.18s-.05,0-.05,0h-.03s-.2.01-.2.01h-.07s-.19.02-.19.02h-.04c-.08,0-.15.02-.23.02h-.06s-.18.02-.18.02h-.07s-.21.03-.21.03h-.01c-.08.01-.15.02-.23.03h-.06s-.17.04-.17.04h-.06c-.07.02-.15.03-.22.05h-.04s-.18.04-.18.04h-.07s-.17.05-.17.05h-.05c-.07.02-.14.04-.22.06h-.05s-.17.05-.17.05l-.07.02-.18.05h-.03c-.07.03-.14.05-.22.07l-.06.02-.16.04-.07.02-.21.06h-.02s-.19.07-.19.07l-.07.02-.16.05-.06.02-.2.07-.07.02-.15.06-.07.02-.16.06-.06.02-.2.08-.07.03-.14.06-.08.03-.17.07-.05.02-.18.08-.08.04-.13.06-.07.03-.19.09-.07.04-.13.06-.08.04-.13.07-.07.04-.18.1-.08.04-.12.07-.09.05-.12.07-.08.05-.16.1-.08.05-.11.07-.08.05-.15.09-.1.07-.12.07-.09.06-.11.07-.07.05-.17.11-.08.06-.1.07-.09.06-.1.07-.14.11-.1.07-.11.08-.07.05-.11.08-.07.06-.17.14-.07.06-.1.08-.07.06-.11.09h0c-.08.07-.16.14-.25.21l-.06.05-.11.09-.05.05c-.07.06-.15.13-.22.2l-.04.03-.1.1-.06.06-.1.09-.07.06-.17.16-.07.07-.09.09-.06.06-.1.1-.02.02c-.07.07-.14.15-.22.23l-.05.05-.1.11-.05.06c-.11.12-.23.25-.34.37l-.03.04-.11.12-.03.03c-.11.13-.23.27-.34.4l-.04.05-.11.13h0c-.08.1-.16.21-.24.3h0s-.11.15-.11.15l-.02.03c-.11.15-.22.29-.33.44l-.02.02-.11.15h-.01c-.11.17-.22.32-.33.48l-.02.02c-.11.16-.22.33-.32.49l-.1.15-.02.04c-.1.16-.2.32-.3.48v.02s-.11.16-.11.16v.02c-.11.16-.21.33-.3.5l-.02.03c-.13.23-.25.46-.37.69l-.02.05c-.12.23-.23.47-.35.7l-.02.04c-.08.18-.17.35-.25.53h0s-.08.2-.08.2h0c-.08.19-.16.37-.23.56l-.02.04c-.07.18-.15.37-.22.55v.02s-.07.17-.07.17v.02c2.51-1.42,5.31-2.21,8.25-2.21h167.03c8.44,0,15.71,6.53,18.63,15.7h-196.28c-3.75,0-6.79,3.74-6.79,8.36v3.34h205.59c3.75,0,6.79,3.74,6.79,8.36v10.42h2.92c3.75,0,6.79-3.75,6.79-8.36v-13.76c0-4.62-3.04-8.36-6.79-8.36h-.96v-3.23c0-13.25-8.61-24.14-19.28-24.61h0c-.24,0-.48-.02-.71-.02"/>
        <path class="cls-16" d="m350.44,290.18c.06-1.18-.96-3.03-1.65-2.22-.34.39,0,2.31,0,2.31.54.15,1.12.12,1.64-.09"/>
        <path class="cls-16" d="m356.35,315.43c.23-.05.38-.34.33-.62-.18-1.12-1.02-2.41-1.62-1.71-.34.39,0,2.31,0,2.31.42.11.86.12,1.28.02"/>
        <path class="cls-16" d="m343.13,336.38c-.34.4,0,2.31,0,2.31.54.15,1.12.12,1.64-.09.06-1.17-.96-3.03-1.65-2.22"/>
        <path class="cls-16" d="m354.79,347.26c-.36-.37-1.86.3-1.86.3-.05.68.04,1.38.27,2,.96-.07,2.32-1.54,1.59-2.29"/>
        <path class="cls-16" d="m346.56,306.64c.07.71.71,1.12,1.2.75.67-.51,1.16-1.37.65-1.88-.21-.22-.81-.08-1.27.07-.37.12-.63.57-.58,1.04v.02Z"/>
        <path class="cls-16" d="m353.87,298.15c.25-.08.33-.47.29-.78-.04-.31-.15-.61-.12-.92.04-.35.24-.63.41-.91.38-.6.91-2.79-.28-2.8-.82,0-.49,1.75-.69,2.48-.1.36-.28.69-.37,1.05-.12.51-.05,1.09.2,1.53.12.22.34.42.55.35"/>
        <path class="cls-16" d="m355.11,332.06c-.82,0-.49,1.75-.69,2.47-.1.36-.28.69-.37,1.05-.12.51-.04,1.09.2,1.53.13.22.34.42.55.35.25-.08.33-.47.29-.78-.04-.31-.15-.61-.12-.92.03-.35.24-.63.41-.91.38-.61.91-2.79-.27-2.8"/>
        <path class="cls-16" d="m349.42,325.9c.25-.08.33-.47.29-.78-.04-.31-.15-.61-.12-.92.04-.35.24-.63.41-.91.38-.6.91-2.79-.28-2.8-.82,0-.49,1.75-.69,2.48-.1.36-.28.69-.37,1.05-.12.51-.05,1.09.2,1.53.12.22.34.42.55.35"/>
        <path class="cls-18" d="m302,216.51c5.23-5.36,11.7-8.91,18.47-10.51-6.25-12.42-11.39-26.04-14.72-40.35-1.05-4.52-4.4-7.63-8.22-7.63h-7.95c-5.78,0-9.9,6.91-8.17,13.7,7.61,29.88,22.98,56.5,39.69,75.13,1.79,1.99,4.12,3.09,6.53,3.09.29,0,.58-.02.86-.05-9.79-9.08-20.08-21.49-26.5-33.4"/>
        <path class="cls-18" d="m284.53,393c2.95-11.66,8.03-22.45,14.45-31.72,6.29-9.27,14.09-16.36,22.16-23.09,1.86-1.55,3.7-3.15,5.65-4.48,3.08-4.94,6.34-9.64,9.71-14.05,4.93-6.44,1.55-17.04-5.61-17.7-.21-.02-.43-.03-.64-.03-1.97,0-3.9.84-5.44,2.39-20.79,20.95-39.94,52.79-46.6,88.81-.87,4.7.96,9.29,4.13,11.5.39-4,1.28-8,2.2-11.63"/>
        <path class="cls-19" d="m398.83,106.22c0,25.7-20.83,46.53-46.53,46.53s-46.53-20.83-46.53-46.53,20.83-46.53,46.53-46.53,46.53,20.83,46.53,46.53"/>
        <path class="cls-19" d="m352.3,60.98c-24.94,0-45.24,20.29-45.24,45.24s20.29,45.24,45.24,45.24,45.24-20.29,45.24-45.24-20.29-45.24-45.24-45.24m0,93.06c-26.37,0-47.82-21.45-47.82-47.82s21.45-47.82,47.82-47.82,47.82,21.45,47.82,47.82-21.45,47.82-47.82,47.82"/>
        <path class="cls-33" d="m352.1,61.57c-24,0-43.52,19.52-43.52,43.52s19.52,43.52,43.52,43.52,43.52-19.52,43.52-43.52-19.52-43.52-43.52-43.52m0,96.32c-29.11,0-52.8-23.69-52.8-52.8s23.69-52.8,52.8-52.8,52.8,23.69,52.8,52.8-23.69,52.8-52.8,52.8"/>
        <path class="cls-33" d="m352.1,62.21c-23.64,0-42.87,19.23-42.87,42.87s19.23,42.87,42.87,42.87,42.87-19.23,42.87-42.87-19.23-42.87-42.87-42.87m0,87.03c-24.35,0-44.16-19.81-44.16-44.16s19.81-44.17,44.16-44.17,44.17,19.81,44.17,44.17-19.81,44.16-44.17,44.16m0-96.32c-28.76,0-52.15,23.4-52.15,52.15s23.4,52.15,52.15,52.15,52.16-23.4,52.16-52.15-23.4-52.15-52.16-52.15m0,105.6c-29.47,0-53.45-23.98-53.45-53.45s23.98-53.45,53.45-53.45,53.45,23.98,53.45,53.45-23.98,53.45-53.45,53.45"/>
      </g>
      <rect class="cls-35" x="333.82" y="86.52" width="11.61" height="41.78"/>
      <g class="cls-1">
        <path class="cls-35" d="m335.11,127h9.02v-39.19h-9.02v39.19Zm10.31,2.59h-11.6c-.72,0-1.29-.58-1.29-1.29v-41.78c0-.71.58-1.3,1.29-1.3h11.6c.71,0,1.29.58,1.29,1.3v41.78c0,.71-.58,1.29-1.29,1.29"/>
      </g>
      <rect class="cls-35" x="358.77" y="86.52" width="11.61" height="41.78"/>
      <g class="cls-3">
        <path class="cls-35" d="m360.06,127h9.02v-39.19h-9.02v39.19Zm10.31,2.59h-11.61c-.71,0-1.29-.58-1.29-1.29v-41.78c0-.71.58-1.3,1.29-1.3h11.61c.71,0,1.29.58,1.29,1.3v41.78c0,.71-.58,1.29-1.29,1.29"/>
        <path class="cls-29" d="m394.56,125.69c-.36.21-.72.42-1.09.64-63.59,37.69-81.95-19.81-85.47-34.33-1.44,4.49-2.22,9.26-2.22,14.23,0,25.7,20.83,46.53,46.53,46.53,18.75,0,34.89-11.09,42.26-27.06"/>
        <path class="cls-29" d="m308.01,97c-.63,3.02-.95,6.11-.95,9.22,0,24.94,20.29,45.24,45.24,45.24,16.11,0,31-8.67,39.05-22.42-20.34,11.41-37.99,14.1-52.48,7.99-18.65-7.86-27.28-28.06-30.86-40.03m44.29,57.05c-26.37,0-47.82-21.45-47.82-47.82,0-4.97.77-9.89,2.29-14.62.18-.55.71-.93,1.28-.9.58.02,1.08.43,1.21.99,1.91,7.85,9.74,34.15,30.63,42.96,14.35,6.05,32.16,2.88,52.93-9.44l1.1-.64c.49-.29,1.1-.22,1.52.16.42.38.54.99.3,1.5-7.8,16.9-24.85,27.82-43.44,27.82"/>
        <path class="cls-33" d="m352.1,61.57c-24,0-43.52,19.52-43.52,43.52s19.52,43.52,43.52,43.52,43.52-19.52,43.52-43.52-19.52-43.52-43.52-43.52m0,96.32c-29.11,0-52.8-23.69-52.8-52.8s23.69-52.8,52.8-52.8,52.8,23.69,52.8,52.8-23.69,52.8-52.8,52.8"/>
        <path class="cls-33" d="m352.1,62.21c-23.64,0-42.87,19.23-42.87,42.87s19.23,42.87,42.87,42.87,42.87-19.23,42.87-42.87-19.23-42.87-42.87-42.87m0,87.03c-24.35,0-44.16-19.81-44.16-44.16s19.81-44.17,44.16-44.17,44.17,19.81,44.17,44.17-19.81,44.16-44.17,44.16m0-96.32c-28.76,0-52.15,23.4-52.15,52.15s23.4,52.15,52.15,52.15,52.16-23.4,52.16-52.15-23.4-52.15-52.16-52.15m0,105.6c-29.47,0-53.45-23.98-53.45-53.45s23.98-53.45,53.45-53.45,53.45,23.98,53.45,53.45-23.98,53.45-53.45,53.45"/>
        <path class="cls-27" d="m383.5,96.75c-1.27,0-2.37-.93-2.56-2.22-.75-5.26-2.97-9.78-6.6-13.44-1.01-1.01-1-2.65.02-3.66,1.01-1.01,2.66-1,3.66.02,4.43,4.47,7.14,9.97,8.05,16.35.2,1.42-.78,2.73-2.2,2.93-.12.02-.25.03-.37.03"/>
        <path class="cls-27" d="m367.54,75.8c-.38,0-.76-.08-1.12-.25-2.81-1.34-4.92-1.83-4.94-1.84-1.39-.32-2.27-1.7-1.95-3.09.32-1.39,1.69-2.27,3.09-1.95.11.02,2.66.61,6.03,2.22,1.29.62,1.84,2.16,1.22,3.45-.44.93-1.37,1.47-2.33,1.47"/>
      </g>
    </g>
  </g>
</svg>