<?xml version="1.0" encoding="UTF-8"?>
<svg id="Calque_2" data-name="Calque 2" xmlns="http://www.w3.org/2000/svg" viewBox="0 0 86.61 132.59">
  <defs>
    <style>
      .cls-1 {
        fill: #94368e;
      }
    </style>
  </defs>
  <g id="Calque_1-2" data-name="Calque 1">
    <g>
      <path class="cls-1" d="m43.16,75.39c-17.64-.02-32.04-14.61-31.99-32.38.05-17.35,14.71-31.94,32.05-31.89,17.82.04,32.29,14.6,32.22,32.44-.06,17.51-14.61,31.85-32.29,31.83m3.99,38.91s-.01,0-.02-.01c0,0,.02,0,.02-.01v.03m-.91,17.52s-.04,0-.06-.02c.06,0,.12-.02.18-.04-.04.02-.08.04-.12.06m-6.77-44.39v-.04h.08s-.05.02-.08.04m-1.92-1.94s0-.01,0-.02c0,0,0,0,0,0,0,0,0,0-.01,0m0,26.4h-.15c.07-.02.14-.04.21-.05-.02.02-.04.03-.06.05m0,.05s0-.03,0-.05c0,0,.01.01.02.02-.01,0-.02.02-.03.03m-19.61-10.48h0s-.06-.06-.07-.07c.03.02.06.05.08.07h-.01M83.15,26.56c-2.5-6.38-6.38-11.96-11.96-16.17-.59-.85-1.44-1.36-2.33-1.83-.36-.31-.68-.67-1.07-.93C58.23,1.17,47.69-1.23,36.34.59c-7.85,1.26-14.98,4.35-20.95,9.78-.6.21-1.04.61-1.38,1.13-5.23,4.73-9.04,10.46-11.35,17.08-3.3,9.46-3.7,19.01-.17,28.55.22,1.23.51,2.42,1.33,3.41,2.27,5.88,5.98,10.73,10.63,14.91.17.16.35.32.52.48.45.34.91.68,1.37,1.02,1.13,1.16,2.41,2.12,3.9,2.77.65.72,1.5,1.12,2.37,1.49.18.48.59.44.99.45.67.6,1.43,1,2.37.96.14.44.48.52.88.51,3.34,1.72,6.93,2.55,10.65,2.93.03,4.47.01,8.94.13,13.4.04,1.6-.83,1.57-1.95,1.56-4.87-.02-9.73-.04-14.6.02-1.07.01-2.21-.41-3.21.34h0,0c-.54,3.6-.48,7.2-.03,10.8h0c.64.36,1.3.21,1.97.13,5.91.03,11.81.07,17.72.1.03,5.9.15,11.8.03,17.7-.04,2.04.6,2.6,2.54,2.45,2.14-.17,4.31-.17,6.45,0,1.94.15,2.58-.39,2.54-2.44-.12-5.9,0-11.8.02-17.7,6.56-.18,13.14.25,19.7-.23.36-3.51.65-7.02-.13-10.51-.36-1.17-1.34-.63-2.01-.63-5.26-.05-10.53-.07-15.79,0-1.47.02-1.92-.43-1.88-1.89.09-3.75.09-7.5,0-11.24-.04-1.44.43-1.86,1.84-2.05,2.35-.31,4.69-.89,6.88-1.87,1.21-.26,2.33-.71,3.36-1.39.74-.13,1.41-.42,1.95-.96,1.1-.42,2.25-.75,2.88-1.89.71,0,1.28-.2,1.48-.98,2.21-.69,3.49-2.6,5.2-3.95.79-.12,1.16-.71,1.49-1.34.17-.16.34-.32.51-.48.36-.32.76-.59,1.06-.96,11.3-13.71,14-28.91,7.51-45.49"/>
      <path class="cls-1" d="m39.01,27.43c-3.23.17-6.49-.53-9.7.36-.38.39-.31.88-.31,1.35,0,9.98,0,19.96,0,29.94,0,.46-.11.97.38,1.29,2.71.32,5.43.17,8.14.08.17,0,.33,0,.5,0h.48c.16,0,.32,0,.48,0,.99.11.95-.58.95-1.24,0-10.14,0-20.28,0-30.43,0-.65,0-1.41-.91-1.36"/>
      <path class="cls-1" d="m57.6,29.38c0-.54.13-1.13-.31-1.59-3.2-.89-6.47-.2-9.7-.36-1.08-.05-.91.91-.91,1.6-.01,9.98-.01,19.97,0,29.95,0,.65-.26,1.56.95,1.48.16,0,.32,0,.48,0h.48c.17,0,.33,0,.5,0,2.71.09,5.43.24,8.14-.08.58-.4.38-1.01.38-1.54,0-9.82,0-19.64,0-29.46"/>
    </g>
  </g>
</svg>