<?xml version="1.0" encoding="utf-8"?>
<!-- Generator: Adobe Illustrator 27.6.1, SVG Export Plug-In . SVG Version: 6.00 Build 0)  -->
<svg version="1.1" id="Calque_2_00000057829598616713004140000001112855171921172392_"
	 xmlns="http://www.w3.org/2000/svg" xmlns:xlink="http://www.w3.org/1999/xlink" x="0px" y="0px" viewBox="0 0 662 566.9"
	 style="enable-background:new 0 0 662 566.9;" xml:space="preserve">
<style type="text/css">
	.st0{clip-path:url(#SVGID_00000034768758358167240840000008202632900077772701_);}
	.st1{fill:#F1C1B5;}
	.st2{clip-path:url(#SVGID_00000003827400723447487000000002934583827673656710_);}
	.st3{fill:#D1C1DF;}
	.st4{clip-path:url(#SVGID_00000116194814470514332080000002309749067495752626_);}
	.st5{fill:#8D69AD;}
	.st6{fill:#E1999A;}
	.st7{fill:#E18182;}
	.st8{fill:#272961;}
	.st9{fill:#CA6B6B;}
	.st10{fill:#F2D8D1;}
	.st11{fill:#595A97;}
	.st12{fill:#EBAEAD;}
	.st13{fill:#FACACA;}
</style>
<g id="Calque_1-2">
	<g>
		<g>
			<defs>
				<rect id="SVGID_1_" x="21.7" y="31.1" width="618.5" height="504.8"/>
			</defs>
			<clipPath id="SVGID_00000031198712389005541100000000225376700385967293_">
				<use xlink:href="#SVGID_1_"  style="overflow:visible;"/>
			</clipPath>
			<g style="clip-path:url(#SVGID_00000031198712389005541100000000225376700385967293_);">
				<path class="st1" d="M622.7,399.8c-12.7,30.7-32,58.1-55.5,79.9c-23.4,21.7-50.9,38.2-80.5,47.5c-33.9,10.7-69,10.3-103.7,4.9
					c-38.7-6.1-76.4-17.7-115-24.3c-19-3.3-38.1-5-57.3-4.8c-18.2,0.2-36.4,1.4-54.6,1.1c-17.2-0.3-34.6-1.9-51.1-7.6
					c-16-5.6-30.4-15.1-42.2-28c-23.4-25.7-36.1-61.6-39.8-97.1c-3.9-37.2,1.8-75,13.5-110c11.8-35.1,29.6-67.4,51.5-96.2
					c21.3-28,46.3-52.6,74-72.9c14.3-10.5,29.4-19.9,45-28c7.9-4.2,15.9-8,24.1-11.5c34.6-14.6,71.7-22.3,108.8-21.7
					c37.6,0.6,74.4,10.4,109.2,25.5c34.6,15,68.3,34.7,98.4,58.7c27.8,22.2,51.7,49.4,67.8,82.7c15,30.9,23.4,65.4,24.8,100.2
					C641.5,332.9,635.8,368,622.7,399.8"/>
			</g>
		</g>
		<g>
			<defs>
				<path id="SVGID_00000062162780179881053140000015889727929515267226_" d="M335.4,31.1c-35.6,0.1-71.1,7.8-104.3,21.7
					c-8.2,3.4-16.2,7.3-24.1,11.5c-15.6,8.1-30.7,17.4-45,28c-27.7,20.3-52.8,44.9-74,72.9c-21.9,28.8-39.7,61.1-51.5,96.2
					c-9.2,27.4-14.7,56.6-14.8,85.9v1c0,7.7,0.4,15.5,1.2,23.1c3.8,35.5,16.4,71.4,39.8,97.1c11.8,13,26.2,22.5,42.1,28
					c16.5,5.7,33.9,7.3,51.1,7.6c18.2,0.3,36.4-1,54.6-1.2c19.2-0.2,38.3,1.6,57.3,4.8c38.6,6.6,76.3,18.2,115,24.3
					c14.7,2.3,29.5,3.7,44.2,3.7h0.9c19.7,0,39.4-2.6,58.6-8.6c29.6-9.3,57.1-25.8,80.5-47.5c23.5-21.9,42.9-49.2,55.5-79.9
					c13.1-31.8,18.7-66.9,17.3-101.6c-1.4-34.8-9.8-69.4-24.8-100.2c-16.1-33.3-40.1-60.5-67.8-82.7c-30-24-63.8-43.6-98.4-58.7
					c-34.8-15.1-71.6-24.9-109.2-25.5c-1.2,0-2.4,0-3.6,0L335.4,31.1L335.4,31.1z"/>
			</defs>
			<clipPath id="SVGID_00000010998896578463359620000002651569254181101184_">
				<use xlink:href="#SVGID_00000062162780179881053140000015889727929515267226_"  style="overflow:visible;"/>
			</clipPath>
			<g style="clip-path:url(#SVGID_00000010998896578463359620000002651569254181101184_);">
				<rect x="21.6" y="29.8" class="st3" width="617.9" height="505.8"/>
			</g>
		</g>
		<g>
			<defs>
				<path id="SVGID_00000136395882362506114500000001407341570251894170_" d="M335.4,31.1c-35.6,0.1-71.1,7.8-104.3,21.7
					c-8.2,3.4-16.2,7.3-24.1,11.5c-15.6,8.1-30.7,17.4-45,28c-27.7,20.3-52.8,44.9-74,72.9c-21.9,28.8-39.7,61.1-51.5,96.2
					c-9.2,27.4-14.7,56.6-14.8,85.9v1c0,7.7,0.4,15.5,1.2,23.1c3.8,35.5,16.4,71.4,39.8,97.1c11.8,13,26.2,22.5,42.1,28
					c16.5,5.7,33.9,7.3,51.1,7.6c18.2,0.3,36.4-1,54.6-1.2c19.2-0.2,38.3,1.6,57.3,4.8c38.6,6.6,76.3,18.2,115,24.3
					c11.5,1.8,23.1,3.1,34.8,3.5h19.5c16.7-0.7,33.2-3.3,49.5-8.4c29.6-9.3,57.1-25.8,80.5-47.5c23.5-21.9,42.9-49.2,55.5-79.9
					c9.3-22.7,14.9-47,16.8-71.7v-39.3c-2.4-31.6-10.6-62.7-24.2-90.8c-16.1-33.3-40.1-60.5-67.8-82.7c-30-24-63.8-43.6-98.4-58.7
					c-34.8-15.1-71.6-24.9-109.2-25.5c-1.2,0-2.4,0-3.6,0L335.4,31.1L335.4,31.1z"/>
			</defs>
			<clipPath id="SVGID_00000074417988249142056960000003284371503944608165_">
				<use xlink:href="#SVGID_00000136395882362506114500000001407341570251894170_"  style="overflow:visible;"/>
			</clipPath>
			<g style="clip-path:url(#SVGID_00000074417988249142056960000003284371503944608165_);">
				<path class="st5" d="M583.3,372.7L583.3,372.7c0,0-1.2,0.5-3.5,1.4c-0.9,0.4-2,0.8-3.2,1.3c-0.6,0.2-1.2,0.5-1.9,0.8
					c-1.5,0.6-3.3,1.3-5.2,2.1c-1.4,0.6-3,1.2-4.6,1.9c-0.5,0.2-1.1,0.5-1.6,0.7c-1.5,0.6-3,1.2-4.6,1.9c-0.8,0.4-1.7,0.7-2.6,1.1
					c-0.7,0.3-1.3,0.6-2,0.9c-1.4,0.6-2.8,1.2-4.2,1.8c-0.7,0.3-1.4,0.6-2.2,0.9c-1,0.4-2,0.8-3,1.3c-0.8,0.3-1.5,0.6-2.3,1
					c-1.5,0.7-3.1,1.3-4.7,2c-0.8,0.4-1.6,0.7-2.4,1c-37.2,16.2-86.4,39.3-110.8,58c-42.1,32.3-88.7,47-88.7,47h-1
					c0,0-2-0.6-5.5-1.9c-13.5-4.9-49.8-19.5-83.2-45.1c-41.8-32-156.9-77.2-158.7-77.9l0,0c-7.8-25.4,6.9-42.4,6.9-42.4
					s0.1,0.1,0.3,0.2c0.1,0.1,0.2,0.1,0.4,0.2c9.2,6,111.5,70.2,239.8,70.2h1c134.6,0,240.5-70.7,240.5-70.7l0,0v0
					C577.2,331.3,590.9,348,583.3,372.7"/>
				<path class="st6" d="M334.9,497.7l-9.6,90.3H106.7c0,0-23.6-93-21.8-181.2c0.2-10.5,1.1-22,2.6-34
					c1.8,0.7,116.9,45.9,158.7,77.9c33.5,25.6,69.7,40.2,83.2,45.1C332.9,497,334.9,497.7,334.9,497.7"/>
				<path class="st6" d="M564.2,587.9H345.6l-9.6-90.3c0,0,46.6-14.8,88.7-47c24.3-18.7,73.6-41.8,110.8-58c0.8-0.4,1.6-0.7,2.4-1
					c1.6-0.7,3.1-1.4,4.7-2c0.8-0.3,1.5-0.7,2.3-1c1-0.4,2-0.9,3-1.3c2.9-1.2,5.7-2.4,8.4-3.5c0.9-0.4,1.8-0.8,2.6-1.1
					c1.6-0.7,3.2-1.3,4.6-1.9c0.6-0.2,1.1-0.5,1.6-0.7c1.6-0.7,3.1-1.3,4.6-1.9c1.9-0.8,3.7-1.5,5.2-2.1c0.7-0.3,1.3-0.5,1.9-0.8
					c1.2-0.5,2.3-0.9,3.2-1.3c2.2-0.9,3.5-1.4,3.5-1.4c1.5,12.1,2.4,23.5,2.7,34C587.8,494.9,564.2,587.9,564.2,587.9"/>
				<path class="st6" d="M576.4,330.3L576.4,330.3c0,0-105.9,70.7-240.5,70.7h-1c-128.3,0-230.6-64.3-239.8-70.2
					c-0.1-0.1-0.3-0.2-0.4-0.2c-0.2-0.1-0.3-0.2-0.3-0.2c15.9-81.8,46.6-174.7,52.8-206.4c8.2-42.4-4.8-215.6-4.8-215.6h386.2
					c0,0-13,173.2-4.8,215.6C529.8,155.6,560.5,248.5,576.4,330.3"/>
				<path class="st6" d="M556.1,383.8c-2.7,1.1-5.5,2.3-8.4,3.5C550.7,386.1,553.5,384.9,556.1,383.8"/>
				<path class="st6" d="M563.4,380.8c-1.5,0.6-3,1.3-4.6,1.9C560.3,382,561.9,381.4,563.4,380.8"/>
				<path class="st5" d="M379,288c26.2-19.4,57.7-32.6,87.1-44.6c27.1-10.8,55.6-20.9,84.4-28.6c2.3-0.6,4.6-1.2,7.2-1.7
					c-0.6,5-1.8,9.6-3.5,14.3c-4.7,13.3-12.8,25.5-22.5,35.5C493.6,302.4,427.2,316.7,379,288"/>
				<path class="st1" d="M382.6,286.6c15-0.8,29.6-5.2,44.2-8.7c40-10.5,78.6-26.2,114.9-46.1l9.8-5.5c-6.4,4-12.8,7.9-19.4,11.6
					c-32.9,18.4-68.3,32.4-105,41.3C412.5,282.4,397.7,286.5,382.6,286.6"/>
				<path class="st1" d="M514.1,229.9c-5.3,9.1-10.3,18.6-18.2,26l-0.5-1.5c8.2,0.9,16.4,2.9,24,6.1c-8.5-2.2-17.2-3.8-26-4.6
					C501.7,248.5,507.3,238.6,514.1,229.9"/>
				<path class="st1" d="M465.5,248.8c-5.9,9.4-13.6,17.5-21,25.6l0-1.2c1.6,1.3,4.1,2.1,6.1,3c6.4,2.6,13.8,4.8,19.9,8.2
					c-2.2-1-4.5-1.6-6.8-2.3c-4-1.3-9.7-2.9-13.7-4.4c-2.4-0.9-4.6-1.5-6.8-3.2l-0.6-0.5l0.6-0.7
					C450.6,265.1,458.4,257.3,465.5,248.8"/>
				<path class="st7" d="M399.9,286.7c-44.7-44.2-24.6-132.6,35.1-152.8c3.7,14.8,4.7,29.3,4.4,44.1
					C438,217.7,425,255.5,399.9,286.7"/>
				<path class="st1" d="M401.7,280.9c-3.4-16.3-1-33.1,1.1-49.4c3-21.8,7.3-43.5,13.8-64.6c1.7-5.2,3.5-10.5,5.4-15.6
					c-6.6,21-11.5,42.4-15,64.1C403.8,237.1,398.8,259,401.7,280.9"/>
				<path class="st1" d="M383.3,207.5c5.9,10,14,24.1,19.9,33.9l-1.4-0.1c7.5-8.8,14.7-17.8,21.8-26.8
					c-6.4,10.1-13.6,19.7-21.3,28.8C395.3,231.8,388.8,219.9,383.3,207.5"/>
				<path class="st1" d="M396.9,167.9c4.3,9.9,8.6,19.8,13.3,29.4l-1.3-0.3c6.6-5.8,13.6-11.3,20.9-16.3L410,198.3l-0.8,0.7l-0.5-1
					C403.9,188.4,399.8,178.3,396.9,167.9"/>
				<path class="st8" d="M480.1,173c-3.6,10.4-7.9,20.6-12.9,30.4c-5,9.8-10.8,19.2-17.3,28c-6.6,9-14,17.5-22,25.2
					c-8.4,8-17.5,15.2-27.2,21.4c-9.7,6.2-20.1,11.5-30.9,15.5c-1.3,0.5-2.7,1-4,1.5c-0.8,0.3-0.4,1.6,0.4,1.3
					c11-3.8,21.5-8.8,31.5-14.8c10-6,19.3-13,27.9-20.9c8.4-7.7,16.1-16.1,23.1-25.2c6.7-8.8,12.7-18.1,18-27.9
					c5.3-9.8,9.8-20,13.6-30.5c0.5-1.3,0.9-2.6,1.4-3.9C481.7,172.5,480.4,172.2,480.1,173"/>
				<path class="st8" d="M477,182.3c-4.6-17.5,1.5-39.6,14.6-52.2C499.7,147.4,492.8,171.7,477,182.3"/>
				<path class="st8" d="M468.3,202.1c8.6-17.2,34.1-23.9,49.9-13C504.8,199.9,485.3,204.9,468.3,202.1"/>
				<path class="st8" d="M453.4,146.6c17.6,10.4,25,37.6,14.9,55.4C456.9,187.6,450.9,164.9,453.4,146.6"/>
				<path class="st8" d="M454.7,226.9c8.6-17.2,34.1-23.9,49.9-13C491.2,224.8,471.7,229.8,454.7,226.9"/>
				<path class="st8" d="M439.8,171.5c17.6,10.4,25,37.6,14.9,55.4C443.3,212.5,437.3,189.8,439.8,171.5"/>
				<path class="st8" d="M434.9,250.4c11.7-15.2,38-16.9,51.5-3.1C471.1,255.3,451.1,256.5,434.9,250.4"/>
				<path class="st8" d="M431,193.1c15.3,13.5,17.3,41.7,4,57.2C426.6,234,425,210.5,431,193.1"/>
				<path class="st8" d="M412,271c13.6-13.5,39.9-11.6,51.4,3.8C447.2,280.7,427.2,279.1,412,271"/>
				<path class="st8" d="M415.7,213.7c13.4,15.5,11.6,43.7-3.7,57.3C405.9,253.6,407.4,230.2,415.7,213.7"/>
				<path class="st8" d="M382.6,288c15.8-10.9,41.4-4.4,50,12.8C415.5,303.8,396.1,298.7,382.6,288"/>
				<path class="st8" d="M396.3,232.3c10.4,17.6,3.7,45-13.8,55.7C379.6,269.8,385.3,247,396.3,232.3"/>
				<path class="st5" d="M301.3,306c-23.8-22.2-53.6-39-81.4-54.3c-25.7-13.8-52.9-27.1-80.6-38.1c-2.2-0.9-4.4-1.7-6.9-2.5
					c0,5,0.7,9.8,1.8,14.6c3.2,13.7,9.8,26.7,18.2,37.9C185.8,307.1,250.1,328.9,301.3,306"/>
				<path class="st1" d="M297.9,304.1c-14.8-2.6-28.9-8.6-42.9-13.7c-38.6-15-75.1-35-108.8-59l-9.1-6.6c5.9,4.8,11.8,9.3,17.9,13.8
					c30.6,22,64.2,40,99.6,53.1C268.7,296.5,282.9,302.3,297.9,304.1"/>
				<path class="st1" d="M173.8,232.8c4.2,9.7,8.1,19.7,15,27.9l0.6-1.4c-8.3,0-16.6,1-24.5,3.3c8.8-1.2,17.5-1.8,26.4-1.6
					C184,252.6,179.5,242.2,173.8,232.8"/>
				<path class="st1" d="M219.9,257.1c4.8,10,11.5,18.9,18,27.9l0.2-1.2c-1.8,1.1-4.4,1.6-6.4,2.2c-6.7,1.9-14.3,3.2-20.7,5.9
					c2.3-0.7,4.6-1.1,7-1.5c4.2-0.8,10-1.8,14.1-2.8c2.5-0.7,4.7-1,7.1-2.4l0.7-0.5l-0.5-0.7C232.8,275,225.9,266.4,219.9,257.1"/>
				<path class="st7" d="M273,300.1c44.7-44.2,24.6-132.6-35.1-152.8c-3.7,14.8-4.7,29.3-4.4,44.1C234.9,231.2,248,268.9,273,300.1"
					/>
				<path class="st1" d="M271.3,294.4c3.4-16.3,1-33.1-1.1-49.4c-3-21.8-7.3-43.5-13.8-64.6c-1.7-5.2-3.5-10.5-5.4-15.6
					c6.6,21,11.5,42.4,15,64.1C269.2,250.5,274.2,272.5,271.3,294.4"/>
				<path class="st1" d="M289.7,221c-5.9,10-14,24.1-19.9,33.9l1.4-0.1c-7.5-8.8-14.7-17.8-21.8-26.8c6.4,10.1,13.6,19.7,21.3,28.8
					C277.6,245.2,284.1,233.3,289.7,221"/>
				<path class="st1" d="M276,181.3c-4.3,9.9-8.6,19.8-13.3,29.4l1.3-0.3c-6.6-5.8-13.6-11.3-20.9-16.3l19.8,17.5l0.8,0.7l0.5-1
					C269.1,201.8,273.1,191.8,276,181.3"/>
				<path class="st8" d="M194.9,183.1c3.6,10.4,7.9,20.6,12.9,30.4c5,9.8,10.8,19.2,17.3,28c6.6,9,14,17.5,22,25.2
					c8.4,8,17.5,15.2,27.2,21.4c9.7,6.2,20.1,11.5,30.9,15.5c1.3,0.5,2.7,1,4,1.5c0.8,0.3,0.4,1.6-0.4,1.3
					c-11-3.8-21.5-8.8-31.5-14.8c-10-6-19.3-13-27.9-20.9c-8.4-7.7-16.1-16.1-23-25.2c-6.7-8.8-12.7-18.1-18-27.9
					c-5.3-9.8-9.8-20-13.6-30.5c-0.5-1.3-0.9-2.6-1.4-3.9C193.3,182.6,194.6,182.3,194.9,183.1"/>
				<path class="st8" d="M198,192.4c4.6-17.5-1.5-39.6-14.6-52.2C175.3,157.5,182.2,181.8,198,192.4"/>
				<path class="st8" d="M206.6,212.1c-8.6-17.2-34.1-23.9-49.9-13C170.2,210,189.6,215,206.6,212.1"/>
				<path class="st8" d="M221.5,156.7c-17.6,10.4-25,37.6-14.9,55.4C218,197.7,224,175,221.5,156.7"/>
				<path class="st8" d="M220.2,237c-8.6-17.2-34.1-23.9-49.9-13C183.8,234.9,203.2,239.9,220.2,237"/>
				<path class="st8" d="M235.2,181.6c-17.6,10.4-25,37.6-14.9,55.4C231.6,222.5,237.7,199.8,235.2,181.6"/>
				<path class="st8" d="M240,260.5c-11.7-15.2-38-16.9-51.5-3.1C203.8,265.4,223.8,266.5,240,260.5"/>
				<path class="st8" d="M244,203.2c-15.3,13.5-17.3,41.7-4,57.2C248.4,244.1,249.9,220.6,244,203.2"/>
				<path class="st8" d="M263,281c-13.6-13.5-39.9-11.6-51.5,3.8C227.7,290.7,247.7,289.2,263,281"/>
				<path class="st8" d="M259.3,223.8c-13.4,15.5-11.6,43.7,3.7,57.3C269.1,263.7,267.5,240.2,259.3,223.8"/>
				<path class="st8" d="M292.4,298c-15.8-10.9-41.4-4.4-50,12.8C259.4,313.8,278.8,308.8,292.4,298"/>
				<path class="st8" d="M278.6,242.3c-10.4,17.6-3.7,45,13.8,55.7C295.3,279.9,289.6,257.1,278.6,242.3"/>
				<path class="st9" d="M334.7,426c0,0-29.2,54.3,0,54.3S334.7,426,334.7,426"/>
				<path class="st10" d="M431.8,312.8c0,53.5-43.4,96.9-96.9,96.9S238,366.3,238,312.8s43.4-96.9,96.9-96.9
					S431.8,259.3,431.8,312.8"/>
				<path class="st9" d="M417.3,347.5c-0.2,0.4-0.4,0.9-0.6,1.3c-13.9,31.5-45.4,53.5-81.9,53.5c-45,0-82.3-33.4-88.5-76.6
					c-0.1-0.4-0.1-0.9-0.2-1.3c-0.5-3.8-0.7-7.6-0.7-11.5c0-49.3,40.1-89.5,89.4-89.5h0.1c25.4,0,48.4,10.7,64.7,27.8
					c15.3,16,24.7,37.8,24.7,61.7C424.3,325.1,421.8,336.8,417.3,347.5 M334.9,215.9c-53.5,0-96.9,43.4-96.9,96.9
					c0,4.4,0.3,8.7,0.9,13c6.3,47.4,46.9,83.9,96,83.9c39.3,0,73.1-23.4,88.3-57c5.5-12.1,8.5-25.6,8.5-39.8
					C431.8,259.2,388.4,215.9,334.9,215.9"/>
				<path class="st7" d="M334.9,409.7c-53.5,0-96.9-43.4-96.9-96.9s43.4-96.9,96.9-96.9s96.9,43.4,96.9,96.9
					S388.4,409.7,334.9,409.7 M334.9,208.5c-57.5,0-104.3,46.8-104.3,104.3s46.8,104.3,104.3,104.3s104.3-46.8,104.3-104.3
					S392.4,208.5,334.9,208.5"/>
				<rect x="331.3" y="378" class="st8" width="6.7" height="20.3"/>
				<rect x="249.2" y="309.4" class="st8" width="20.3" height="6.7"/>
				<rect x="399.9" y="309.4" class="st8" width="20.3" height="6.7"/>
				
					<rect x="271.2" y="362.7" transform="matrix(0.7071 -0.7071 0.7071 0.7071 -176.4242 306.1853)" class="st7" width="20.3" height="6.7"/>
				
					<rect x="377.8" y="256.1" transform="matrix(0.7071 -0.7071 0.7071 0.7071 -69.8476 350.3361)" class="st7" width="20.3" height="6.7"/>
				
					<rect x="278" y="249.3" transform="matrix(0.7071 -0.7071 0.7071 0.7071 -101.0585 274.9674)" class="st7" width="6.7" height="20.3"/>
				
					<rect x="384.6" y="355.9" transform="matrix(0.7071 -0.7071 0.7071 0.7071 -145.2092 381.5581)" class="st7" width="6.7" height="20.3"/>
				<path class="st8" d="M340,232.2v71.2c0,2.8-2.3,5.1-5.1,5.1s-5.1-2.3-5.1-5.1v-71.2c0-2.8,2.3-5.1,5.1-5.1
					c1.4,0,2.7,0.6,3.6,1.5C339.4,229.5,340,230.8,340,232.2"/>
				<path class="st11" d="M338.5,255.1c0.9,0.9,1.5,2.2,1.5,3.6v45.6c0,2.8-2.3,5.1-5.1,5.1c-2.8,0-5.1-2.3-5.1-5.1v-45.6
					c0-2.8,2.3-5.1,5.1-5.1C336.3,253.6,337.6,254.2,338.5,255.1"/>
				<path class="st7" d="M334.7,286.6c14.5,0,26.2,11.7,26.2,26.2S349.2,339,334.7,339s-26.2-11.7-26.2-26.2
					S320.2,286.6,334.7,286.6"/>
				<path class="st9" d="M334.7,286.6c14.4-1,27.7,11.7,27.6,26.2c0.3,24.8-29.9,37.3-47.3,19.7C298,315.2,310.3,285.6,334.7,286.6
					c-22.2,1-33.3,27.9-17.4,43.6c9.2,9.4,25.6,9.4,34.8,0C367.9,314.5,356.9,287.5,334.7,286.6"/>
				<path class="st10" d="M329,299.4c0.9,0.8,1.5,1.8,1.5,3v22c0,2.3-2.4,4.3-5.3,4.3s-5.3-1.9-5.3-4.3v-22c0-2.3,2.4-4.3,5.3-4.3
					C326.7,298.1,328,298.6,329,299.4"/>
				<path class="st10" d="M349.9,302.4v22c0,2.3-2.4,4.3-5.2,4.3s-5.3-1.9-5.3-4.3v-22c0-2.3,2.4-4.3,5.3-4.3c1.4,0,2.8,0.5,3.7,1.2
					C349.3,300.1,349.9,301.2,349.9,302.4"/>
				<path class="st12" d="M275.2,434.4c-1.8,1.2-3.9,0.6-5.8-0.6c1.4,2.8,1.9,6,1.6,9c-0.3,2.5-1.5,5.2-3.8,6.2
					c-2.8,1.2-5.8-0.4-8.3-2.1c-3.9-2.6-7.6-5.4-11-8.5c0.2,1.3,0.3,2.6,0.2,3.9c-0.2,2.7-1.5,5.5-3.9,6.9c-0.7,0.4-1.5,0.7-2.4,0.7
					c-1-0.1-1.9-0.6-2.7-1.1c-13.1-8-22.9-20.5-35.1-29.8c1.8,5.2,4,13.7,0.4,17.3c-4,3.9-10.5,0-14.5-3.9
					c-26.8-25.8-53.6-51.7-80.4-77.5c-7.7-7.4-15.4-14.8-23.7-21.5c-6.8-5.5-14.1-10.4-20.3-16.5c-9.5-9.2-16.5-20.6-23.6-31.8
					c-36.8-57.6-81.1-110-125.4-162.2C-59,96-25.9,77.8,8.9,66.2c31.7,55.7,56.9,110.2,87.6,166.4c10.9,17.4,30.5,33.6,51,34.2
					c13.4,0.4,26.5-3.5,39.8-4c5.1-0.2,10.1,0.1,15.2,0.1c14.9-0.2,29.7-4.1,42.9-11.1c2.2-1.2,4.8-2.5,7.1-1.6
					c3.2,1.3,3.5,5.7,2.9,9.1c-2.8,14-14.3,25.8-28.1,29.2c-3.5,0.9-7.1,1.2-10.3,2.8c-2.6,1.3-5,3.6-5.6,6.4
					c-0.3,2.8,1.1,5.8,2.5,8.3c14.7,27,34.3,51.1,49.5,77.9c7.8,13.8,14.5,28.8,14.2,44.6C277.4,430.7,277.1,433.2,275.2,434.4"/>
				<path class="st7" d="M50.2,286.7c3.2,6.6,5,14,8.5,20.3c7.4,9.6,17.1,17.5,26.1,25.6c-8.8-4.8-16.6-11.1-23.5-18.3
					c-1.7-1.8-3.5-3.7-4.8-6C53.2,301.5,52,294,50.2,286.7"/>
				<path class="st7" d="M161.4,382.3c19.1,13.6,37,28.8,53.1,45.9c-9.5-6.9-18.2-14.6-27.2-22.2
					C178.4,398.3,169.6,390.6,161.4,382.3"/>
				<path class="st7" d="M186.2,374.9c12.4,8.8,23.3,19.6,33.7,30.7c10.3,11.2,20.2,22.6,29.7,34.5
					C227.6,419.1,208.4,395.6,186.2,374.9"/>
				<path class="st7" d="M205.7,356.9c13.4,10.3,24.1,23.6,35,36.4c10.7,13,21.1,26.4,29.2,41.2c-9.9-13.7-20.5-26.6-31.3-39.5
					C229.1,383.6,216.2,367.1,205.7,356.9"/>
				<path class="st13" d="M202.3,433c0.8,1.8,0.6,4.1-1.4,5.1c-2,1-4.2-0.1-6-1c-4-2.1-7.4-5.2-10.4-8.7c-1-1.1-2.8-2.7-2.5-4.4
					c0-0.2,0-0.3,0-0.5c0.9-2.1,3-3.1,5.2-3.1c2.4,0.1,4.7,1.3,6.7,2.6c1.8,1.3,3.4,2.8,4.8,4.5C200.1,429.2,201.5,431,202.3,433"/>
				<path class="st13" d="M242.3,443.8c0.5,1.3,1,3.7-0.1,4.9c-1.2,1.2-3.4,0-4.6-0.6c-3.8-1.9-7.2-4.7-10.3-7.5
					c-0.6-0.6-1.4-1.2-1.9-1.9c-0.4-0.3-0.6-0.7-0.7-1.1c0,0,0-0.1,0-0.1c0,0,0-0.1,0-0.2c0,0,0-0.1,0-0.1c0,0,0-0.1,0-0.1
					c0-0.1,0-0.2,0-0.3c0-0.1,0.1-0.2,0.1-0.2c0.6-1.8,2.2-2.8,4.1-3.2c2.1-0.4,4.4,0.2,6.2,1.3c1.7,1,3.1,2.6,4.3,4.2
					C240.5,440.3,241.7,442,242.3,443.8"/>
				<path class="st13" d="M266.3,443.4c0.6,1.3,1.1,3.2,0,4.5c-2.1,2.5-6.7-0.3-8.8-1.5c-3.1-1.7-6-3.8-8.5-6.3
					c-1.1-1-2.5-2.3-2.8-3.8c-0.2-1,0.3-2,1.1-2.6c1.1-1.3,2.8-2.4,4.2-2.7c2.3-0.5,4.7,0.4,6.5,1.8c3.1,2.3,5.6,5.5,7.3,8.9
					C265.7,442.3,266,442.8,266.3,443.4"/>
				<path class="st13" d="M273.1,434c-2.6,0.6-4.5-2.5-5.8-4.3c-1.8-2.4-3.6-4.8-5.4-7.1c-0.8-1-1.6-2.1-2-3.3
					c-0.4-1.2,0.4-2,1.3-2.5c0.3-0.2,0.6-0.3,0.9-0.5c0.1-0.1,0.2-0.1,0.3-0.1c0.8-0.4,1.6-0.7,2.5-0.7c0.5,0,0.9,0.1,1.4,0.2
					c0.1,0,0.1,0,0.2,0c2.8,0.6,4.6,2.9,5.9,5.2c1.4,2.2,2.6,4.7,3.3,7.2C276.4,430.3,275.8,433.3,273.1,434"/>
				<path class="st13" d="M252,256.8c-0.2,2.4-1.4,4.6-2.7,6.5c-1.2,1.8-2.6,3.6-4.5,4.6c-1.7,0.9-3.8,1-5.7,0.5
					c-3.6-1-5.5-4.4-6.2-8c-0.3-0.9-0.6-2-0.3-2.9c0,0,0-0.1,0-0.1c0-0.1,0.1-0.2,0.1-0.2c0.3-0.5,0.9-0.8,1.4-1
					c0.7-0.3,1.4-0.6,2.1-0.9c2.4-1,4.8-2.2,7.2-3.4c1.9-0.9,4-1.9,6.1-1C251.7,252.1,252.2,254.7,252,256.8"/>
				<path class="st12" d="M400.3,434.4c1.8,1.2,3.9,0.6,5.8-0.6c-1.4,2.8-1.9,6-1.6,9c0.3,2.5,1.5,5.2,3.8,6.2
					c2.8,1.2,5.8-0.4,8.3-2.1c3.9-2.6,7.6-5.4,11-8.5c-0.2,1.3-0.3,2.6-0.2,3.9c0.2,2.7,1.5,5.5,3.9,6.9c0.7,0.4,1.5,0.7,2.4,0.7
					c1-0.1,1.9-0.6,2.7-1.1c13.1-8,22.9-20.5,35.1-29.8c-1.8,5.2-4,13.7-0.4,17.3c4,3.9,10.5,0,14.5-3.9
					c26.8-25.8,53.6-51.7,80.4-77.5c7.7-7.4,15.4-14.8,23.7-21.5c6.8-5.5,14-10.4,20.3-16.5c9.5-9.2,16.5-20.6,23.6-31.8
					c36.9-57.6,81.1-110.1,125.4-162.2c-24.4-27-57.5-45.2-92.4-56.8c-31.7,55.7-56.8,110.2-87.6,166.4
					c-10.9,17.4-30.5,33.6-51,34.2c-13.3,0.4-26.5-3.5-39.8-4c-5.1-0.2-10.1,0.1-15.2,0.1c-14.9-0.2-29.7-4.1-42.9-11.1
					c-2.2-1.2-4.8-2.5-7.1-1.6c-3.2,1.3-3.5,5.7-2.9,9.1c2.8,14,14.3,25.8,28.1,29.2c3.5,0.9,7.1,1.2,10.3,2.8
					c2.6,1.3,5,3.6,5.6,6.4c0.3,2.8-1.1,5.8-2.5,8.3c-14.7,27-34.3,51.1-49.5,77.9c-7.8,13.8-14.5,28.8-14.2,44.6
					C398.1,430.7,398.5,433.2,400.3,434.4"/>
				<path class="st7" d="M625.3,286.7c-1.8,7.3-2.9,14.8-6.4,21.6c-1.3,2.3-3.1,4.2-4.8,6c-6.9,7.2-14.7,13.5-23.5,18.3
					c9-8.1,18.7-16,26.1-25.6C620.3,300.6,622.1,293.2,625.3,286.7"/>
				<path class="st7" d="M514.1,382.3c-8.2,8.4-17,16-26,23.6c-8.9,7.6-17.7,15.3-27.2,22.2C477.1,411.1,495,395.9,514.1,382.3"/>
				<path class="st7" d="M489.3,374.9c-22.2,20.8-41.4,44.3-63.4,65.2c9.5-11.9,19.4-23.3,29.7-34.5
					C466,394.5,476.9,383.7,489.3,374.9"/>
				<path class="st7" d="M469.8,356.9c-10.5,10.1-23.5,26.8-32.9,38.1c-10.8,12.9-21.4,25.9-31.3,39.5c8.1-14.8,18.5-28.3,29.2-41.2
					C445.8,380.5,456.4,367.1,469.8,356.9"/>
				<path class="st13" d="M473.2,433c-0.8,1.8-0.6,4.1,1.3,5.1c2,1,4.2-0.1,6-1c4-2.1,7.4-5.2,10.3-8.7c1-1.1,2.8-2.7,2.5-4.4
					c0-0.2,0-0.3,0-0.5c-0.9-2.1-3-3.1-5.2-3.1c-2.4,0.1-4.7,1.3-6.7,2.6c-1.8,1.3-3.4,2.8-4.8,4.5C475.4,429.2,474,431,473.2,433"
					/>
				<path class="st13" d="M433.2,443.8c-0.5,1.3-1,3.7,0.1,4.9c1.2,1.2,3.4,0,4.6-0.6c3.8-1.9,7.2-4.7,10.3-7.5
					c0.6-0.6,1.4-1.2,1.9-1.9c0.4-0.3,0.6-0.7,0.7-1.1c0,0,0-0.1,0-0.1c0,0,0-0.1,0-0.2c0,0,0-0.1,0-0.1c0,0,0-0.1,0-0.1
					c0-0.1,0-0.2,0-0.3c0-0.1-0.1-0.2-0.1-0.2c-0.6-1.8-2.2-2.8-4.1-3.2c-2.1-0.4-4.3,0.2-6.2,1.3c-1.7,1-3.1,2.6-4.3,4.2
					C435,440.3,433.8,442,433.2,443.8"/>
				<path class="st13" d="M409.2,443.4c-0.6,1.3-1.1,3.2,0,4.5c2.1,2.5,6.7-0.3,8.8-1.5c3.1-1.7,6-3.8,8.5-6.3
					c1.1-1,2.5-2.3,2.8-3.8c0.2-1-0.3-2-1.1-2.6c-1.1-1.3-2.8-2.4-4.2-2.7c-2.3-0.5-4.7,0.4-6.5,1.8c-3.1,2.3-5.6,5.5-7.3,8.9
					C409.8,442.3,409.5,442.8,409.2,443.4"/>
				<path class="st13" d="M402.4,434c2.6,0.6,4.5-2.5,5.8-4.3c1.8-2.4,3.6-4.8,5.4-7.1c0.8-1,1.6-2.1,2-3.3c0.4-1.2-0.4-2-1.3-2.5
					c-0.3-0.2-0.6-0.3-0.9-0.5c-0.1-0.1-0.2-0.1-0.3-0.1c-0.8-0.4-1.6-0.7-2.5-0.7c-0.5,0-0.9,0.1-1.4,0.2c-0.1,0-0.1,0-0.2,0
					c-2.8,0.6-4.6,2.9-5.9,5.2c-1.4,2.2-2.6,4.7-3.3,7.2C399.1,430.3,399.8,433.3,402.4,434"/>
				<path class="st13" d="M423.5,256.8c0.2,2.4,1.4,4.6,2.7,6.5c1.2,1.8,2.6,3.6,4.5,4.6c1.7,0.9,3.8,1,5.7,0.5c3.7-1,5.5-4.4,6.2-8
					c0.3-0.9,0.6-2,0.3-2.9c0,0,0-0.1,0-0.1c0-0.1-0.1-0.2-0.1-0.2c-0.3-0.5-0.8-0.8-1.4-1c-0.7-0.3-1.4-0.6-2.1-0.9
					c-2.4-1-4.8-2.2-7.2-3.4c-1.9-0.9-4-1.9-6.1-1C423.8,252.1,423.3,254.7,423.5,256.8"/>
			</g>
		</g>
	</g>
</g>
</svg>
