<?xml version="1.0" encoding="UTF-8"?>
<svg id="Calque_2" data-name="Calque 2" xmlns="http://www.w3.org/2000/svg" xmlns:xlink="http://www.w3.org/1999/xlink" viewBox="0 0 628.8 646.75">
  <defs>
    <style>
      .cls-1 {
        clip-path: url(#clippath-4);
      }

      .cls-1, .cls-2, .cls-3, .cls-4, .cls-5, .cls-6, .cls-7, .cls-8, .cls-9, .cls-10, .cls-11, .cls-12, .cls-13, .cls-14, .cls-15, .cls-16 {
        fill: none;
      }

      .cls-2 {
        stroke: #db5330;
        stroke-width: 4.06px;
      }

      .cls-2, .cls-6, .cls-11, .cls-12, .cls-16 {
        stroke-linecap: round;
        stroke-linejoin: round;
      }

      .cls-3 {
        clip-path: url(#clippath-2);
      }

      .cls-4 {
        clip-path: url(#clippath-6);
      }

      .cls-17 {
        fill: #852d46;
      }

      .cls-5 {
        clip-path: url(#clippath-9);
      }

      .cls-18 {
        fill: #cbab91;
      }

      .cls-19 {
        fill: #c5642a;
      }

      .cls-20 {
        fill: #c5cda7;
      }

      .cls-21 {
        fill: #f5896a;
      }

      .cls-22 {
        fill: #ddc3ae;
      }

      .cls-6 {
        stroke: #d67949;
      }

      .cls-6, .cls-11, .cls-12, .cls-16 {
        stroke-width: 2.03px;
      }

      .cls-23 {
        fill: #db5330;
      }

      .cls-7 {
        clip-path: url(#clippath-7);
      }

      .cls-24 {
        fill: #ec7b59;
      }

      .cls-8 {
        clip-path: url(#clippath-5);
      }

      .cls-25 {
        fill: #543629;
      }

      .cls-26 {
        fill: #e1bfad;
      }

      .cls-27 {
        fill: #a3a47d;
      }

      .cls-9 {
        clip-path: url(#clippath-3);
      }

      .cls-11 {
        stroke: #af896d;
      }

      .cls-12 {
        stroke: #78795e;
      }

      .cls-13 {
        clip-path: url(#clippath);
      }

      .cls-28 {
        fill: #f4e1d4;
      }

      .cls-29 {
        fill: #ad3d5b;
      }

      .cls-14 {
        clip-path: url(#clippath-1);
      }

      .cls-15 {
        clip-path: url(#clippath-8);
      }

      .cls-30 {
        fill: #f2a077;
      }

      .cls-31 {
        fill: #f7e8dc;
      }

      .cls-32 {
        fill: #d67949;
      }

      .cls-33 {
        fill: #e6c5de;
      }

      .cls-16 {
        stroke: #543629;
      }
    </style>
    <clipPath id="clippath">
      <rect class="cls-10" width="628.8" height="629.64"/>
    </clipPath>
    <clipPath id="clippath-1">
      <rect class="cls-10" width="628.8" height="629.64"/>
    </clipPath>
    <clipPath id="clippath-2">
      <path class="cls-10" d="m260.76.8C122.68,11.15,12.31,120.89.96,258.69v46.95c11.2,136.03,118.9,244.71,254.49,257.44h53.42c143.31-13.46,255.45-134.09,255.45-280.92S449.41,11.74,303.57.8h-42.81Z"/>
    </clipPath>
    <clipPath id="clippath-3">
      <path class="cls-10" d="m285.27,160.89l-32.46,3.68s5.34,43.93-11.4,53.67c-16.74,9.74-70.32,8.65-80.6,50.85-10.28,42.19-19.85,180.68-19.85,180.68h45.44l1.24-5.24c-3.56,26.57-6.68,59.61-8.59,100.38,24.03,9.44,49.67,15.67,76.39,18.18h53.42c30.34-2.85,59.29-10.5,86.07-22.2-2-36.32-5.07-66.39-8.59-91.13h43.22s-9.57-138.49-19.85-180.68c-8.64-35.47-47.87-40.36-70.1-46.8-6.22-1.8-10.49-7.49-10.46-13.97l.28-66.87-44.18,19.44Z"/>
    </clipPath>
    <clipPath id="clippath-4">
      <path class="cls-10" d="m241.41,218.23c-8.92,5.19-28.28,7.3-45.98,14.52,14.5,18.66,45.83,47.43,101.2,47.43,47.21,0,74.4-22.91,88.96-42.34-14.94-8.7-33.23-11.87-45.96-15.56-6.22-1.8-10.49-7.49-10.46-13.97l.16-38.12-76.21-2.36c.85,10.36,2.25,42.28-11.72,50.4"/>
    </clipPath>
    <clipPath id="clippath-5">
      <path class="cls-10" d="m285.27,160.89l-32.46,3.68s5.34,43.93-11.4,53.67c-16.74,9.74-70.32,8.65-80.6,50.85-10.28,42.19-19.85,180.68-19.85,180.68h45.44l1.24-5.24c-3.56,26.57-6.68,59.61-8.59,100.38,24.03,9.44,49.67,15.67,76.39,18.18h53.42c30.34-2.85,59.29-10.5,86.07-22.2-2-36.32-5.07-66.39-8.59-91.13h43.22s-9.57-138.49-19.85-180.68c-8.64-35.47-47.87-40.36-70.1-46.8-6.22-1.8-10.49-7.49-10.46-13.97l.28-66.87-44.18,19.44Z"/>
    </clipPath>
    <clipPath id="clippath-6">
      <path class="cls-10" d="m260.76.8C122.68,11.15,12.31,120.89.96,258.69v46.95c11.2,136.03,118.9,244.71,254.49,257.44h53.42c143.31-13.46,255.45-134.09,255.45-280.92S449.41,11.74,303.57.8h-42.81Z"/>
    </clipPath>
    <clipPath id="clippath-7">
      <path class="cls-10" d="m249.74,76.68c-4.56,17.64-5.6,36.15-4.55,48.43-5.17-3.42-11.95-5.28-18.42.97-12.11,11.67,9.98,51.4,30.87,46.93,8.12,16.33,22.65,30.26,50.96,30.56,52.96.56,68.55-50.65,58.46-117.86-3.42-22.8-13.94-36.69-26.35-45.08-10.11-6.83-21.28-9.97-32.27-9.97-26.22,0-51.41,17.85-58.69,46.02"/>
    </clipPath>
    <clipPath id="clippath-8">
      <path class="cls-10" d="m260.76.8C122.68,11.15,12.31,120.89.96,258.69v46.95c11.2,136.03,118.9,244.71,254.49,257.44h53.42c143.31-13.46,255.45-134.09,255.45-280.92S449.41,11.74,303.57.8h-42.81Z"/>
    </clipPath>
    <clipPath id="clippath-9">
      <rect class="cls-10" width="628.8" height="629.64"/>
    </clipPath>
  </defs>
  <g id="Calque_1-2" data-name="Calque 1">
    <g class="cls-13">
      <path class="cls-33" d="m396.98,511.17c126.13-49.97,205.52-177.76,187.91-312.28-.38-2.93-.81-5.87-1.28-8.83-22.54-142.03-191.4-243.45-267.16-122.31-75.77,121.14-211.52,96.53-243.67,223.53-32.15,127,97.18,242.33,212.09,243.74,37.67.46,76.68-9.82,112.11-23.86"/>
      <path class="cls-29" d="m460.54,53.79c-91.25,0-165.49,74.24-165.49,165.49s74.24,165.49,165.49,165.49,165.49-74.24,165.49-165.49-74.24-165.49-165.49-165.49m0,333.75c-92.78,0-168.27-75.48-168.27-168.27S367.76,51.01,460.54,51.01s168.27,75.48,168.27,168.26-75.49,168.27-168.27,168.27"/>
      <path class="cls-22" d="m454.8,219.28c0,3.17,2.57,5.74,5.74,5.74s5.74-2.57,5.74-5.74-2.57-5.74-5.74-5.74-5.74,2.57-5.74,5.74"/>
    </g>
    <rect class="cls-29" x="458.55" y="127.11" width="3.98" height="91.8"/>
    <polygon class="cls-29" points="454.63 127.11 466.64 127.11 460.64 114.2 454.63 127.11"/>
    <rect class="cls-29" x="444.79" y="175.59" width="117.13" height="3.98" transform="translate(21.86 407.94) rotate(-45)"/>
    <polygon class="cls-29" points="540.59 131.99 549.08 140.48 553.97 127.11 540.59 131.99"/>
    <g class="cls-14">
      <path class="cls-17" d="m442.52,68.15c.23,2.15,1.37,3.79,2.56,3.67,1.19-.13,1.97-1.97,1.74-4.12-.23-2.15-1.37-3.79-2.56-3.67s-1.97,1.97-1.74,4.12"/>
      <path class="cls-17" d="m474.25,370.1c.23,2.15,1.37,3.79,2.56,3.67,1.19-.13,1.97-1.97,1.74-4.12-.23-2.15-1.37-3.79-2.56-3.67-1.19.13-1.97,1.97-1.74,4.12"/>
      <path class="cls-17" d="m426.86,70.86c.45,2.11,1.76,3.63,2.93,3.38,1.17-.25,1.75-2.16,1.3-4.28-.45-2.11-1.76-3.62-2.93-3.38-1.17.25-1.75,2.16-1.3,4.28"/>
      <path class="cls-17" d="m489.98,367.84c.45,2.11,1.76,3.63,2.93,3.38,1.17-.25,1.75-2.16,1.3-4.28-.45-2.11-1.76-3.62-2.93-3.38-1.17.25-1.75,2.16-1.3,4.28"/>
      <path class="cls-17" d="m411.57,75.19c.67,2.05,2.13,3.42,3.27,3.05,1.14-.37,1.52-2.33.85-4.39-.67-2.05-2.13-3.42-3.27-3.05-1.14.37-1.52,2.33-.85,4.39"/>
      <path class="cls-17" d="m505.39,363.95c.67,2.05,2.13,3.42,3.27,3.05,1.14-.37,1.52-2.33.85-4.39-.67-2.05-2.13-3.42-3.27-3.05-1.14.37-1.52,2.33-.85,4.39"/>
      <path class="cls-17" d="m396.82,81.1c.88,1.97,2.48,3.18,3.57,2.69,1.09-.49,1.27-2.48.39-4.46-.88-1.97-2.48-3.18-3.57-2.69-1.09.49-1.26,2.48-.39,4.46"/>
      <path class="cls-17" d="m520.31,358.47c.88,1.97,2.48,3.18,3.57,2.69,1.09-.49,1.26-2.48.39-4.46-.88-1.97-2.48-3.18-3.57-2.69-1.09.49-1.26,2.48-.39,4.46"/>
      <path class="cls-17" d="m369.56,97.36c1.27,1.75,3.08,2.6,4.05,1.89.97-.7.72-2.69-.55-4.44-1.27-1.75-3.08-2.6-4.05-1.89-.97.7-.72,2.69.55,4.44"/>
      <path class="cls-17" d="m548.02,342.99c1.27,1.75,3.08,2.6,4.05,1.89.97-.7.72-2.69-.55-4.44-1.27-1.75-3.08-2.6-4.05-1.89-.97.7-.72,2.69.55,4.44"/>
      <path class="cls-17" d="m357.35,107.54c1.45,1.61,3.34,2.26,4.23,1.46.89-.8.44-2.75-1.01-4.36-1.45-1.6-3.34-2.26-4.23-1.46-.89.8-.44,2.75,1.01,4.36"/>
      <path class="cls-17" d="m560.51,333.17c1.45,1.61,3.34,2.26,4.23,1.46.89-.8.44-2.75-1.01-4.36-1.45-1.6-3.34-2.26-4.23-1.46-.89.8-.44,2.75,1.01,4.36"/>
      <path class="cls-17" d="m346.28,118.93c1.61,1.45,3.56,1.9,4.36,1.01.8-.89.15-2.78-1.46-4.23-1.61-1.45-3.56-1.9-4.36-1.01-.8.89-.15,2.78,1.46,4.23"/>
      <path class="cls-17" d="m571.9,322.09c1.61,1.45,3.56,1.9,4.36,1.01.8-.89.15-2.78-1.46-4.23-1.61-1.45-3.56-1.9-4.36-1.01s-.15,2.78,1.46,4.23"/>
      <path class="cls-17" d="m336.45,131.42c1.75,1.27,3.74,1.52,4.44.55.7-.97-.15-2.78-1.89-4.05-1.75-1.27-3.74-1.52-4.44-.55-.7.97.14,2.78,1.89,4.05"/>
      <path class="cls-17" d="m582.08,309.88c1.75,1.27,3.74,1.52,4.44.55.7-.97-.15-2.78-1.89-4.05-1.75-1.27-3.74-1.52-4.44-.55-.7.97.14,2.78,1.89,4.05"/>
      <path class="cls-17" d="m320.98,159.13c1.97.88,3.97.71,4.46-.39.49-1.09-.72-2.69-2.69-3.57-1.97-.88-3.97-.71-4.46.39-.49,1.09.72,2.69,2.69,3.57"/>
      <path class="cls-17" d="m598.34,282.63c1.97.88,3.97.71,4.46-.39.49-1.09-.72-2.69-2.69-3.57-1.97-.88-3.97-.71-4.46.39-.49,1.09.72,2.69,2.69,3.57"/>
      <path class="cls-17" d="m315.49,174.05c2.05.67,4.02.29,4.39-.85.37-1.14-1-2.6-3.05-3.27-2.05-.67-4.02-.29-4.39.85-.37,1.14,1,2.6,3.05,3.27"/>
      <path class="cls-17" d="m311.6,189.46c2.11.45,4.03-.13,4.28-1.3.25-1.17-1.26-2.48-3.38-2.93-2.11-.45-4.03.13-4.28,1.3-.25,1.17,1.26,2.48,3.38,2.93"/>
      <path class="cls-17" d="m309.34,205.19c2.15.23,3.99-.56,4.12-1.74.13-1.19-1.52-2.34-3.67-2.56-2.15-.22-3.99.56-4.12,1.74-.13,1.19,1.52,2.34,3.67,2.56"/>
      <path class="cls-17" d="m309.79,236.92c2.15-.23,3.79-1.37,3.67-2.56-.13-1.19-1.97-1.97-4.12-1.74-2.15.23-3.79,1.37-3.67,2.56.13,1.19,1.97,1.97,4.12,1.74"/>
      <path class="cls-17" d="m312.5,252.58c2.11-.45,3.63-1.76,3.38-2.93-.25-1.17-2.16-1.75-4.28-1.3-2.11.45-3.62,1.76-3.38,2.93.25,1.17,2.16,1.75,4.28,1.3"/>
      <path class="cls-17" d="m316.83,267.87c2.05-.67,3.42-2.13,3.05-3.27-.37-1.14-2.33-1.52-4.39-.85-2.06.67-3.42,2.13-3.05,3.27.37,1.14,2.33,1.52,4.39.85"/>
      <path class="cls-17" d="m322.74,282.63c1.97-.88,3.18-2.48,2.69-3.57-.49-1.09-2.48-1.27-4.46-.39-1.97.88-3.18,2.48-2.69,3.57.49,1.09,2.48,1.26,4.46.39"/>
      <path class="cls-17" d="m600.1,159.13c1.97-.88,3.18-2.48,2.69-3.57-.49-1.09-2.48-1.26-4.46-.39-1.97.88-3.18,2.48-2.69,3.57.49,1.09,2.48,1.26,4.46.39"/>
      <path class="cls-17" d="m339,309.88c1.75-1.27,2.6-3.08,1.89-4.05-.7-.97-2.69-.72-4.44.55-1.75,1.27-2.6,3.08-1.89,4.05.7.97,2.69.72,4.44-.55"/>
      <path class="cls-17" d="m584.63,131.42c1.75-1.27,2.6-3.08,1.89-4.05-.7-.97-2.69-.72-4.44.55-1.75,1.27-2.6,3.08-1.89,4.05.7.97,2.69.72,4.44-.55"/>
      <path class="cls-17" d="m349.17,322.09c1.61-1.45,2.26-3.34,1.46-4.23-.8-.89-2.75-.44-4.36,1.01-1.6,1.45-2.26,3.34-1.46,4.23.8.89,2.75.44,4.36-1.01"/>
      <path class="cls-17" d="m574.8,118.93c1.61-1.45,2.26-3.34,1.46-4.23s-2.75-.44-4.36,1.01c-1.6,1.45-2.26,3.34-1.46,4.23.8.89,2.75.44,4.36-1.01"/>
      <path class="cls-17" d="m360.57,333.17c1.45-1.61,1.9-3.56,1.01-4.36-.89-.8-2.78-.15-4.23,1.46-1.45,1.61-1.9,3.56-1.01,4.36.89.8,2.78.15,4.23-1.46"/>
      <path class="cls-17" d="m563.73,107.54c1.45-1.61,1.9-3.56,1.01-4.36-.89-.8-2.78-.15-4.23,1.46-1.45,1.61-1.9,3.56-1.01,4.36.89.8,2.78.15,4.23-1.46"/>
      <path class="cls-17" d="m373.06,342.99c1.27-1.75,1.52-3.74.55-4.44-.97-.7-2.78.15-4.05,1.89-1.27,1.75-1.52,3.74-.55,4.44.97.7,2.78-.14,4.05-1.89"/>
      <path class="cls-17" d="m551.52,97.36c1.27-1.75,1.52-3.74.55-4.44-.97-.7-2.78.15-4.05,1.89-1.27,1.75-1.52,3.74-.55,4.44.97.7,2.78-.14,4.05-1.89"/>
      <path class="cls-17" d="m460.54,60.73c-2.63,0-4.62,2.74-4.62,6.37s1.99,6.37,4.62,6.37,4.62-2.74,4.62-6.37-1.99-6.37-4.62-6.37"/>
      <path class="cls-17" d="m460.54,364.34c-2.63,0-4.62,2.74-4.62,6.37s1.99,6.37,4.62,6.37,4.62-2.74,4.62-6.37-1.99-6.37-4.62-6.37"/>
      <path class="cls-17" d="m381.45,81.92c-1.29.75-2.01,2.18-1.98,3.93.02,1.25.44,2.64,1.16,3.9h0c.73,1.26,1.72,2.31,2.79,2.96.83.5,1.69.75,2.51.75.67,0,1.31-.17,1.89-.5,2.28-1.32,2.63-4.68.82-7.83-1.82-3.14-4.91-4.52-7.19-3.21"/>
      <path class="cls-17" d="m533.26,344.85c-2.28,1.32-2.63,4.68-.82,7.83.73,1.26,1.72,2.31,2.79,2.96.83.5,1.69.75,2.51.75.67,0,1.31-.17,1.89-.5,2.28-1.32,2.63-4.68.82-7.83-1.82-3.14-4.91-4.52-7.19-3.2"/>
      <path class="cls-17" d="m326.76,147c1.26.73,2.64,1.14,3.9,1.16h.11c1.7,0,3.09-.72,3.82-1.98,1.32-2.28-.06-5.37-3.2-7.19-1.26-.73-2.64-1.14-3.9-1.16-1.75-.07-3.19.69-3.93,1.98-1.32,2.28.06,5.37,3.2,7.19"/>
      <path class="cls-17" d="m594.32,290.8c-1.26-.73-2.64-1.14-3.9-1.16-1.78-.05-3.19.69-3.93,1.98-1.32,2.28.06,5.37,3.2,7.19h0c1.35.78,2.74,1.16,3.99,1.16,1.67,0,3.09-.67,3.84-1.97,1.32-2.28-.06-5.37-3.2-7.19"/>
      <path class="cls-17" d="m308.73,214.28c-3.63,0-6.37,1.99-6.37,4.62s2.74,4.62,6.37,4.62,6.37-1.99,6.37-4.62-2.74-4.62-6.37-4.62"/>
      <path class="cls-17" d="m330.66,289.64c-1.25.02-2.64.44-3.9,1.16-3.14,1.82-4.52,4.91-3.2,7.19.75,1.3,2.17,1.97,3.84,1.97,1.25,0,2.64-.38,3.99-1.16h0c3.14-1.82,4.52-4.91,3.2-7.19-.74-1.29-2.19-2.03-3.93-1.98"/>
      <path class="cls-17" d="m593.59,137.83c-1.25.02-2.64.44-3.9,1.16-3.14,1.81-4.52,4.91-3.2,7.19.73,1.26,2.12,1.98,3.82,1.98.04,0,.07,0,.11,0,1.25-.02,2.64-.43,3.9-1.16,3.14-1.82,4.52-4.91,3.2-7.19-.74-1.29-2.15-2.01-3.93-1.98"/>
      <path class="cls-17" d="m387.82,344.85c-2.28-1.32-5.37.06-7.19,3.2-.73,1.26-1.14,2.64-1.16,3.9-.03,1.75.69,3.18,1.98,3.93.58.34,1.22.5,1.87.5,1.9,0,3.96-1.36,5.31-3.7,1.82-3.14,1.46-6.51-.82-7.83"/>
      <path class="cls-17" d="m539.63,81.92c-1.29-.74-2.89-.65-4.4.25-1.07.65-2.07,1.7-2.79,2.96-1.81,3.14-1.46,6.51.82,7.83.58.33,1.22.5,1.89.5.82,0,1.68-.25,2.51-.75,1.07-.65,2.07-1.7,2.79-2.96,1.81-3.14,1.46-6.51-.82-7.83"/>
      <path class="cls-17" d="m400.77,358.47c.88-1.97.71-3.97-.39-4.46-1.09-.49-2.69.72-3.57,2.69-.88,1.97-.71,3.97.39,4.46,1.09.49,2.69-.72,3.57-2.69"/>
      <path class="cls-17" d="m524.26,81.1c.88-1.97.71-3.97-.39-4.46-1.09-.49-2.69.72-3.57,2.69s-.71,3.97.39,4.46c1.09.49,2.69-.72,3.57-2.69"/>
      <path class="cls-17" d="m415.69,363.95c.67-2.05.29-4.02-.85-4.39-1.14-.37-2.6,1-3.27,3.05-.67,2.06-.29,4.02.85,4.39,1.14.37,2.6-1,3.27-3.05"/>
      <path class="cls-17" d="m509.51,75.19c.67-2.05.29-4.02-.85-4.39-1.14-.37-2.6,1-3.27,3.05-.67,2.06-.29,4.02.85,4.39,1.14.37,2.6-1,3.27-3.05"/>
      <path class="cls-17" d="m431.09,367.84c.45-2.11-.13-4.03-1.3-4.28-1.17-.25-2.48,1.26-2.93,3.38-.45,2.11.13,4.03,1.3,4.28,1.17.25,2.48-1.26,2.93-3.38"/>
      <path class="cls-17" d="m494.22,70.86c.45-2.11-.13-4.03-1.3-4.28-1.17-.25-2.48,1.26-2.93,3.38-.45,2.11.13,4.03,1.3,4.28,1.17.25,2.48-1.26,2.93-3.38"/>
      <path class="cls-17" d="m446.82,370.1c.23-2.15-.56-3.99-1.74-4.12-1.19-.13-2.34,1.52-2.56,3.67-.22,2.15.56,3.99,1.74,4.12,1.19.13,2.34-1.52,2.56-3.67"/>
      <path class="cls-17" d="m478.56,68.15c.23-2.15-.56-3.99-1.74-4.12s-2.34,1.52-2.56,3.67c-.22,2.15.56,3.99,1.74,4.12,1.19.13,2.34-1.52,2.56-3.67"/>
    </g>
    <g class="cls-3">
      <path class="cls-18" d="m306,21.35s-43.38-14.27-66.21,25.11c-22.83,39.38-50.23,49.66-54.22,91.89-4,42.24,58.08,64.57,117.51,55.97,54.29-8.6,77.69-31.43,78.83-70.24,1.14-38.81-21.69-108.45-75.91-102.74"/>
      <path class="cls-20" d="m429.58,449.76s-9.57-138.49-19.85-180.68c-8.64-35.47-47.87-40.36-70.1-46.8-6.22-1.8-10.48-7.49-10.45-13.96l.28-66.87-44.18,19.44-32.46,3.67s5.34,43.93-11.4,53.67c-16.74,9.74-70.32,8.66-80.6,50.85-10.28,42.19-19.85,180.68-19.85,180.68h45.44l1.24-5.24c-5.76,42.99-10.37,102.95-10.55,185.12h220.23c-.16-78.88-4.91-137.29-10.98-179.88h43.22Z"/>
    </g>
    <g class="cls-9">
      <path class="cls-30" d="m185.38,217.15s29.3,63.02,111.24,63.02,103.56-69.03,103.56-69.03l-66.37-40.82-93.87-2.91-54.57,49.73Z"/>
    </g>
    <g class="cls-1">
      <path class="cls-32" d="m266.96,168.53s18.09,58.41,69.31,39.43c-1.32-22.3-24-33.88-69.31-39.43"/>
    </g>
    <g class="cls-8">
      <path class="cls-25" d="m170.69,502.76l-4.43,143.99h234.82v-143.99c-77.06,18.4-153.86,18.53-230.39,0"/>
      <path class="cls-31" d="m240.94,211.09l47.8,36.6,48.87-37.45s55.32-1.98,58.16,28.94-65.91,51.75-105.26,47.95c-39.34-3.81-86.69-17.59-92.57-38.87-5.88-21.28-17.96-35.21,42.99-37.17"/>
    </g>
    <g class="cls-4">
      <path class="cls-30" d="m340.7,40.63c-34.21-23.14-80.63-3.93-90.97,36.05-4.56,17.64-5.6,36.15-4.55,48.43-5.17-3.42-11.95-5.27-18.42.97-12.12,11.67,9.98,51.4,30.87,46.93,8.12,16.33,22.65,30.26,50.96,30.56,52.96.56,68.54-50.65,58.46-117.86-3.42-22.8-13.94-36.69-26.35-45.08"/>
    </g>
    <g class="cls-7">
      <path class="cls-21" d="m254.01,164.27c3.14,13.15,16.35,21.26,29.5,18.12,13.15-3.14,21.26-16.35,18.12-29.5-3.14-13.15-16.35-21.26-29.5-18.12-13.15,3.14-21.26,16.35-18.12,29.5"/>
      <path class="cls-21" d="m347.79,159.88c3.14,13.15,16.35,21.26,29.5,18.12,13.15-3.14,21.26-16.35,18.12-29.5-3.14-13.15-16.35-21.26-29.5-18.12-13.15,3.14-21.26,16.35-18.12,29.5"/>
    </g>
    <g class="cls-15">
      <path class="cls-27" d="m360.03,227.69h0c-43.75,34.85-105.77,34.85-149.52,0,0,0-55.36-17.9-55.36,73.81.69.49,1.38.98,2.08,1.47,75.52,53.08,176.34,53.76,252.14,1.08,1.93-1.34,3.87-2.7,5.81-4.08,0-91.71-55.15-72.28-55.15-72.28"/>
      <path class="cls-31" d="m310.2,440.4c49.75-18.27,45.06-99.61,45.06-99.61h-133.3s-4.69,81.34,45.06,99.61c.68.25.68,1.24,0,1.49-49.75,18.27-45.06,99.61-45.06,99.61h133.3s4.69-81.34-45.06-99.61c-.68-.25-.68-1.24,0-1.49"/>
      <rect class="cls-19" x="216.11" y="541.5" width="145.12" height="22.83"/>
      <rect class="cls-19" x="216.11" y="318.76" width="145.12" height="22.83"/>
      <path class="cls-18" d="m292.17,437.81s1.21,0,1.37,0c-.06,0-.43,0-1.37,0"/>
      <path class="cls-18" d="m285.27,437.81c-1.01,0-1.4,0-1.47,0,.16,0,1.47,0,1.47,0"/>
      <path class="cls-18" d="m237.87,531.96h101.47s-5.01-44.94-42.85-52.66c-.12-.02-.23-.05-.35-.07-3.27-.63-5.67-3.43-5.67-6.76v-28.58c0-3.3,2.35-6.09,5.59-6.74.16-.03.33-.07.49-.1,13.08-2.86,24.29-10.54,30.24-19.16-12.72-13.52-34-20.32-38.13-20.32s-25.51,6.75-38.24,20.32c5.96,8.63,17.36,16.3,30.48,19.17.09.02.17.04.26.06,3.23.67,5.58,3.45,5.58,6.75v28.65c0,3.35-2.44,6.12-5.72,6.78-.02,0-.04,0-.06.01-38.08,7.7-43.09,52.67-43.09,52.67"/>
      <path class="cls-30" d="m305.34,453.14c2.17-5.13,2.06-11.02-.52-15.95-3.25-6.2-10.53-14.4-26.78-20.79-28.58-11.25-31.51-.1-2.09,15.07.79.41.39,1.62-.49,1.46-40.7-7.24-50.11,9.86-39.73,22.47,10.16,12.34,56.92,27.72,69.61-2.25"/>
      <path class="cls-30" d="m249.79,548.82c.5-5.55,3.37-10.7,7.97-13.83,5.79-3.94,16.06-7.75,33.41-5.75,30.51,3.53,27.85,14.74-5.25,14.28-.89-.01-1.1,1.24-.26,1.52,39.32,12.76,39.58,32.28,24.49,38.52-14.78,6.11-63.27-2.33-60.36-34.74"/>
      <path class="cls-27" d="m208.31,329.68l-18.18,99.93,73.3,102.35c-8.13,9.74-13.45,19.85-11.27,30.94,0,0-103.74-69.75-116.65-117.54-12.9-47.79,19.64-143.86,19.64-143.86l53.16,28.18Z"/>
      <path class="cls-27" d="m363.77,328.3l18.43,101.31-80.68,2.58c2.05,13.05-.52,24.2-7.07,33.7,0,0,131.71,34.34,145.11-11.83,13.4-46.17-24.39-154.11-24.39-154.11l-51.4,28.34Z"/>
      <path class="cls-32" d="m330.66,137.25l-5.11-14.33c-.01.06-5.94,27.68-5.94,27.68-.99,7.79,9.25,12.73,13.18,4.35,2.19-4.67-.05-11.78-2.14-17.69"/>
      <path class="cls-25" d="m309.76,109.74c-.03-3.36-4.55-6.05-10.1-5.99-5.54.06-10.01,2.83-9.98,6.19.03,3.36,4.52,2.53,10.06,2.48,5.54-.06,10.04.69,10.01-2.68"/>
      <path class="cls-25" d="m295.46,125.61c.04,4.05,2.04,5.6,4.48,5.58,2.44-.02,4.41-1.62,4.36-5.66-.04-4.05-2.03-5.6-4.48-5.58-2.44.02-4.41,1.62-4.36,5.66"/>
      <path class="cls-25" d="m360.15,109.24c-.03-3.36-4.55-6.05-10.1-5.99-5.54.06-10.01,2.83-9.98,6.19.03,3.36,4.52,2.53,10.06,2.48,5.54-.06,10.04.69,10.01-2.68"/>
      <path class="cls-25" d="m345.85,125.1c.04,4.05,2.04,5.6,4.48,5.58,2.44-.02,4.41-1.62,4.36-5.66-.04-4.05-2.03-5.6-4.48-5.58-2.44.02-4.41,1.62-4.36,5.66"/>
      <path class="cls-16" d="m313.97,167.54s9.43,3.22,19.07.71"/>
      <path class="cls-6" d="m228.69,138.89s8.86-6.98,17.85,2.72c0,0-10.01,7.55.34,17.57"/>
      <path class="cls-11" d="m205.29,129.7s-6.23,37.03,31.18,55.3m-29.03-84.71s-22.58,49.02,4.51,75.47"/>
      <path class="cls-2" d="m319.43,126.47h13.3m-77.85-1.41l24.73,1.41m66.19,13.08h13.67c7.19,0,13.08-5.88,13.08-13.08s-5.88-13.08-13.08-13.08h-13.67c-7.19,0-13.08,5.88-13.08,13.08s5.88,13.08,13.08,13.08Zm-53.12,0h13.68c7.19,0,13.07-5.88,13.07-13.08s-5.88-13.08-13.07-13.08h-13.68c-7.19,0-13.08,5.88-13.08,13.08s5.88,13.08,13.08,13.08Z"/>
      <path class="cls-18" d="m235.72,117.11s15.61,25.39,21.01,24.3c5.4-1.09,3.6-43.71,3.6-43.71,0,0,36.25-5.4,58.64-43.82,27.8,34.21,53.61,27.14,53.61,27.14,0,0-10.2-56.55-66.03-55.35-55.82,1.2-74.43,51.41-70.83,91.43"/>
      <path class="cls-11" d="m318.82,46.54s28.38-1.29,46.66,27.74m-90.09-2.8s22.15-11.82,35.05-34.19m-50.74,51.39s30.53-8.6,50.74-39.13"/>
      <path class="cls-24" d="m336.94,349.94c-5.35.36-11.36,3.07-15.04,4.77-6.4,2.97-10.24,5.63-18.29,1.6-8.05-4.02-15-4.21-15-4.21,0,0-6.95.18-15,4.21-8.05,4.03-11.89,1.36-18.29-1.6-3.68-1.71-9.69-4.41-15.04-4.77-5.55-.37-10.47,4.04-10.48,9.6,0,6.58,3.75,11.25,9.81,15.39,7.5,5.12,14.79,7,19.36,3.16,4.57-3.84,1.1-9.15-3.66-11.71-4.76-2.56-14.46.86-18.67-1.34-4.21-2.19-4.85-8.49-.81-10.52,5.83-2.93,14.79,3.04,19.53,6.77,1.98,1.57,4.1,2.95,6.29,4.21,3.14,1.8,8.03,5.39,11.59,11.66,5.99,10.54-1.46,22.14,7.68,36.59h15.37c9.15-14.45,1.69-26.04,7.68-36.59,3.56-6.27,8.45-9.86,11.59-11.66,2.19-1.26,4.31-2.65,6.29-4.21,4.74-3.74,13.69-9.7,19.53-6.77,4.04,2.03,3.4,8.32-.81,10.52-4.21,2.19-13.91-1.22-18.67,1.34-4.76,2.56-8.23,7.87-3.66,11.71,4.57,3.84,11.86,1.97,19.36-3.16,6.07-4.14,9.82-8.81,9.81-15.39,0-5.56-4.93-9.97-10.48-9.6"/>
      <path class="cls-23" d="m344.73,353.82c-5.1-5.6-12.33-2.38-17.12-.25-2.72,1.21-6.56,2.9-9.46,4.18-3.77,1.66-7.87,2.43-11.98,2.18-1.34-.08-2.82-.23-4.4-.49-7.87-1.28-13.17-1.28-13.17-1.28,0,0-5.31,0-13.17,1.28-1.59.26-3.06.41-4.4.49-4.11.25-8.21-.52-11.98-2.18-2.9-1.28-6.74-2.97-9.46-4.18-4.79-2.13-12.02-5.34-17.12.25-1.86,2.05-2.47,4.76-1.71,7.63,1.22,4.62,5.25,9.89,11.63,13.04l1.35-7.1c-6.83-.36-9.92-2.59-10.94-6.47-.4-1.53-.52-3.75,1.23-5.67,4.07-4.47,9.97-1.85,14.7.26,2.18.97,5.23,2.64,7.9,4.18,3.17,1.82,6.54,3.26,10.05,4.3,3.98,1.18,9.98,3.98,14.36,10.61,7.13,10.79,4.81,25.28,4.81,25.28,0,0-7.13-2.56-6.77,2.93.37,5.49,3.84,10.98,3.84,10.98h11.34s3.47-5.49,3.84-10.98c.37-5.49-6.77-2.93-6.77-2.93,0,0-2.32-14.49,4.81-25.28,4.38-6.62,10.38-9.43,14.36-10.61,3.5-1.04,6.88-2.48,10.05-4.3,2.67-1.53,5.72-3.21,7.9-4.18,4.74-2.11,10.63-4.72,14.7-.26,1.75,1.92,1.64,4.15,1.23,5.67-1.03,3.89-4.11,6.11-10.94,6.47l1.35,7.1c6.38-3.15,10.41-8.42,11.63-13.04.76-2.87.15-5.58-1.71-7.63"/>
      <path class="cls-24" d="m243.87,377.63c-4.76-3.39-3.46-10.65,2.13-12.37,1.13-.34,2.46-.54,4.05-.49,7.91.27,12.28,5.13,11.58,10.34-.7,5.21-7.53,7.01-13.73,4.58-1.68-.66-2.99-1.34-4.02-2.07"/>
      <path class="cls-24" d="m333.35,377.63c4.76-3.39,3.46-10.65-2.13-12.37-1.13-.34-2.46-.54-4.05-.49-7.91.27-12.28,5.13-11.58,10.34.7,5.21,7.53,7.01,13.73,4.58,1.68-.66,2.99-1.34,4.02-2.07"/>
      <path class="cls-26" d="m283.45,301.5c0,11.74-9.51,21.25-21.25,21.25s-21.25-9.51-21.25-21.25,9.51-21.25,21.25-21.25,21.25,9.51,21.25,21.25"/>
      <polygon class="cls-28" points="255.84 310.14 270.84 301.5 255.84 292.85 255.84 310.14"/>
      <path class="cls-31" d="m336.27,301.5c0,16.69-13.53,30.22-30.22,30.22s-30.22-13.53-30.22-30.22,13.53-30.22,30.22-30.22,30.22,13.53,30.22,30.22"/>
      <rect class="cls-23" x="293.77" y="289.21" width="24.57" height="24.57"/>
      <path class="cls-12" d="m186.39,424.12s-5.86-3.79-18.26-2.07m18.26,5.86s-11.84-2.71-26.93,2.44m226.01-4.37s5.86-3.79,18.26-2.07m-18.26,5.86s11.84-2.71,26.93,2.44m-55.87-198.44s-8.27,33.65,7.58,88.99m-150.54-88.99s14.12,36.17-3.44,90.6m156.74,2.76s19.07-4.38,45.54-25.61m-251.18,3.22s14.43,11.25,44.08,23.37"/>
    </g>
    <g class="cls-5">
      <path class="cls-31" d="m346.13,282.16c0,2.78-2.25,5.03-5.03,5.03s-5.03-2.25-5.03-5.03,2.25-5.03,5.03-5.03,5.03,2.25,5.03,5.03"/>
    </g>
  </g>
</svg>