<?xml version="1.0" encoding="UTF-8"?>
<svg id="Calque_2" data-name="Calque 2" xmlns="http://www.w3.org/2000/svg" viewBox="0 0 122.97 129.16">
  <defs>
    <style>
      .cls-1 {
        fill: #d1c1df;
      }

      .cls-2 {
        fill: #e88989;
      }

      .cls-3 {
        fill: #765aa6;
      }

      .cls-4 {
        fill: #272961;
      }

      .cls-5 {
        fill: #ebaead;
      }

      .cls-6 {
        fill: #8d69ad;
      }
    </style>
  </defs>
  <g id="Calque_1-2" data-name="Calque 1">
    <g>
      <path class="cls-1" d="m61.48,0C27.53,0,0,27.52,0,61.47s27.53,61.48,61.48,61.48c11.67,0,22.57-3.25,31.88-8.89l23.46,15.1-10.89-25.2c10.55-11.04,17.03-26.02,17.03-42.49C122.97,27.52,95.43,0,61.48,0"/>
      <g>
        <path class="cls-6" d="m72.82,79.26c-1.9,9.55-1.72,15.92-15.46,20.01-13.74,4.1-17.08-1.34-23.89-8.28-6.82-6.95-4-10.26-4.05-15.44-.04-4.45-4.94-13.98-6.3-16.55.83,1.08,2.88,1.68,5.73,1.8,4.15.17,10.01-.68,16.29-2.55,6.27-1.87,11.63-4.36,15.02-6.78,2.33-1.66,3.71-3.27,3.82-4.64.27,2.9,1.39,13.56,3.79,17.3,2.78,4.36,6.97,5.59,5.06,15.14"/>
        <path class="cls-3" d="m42.98,81.96c.94,3.14-.85,6.44-3.99,7.38-3.14.94-6.44-.85-7.38-3.99-.94-3.14.85-6.44,3.99-7.38,3.14-.94,6.44.85,7.38,3.99"/>
        <path class="cls-3" d="m71.27,73.52c.94,3.14-.85,6.44-3.99,7.38-3.14.94-6.44-.85-7.38-3.99-.94-3.14.85-6.44,3.99-7.38,3.14-.94,6.44.85,7.38,3.99"/>
        <path class="cls-4" d="m26.52,52.98l2.33,7.82c-2.85-.12-4.89-.72-5.73-1.8h0c-.23-.42-.35-.65-.35-.65-.44-1.49.99-3.41,3.75-5.37"/>
        <path class="cls-4" d="m63.9,46.09s.02.26.06.73h0c-.1,1.38-1.49,3-3.82,4.65l-2.33-7.82c3.38.14,5.64.95,6.08,2.44"/>
        <path class="cls-4" d="m31.76,79.14c-1.37-3.17,1.08-7.01,4.33-7.85,3.18-1.08,7.34.79,7.92,4.2-2.55-.93-4.47-1.27-6.84-.58-2.36.71-3.79,2.06-5.41,4.23"/>
        <path class="cls-4" d="m55.51,72.07c-1.37-3.17,1.08-7.01,4.33-7.85,3.18-1.08,7.34.79,7.92,4.2-2.55-.93-4.47-1.27-6.84-.58-2.36.71-3.79,2.06-5.41,4.23"/>
        <path class="cls-4" d="m44.38,93.16c-3.5-5.61.87-12.85,6.85-14.45,5.88-1.96,13.53,1.72,13.65,8.34-4.79-.84-7.09-.8-11.06.34-3.96,1.2-5.91,2.44-9.44,5.77"/>
        <path class="cls-2" d="m97.89,65.01c-4.55,8.61-6.2,14.77-20.53,14.77s-15.99-6.16-20.53-14.77c-4.55-8.61-.9-10.98.53-15.95,1.23-4.27-.74-14.81-1.31-17.66.49,1.28,2.28,2.43,4.98,3.36,3.93,1.35,9.79,2.21,16.34,2.21s12.39-.86,16.33-2.21c2.7-.92,4.49-2.08,4.98-3.36-.57,2.85-2.54,13.39-1.31,17.66,1.42,4.98,5.08,7.35.53,15.95"/>
        <path class="cls-5" d="m68.53,59.07c0,3.28-2.65,5.93-5.93,5.93s-5.93-2.65-5.93-5.93,2.65-5.93,5.93-5.93,5.93,2.65,5.93,5.93"/>
        <path class="cls-5" d="m98.05,59.07c0,3.28-2.65,5.93-5.93,5.93s-5.93-2.65-5.93-5.93,2.65-5.93,5.93-5.93,5.93,2.65,5.93,5.93"/>
        <path class="cls-4" d="m61.02,26.6v8.16c-2.7-.93-4.48-2.08-4.97-3.36h0c-.1-.47-.15-.72-.15-.72,0-1.55,1.92-2.98,5.12-4.08"/>
        <path class="cls-4" d="m98.82,30.67s-.05.26-.15.72h0c-.49,1.29-2.28,2.45-4.98,3.37v-8.16c3.2,1.09,5.13,2.52,5.13,4.08"/>
        <path class="cls-4" d="m58.57,53.17c-.41-3.43,3.04-6.4,6.39-6.29,3.35-.13,6.81,2.85,6.39,6.29-2.18-1.62-3.92-2.49-6.39-2.51-2.47,0-4.22.89-6.39,2.51"/>
        <path class="cls-4" d="m83.35,53.17c-.41-3.43,3.04-6.4,6.39-6.29,3.35-.13,6.81,2.85,6.39,6.29-2.18-1.62-3.92-2.49-6.39-2.51-2.47,0-4.22.89-6.39,2.51"/>
        <path class="cls-4" d="m88.05,59.07c1.75,6.37-4.5,12.07-10.7,11.89-6.2.19-12.47-5.51-10.7-11.89,4.35,2.17,6.56,2.79,10.7,2.83,4.13-.02,6.36-.65,10.7-2.83"/>
      </g>
    </g>
  </g>
</svg>