<?xml version="1.0" encoding="UTF-8"?>
<svg id="Calque_2" data-name="Calque 2" xmlns="http://www.w3.org/2000/svg" viewBox="0 0 91.09 12.95">
  <defs>
    <style>
      .cls-1 {
        fill: #972d83;
      }
    </style>
  </defs>
  <g id="Calque_1-2" data-name="Calque 1">
    <g>
      <path class="cls-1" d="m3.16,5.97h.53c1.14,0,2.27,0,2.27-1.48s-1.05-1.55-2.27-1.55h-.53v3.03ZM0,.4h4.83c2.61,0,4.41,1.21,4.41,3.99s-1.55,4.12-4.3,4.12h-1.79v4.02H0V.4Z"/>
      <path class="cls-1" d="m12.99,5.84h.31c1.03,0,2.19-.19,2.19-1.51s-1.16-1.51-2.19-1.51h-.31v3.03Zm6.94,6.7h-3.93l-2.98-4.67h-.03v4.67h-3.16V.4h4.72c2.4,0,4.22,1.14,4.22,3.74,0,1.67-.93,3.12-2.66,3.43l3.82,4.97Z"/>
      <path class="cls-1" d="m22.65,6.26c0,2.09,1.55,3.62,3.43,3.62s3.43-1.53,3.43-3.62c0-1.67-1.54-3.2-3.43-3.2s-3.43,1.53-3.43,3.2m10.14-.02c0,3.93-2.82,6.7-6.71,6.7s-6.71-2.77-6.71-6.7c0-3.67,3.22-6.25,6.71-6.25s6.71,2.58,6.71,6.25"/>
    </g>
    <polygon class="cls-1" points="34.79 .4 37.89 .4 40.36 6.89 42.97 .4 46.11 .4 47.94 12.54 44.79 12.54 43.9 5.55 43.87 5.55 40.95 12.54 39.7 12.54 36.91 5.55 36.88 5.55 35.87 12.54 32.73 12.54 34.79 .4"/>
    <polygon class="cls-1" points="51.63 3.08 51.63 5.1 55.18 5.1 55.18 7.78 51.63 7.78 51.63 9.87 55.38 9.87 55.38 12.54 48.47 12.54 48.47 .4 55.38 .4 55.38 3.08 51.63 3.08"/>
    <polygon class="cls-1" points="56.52 .4 59.68 .4 65.46 7.83 65.49 7.83 65.49 .4 68.64 .4 68.64 12.54 65.49 12.54 59.71 5.1 59.68 5.1 59.68 12.54 56.52 12.54 56.52 .4"/>
    <path class="cls-1" d="m72.57,6.26c0,2.09,1.55,3.62,3.43,3.62s3.43-1.53,3.43-3.62c0-1.67-1.55-3.2-3.43-3.2s-3.43,1.53-3.43,3.2m10.14-.02c0,3.93-2.82,6.7-6.71,6.7s-6.71-2.77-6.71-6.7c0-3.67,3.22-6.25,6.71-6.25s6.71,2.58,6.71,6.25"/>
    <polygon class="cls-1" points="86.53 9.87 90.31 9.87 90.31 12.54 83.37 12.54 83.37 .4 86.53 .4 86.53 9.87"/>
    <path class="cls-1" d="m89.81,1.74c.17,0,.26-.04.26-.22,0-.15-.19-.15-.34-.15h-.32v.38h.4Zm.53.86h-.36l-.33-.63h-.23v.63h-.33v-1.49h.72c.35,0,.58.06.58.46,0,.27-.14.39-.41.41l.36.63Zm.41-.73c0-.64-.48-1.1-1.1-1.1s-1.09.46-1.09,1.1.47,1.1,1.09,1.1,1.1-.46,1.1-1.1m-2.53,0c0-.8.63-1.44,1.43-1.44s1.43.64,1.43,1.44-.64,1.44-1.43,1.44-1.43-.64-1.43-1.44"/>
  </g>
</svg>