<?xml version="1.0" encoding="UTF-8"?>
<svg id="Calque_2" data-name="Calque 2" xmlns="http://www.w3.org/2000/svg" xmlns:xlink="http://www.w3.org/1999/xlink" viewBox="0 0 233.03 131.22">
  <defs>
    <style>
      .cls-1 {
        clip-path: url(#clippath-4);
      }

      .cls-1, .cls-2, .cls-3, .cls-4, .cls-5, .cls-6, .cls-7 {
        fill: none;
      }

      .cls-2 {
        clip-path: url(#clippath-2);
      }

      .cls-8 {
        fill: #972d83;
      }

      .cls-3 {
        clip-path: url(#clippath-5);
      }

      .cls-4 {
        clip-path: url(#clippath-3);
      }

      .cls-6 {
        clip-path: url(#clippath);
      }

      .cls-7 {
        clip-path: url(#clippath-1);
      }

      .cls-9 {
        fill: #dbbada;
      }
    </style>
    <clipPath id="clippath">
      <rect class="cls-5" x="6.53" y="64.18" width="86.72" height="10.94"/>
    </clipPath>
    <clipPath id="clippath-1">
      <rect class="cls-5" x="123.34" y="97.32" width="33.57" height="10.6"/>
    </clipPath>
    <clipPath id="clippath-2">
      <rect class="cls-5" x="58.7" y="119.54" width="86.91" height="11"/>
    </clipPath>
    <clipPath id="clippath-3">
      <rect class="cls-5" x="58.7" y="119.54" width="86.91" height="11"/>
    </clipPath>
    <clipPath id="clippath-4">
      <rect class="cls-5" x="58.7" y="119.54" width="86.91" height="11"/>
    </clipPath>
    <clipPath id="clippath-5">
      <rect class="cls-5" x="58.7" y="119.54" width="86.91" height="11"/>
    </clipPath>
  </defs>
  <g id="Calque_1-2" data-name="Calque 1">
    <rect class="cls-9" x="38.37" y="108.61" width="117.91" height="5.58"/>
    <rect class="cls-9" y="76.75" width="117.91" height="5.58"/>
    <rect class="cls-9" x="143.03" y="76.75" width="90" height="5.58"/>
    <path class="cls-8" d="m183.94,7.28h.87v6.95h-.87v-6.95Zm-2.67,1.47c0-.07.01-.14.04-.2.03-.06.06-.12.11-.16.04-.05.1-.08.16-.11.06-.03.13-.04.2-.04s.14.01.2.04c.06.03.12.07.16.11.05.05.08.1.11.16.03.06.04.13.04.2s-.01.14-.04.2c-.03.06-.06.12-.11.16-.05.04-.1.08-.16.11-.06.03-.13.04-.2.04-.15,0-.27-.05-.36-.15-.1-.1-.15-.22-.15-.37m-1.55,5.47c-.12,0-.2-.02-.26-.06-.06-.04-.09-.1-.09-.2v-.33c0-.06,0-.11.03-.15.02-.04.04-.06.07-.08.03-.02.07-.03.11-.04.04,0,.09-.01.14-.01h1.59v-2.87h.87v3.74h-2.46Zm-2.65-5.47c0-.07.01-.14.04-.2.03-.06.06-.12.11-.16.04-.05.1-.08.16-.11.06-.03.13-.04.2-.04s.14.01.2.04c.06.03.12.07.16.11.05.05.08.1.11.16.03.06.04.13.04.2s-.01.14-.04.2c-.03.06-.07.12-.11.16-.05.04-.1.08-.16.11-.06.03-.13.04-.2.04-.15,0-.27-.05-.37-.15-.1-.1-.15-.22-.15-.37m-1.24,3.35c0,.19.04.36.11.52.07.15.17.29.3.39.13.11.28.19.45.25.17.06.36.09.55.09h.3c.04-.05.08-.12.13-.21.04-.08.09-.18.12-.28.04-.1.07-.21.09-.33.03-.12.04-.24.04-.37,0-.18-.03-.33-.08-.47-.06-.14-.13-.25-.23-.34-.09-.09-.2-.16-.32-.21-.12-.05-.25-.07-.38-.07s-.26.02-.39.06c-.13.04-.25.1-.35.18-.1.08-.19.19-.25.32-.07.13-.1.28-.1.45m-.14-3.35c0-.07.01-.14.04-.2.03-.06.06-.12.11-.16.04-.05.1-.08.16-.11.06-.03.13-.04.2-.04s.14.01.2.04c.06.03.12.07.16.11s.08.1.11.16c.03.06.04.13.04.2s-.01.14-.04.2c-.03.06-.07.12-.11.16-.05.04-.1.08-.16.11-.06.03-.13.04-.2.04-.14,0-.27-.05-.37-.15-.1-.1-.15-.22-.15-.37m3.5,5.47c-.38,0-.73-.01-1.04-.04-.31-.03-.6-.07-.86-.12-.18.03-.38.06-.6.08-.21.02-.43.04-.66.05-.23.01-.45.02-.69.03-.23,0-.46,0-.69,0h-.5c-.12,0-.2-.02-.26-.06-.06-.04-.09-.1-.09-.2v-.33c0-.06,0-.11.03-.15.02-.04.04-.06.07-.08.03-.02.07-.03.11-.04.04,0,.09-.01.13-.01h1.35v-.02c-.09-.07-.17-.16-.23-.26-.06-.1-.11-.2-.16-.3-.04-.1-.07-.2-.09-.3-.02-.1-.03-.19-.03-.27,0-.25.05-.5.14-.73.1-.23.24-.43.41-.61.18-.17.4-.31.65-.41.26-.1.55-.15.86-.15.28,0,.53.05.74.13.21.09.4.21.54.37.15.16.26.34.33.54.07.21.11.43.11.66,0,.14-.01.28-.04.41-.02.13-.05.25-.09.37-.04.12-.07.22-.11.32-.04.1-.07.18-.1.24h1.24c.12,0,.2.02.26.06.06.04.09.11.09.2v.33c0,.06,0,.11-.03.15s-.04.07-.07.09c-.03.02-.07.03-.11.04-.04,0-.09,0-.13,0h-.52Zm-6.89-1.6c0-.31-.03-.57-.1-.78-.07-.21-.16-.38-.28-.5-.12-.13-.26-.22-.42-.27-.16-.05-.33-.08-.52-.08-.2,0-.39.04-.58.1-.18.07-.36.16-.52.28-.16.12-.31.26-.45.41-.14.15-.26.32-.37.5-.11.18-.21.35-.29.54-.08.18-.14.36-.19.53h3.71v-.73Zm-5.73,1.6c-.12,0-.2-.02-.26-.06-.06-.04-.09-.1-.09-.2v-.33c0-.06,0-.11.03-.15.02-.04.04-.06.07-.08.03-.02.07-.03.11-.04.04,0,.09-.01.14-.01h1.16c.04-.15.11-.31.18-.49.07-.18.16-.36.26-.55v-5.04h.87v3.83c.14-.14.28-.27.43-.39.15-.12.31-.22.48-.31.17-.09.35-.15.53-.21.19-.05.38-.07.58-.07.37,0,.69.06.95.18.26.12.48.29.65.51.17.22.29.47.37.76.08.29.12.6.12.94v.83h.99c.12,0,.2.02.26.06s.09.11.09.2v.33c0,.06,0,.11-.03.15-.02.04-.04.07-.07.09-.03.02-.07.03-.11.04-.04,0-.09,0-.14,0h-7.59Zm-1.69-6.94h.87v5.19c0,.17,0,.32.02.43.01.12.04.21.08.27.04.07.09.11.15.14.06.03.14.04.24.04h.32c.12,0,.2.02.26.06s.09.11.09.2v.33c0,.06,0,.11-.03.15-.02.04-.04.07-.07.09-.03.02-.07.03-.11.04-.04,0-.09,0-.13,0h-.45c-.21,0-.4-.03-.55-.11s-.28-.17-.38-.3c-.1-.12-.18-.27-.22-.44-.05-.17-.07-.36-.07-.56v-5.54Zm-4.1,6.23c-.08-.1-.15-.21-.21-.33-.05-.11-.1-.22-.13-.33-.03-.11-.05-.21-.06-.31-.01-.1-.02-.19-.02-.28,0-.27.05-.53.14-.78.09-.24.22-.46.39-.64.17-.18.37-.33.61-.43.24-.11.5-.16.78-.16.07,0,.15,0,.23.01.09,0,.18.01.27.02.09,0,.17.02.25.04.08.01.14.03.19.05l-.09.91c-.06-.02-.14-.04-.22-.06-.08-.02-.17-.03-.26-.04-.09-.01-.18-.02-.26-.03-.09,0-.17-.01-.23-.01-.11,0-.22.02-.34.05-.12.03-.22.08-.32.16-.1.08-.18.18-.24.31-.06.13-.1.29-.1.48,0,.17.03.33.09.48.06.15.15.27.26.38.11.11.25.19.4.25.15.06.33.09.52.09h1.17v.87h-2.18c-.17,0-.33.03-.48.1-.15.06-.28.15-.39.27-.11.12-.2.27-.27.44-.07.17-.1.37-.1.59,0,.17.03.34.09.51.06.17.15.32.28.46.13.14.29.25.49.33.2.08.44.13.72.13.15,0,.3-.01.47-.03s.32-.05.48-.08v.79c-.1.03-.18.05-.26.06-.08.01-.16.03-.24.04-.08.01-.15.02-.23.03-.08,0-.16,0-.24,0-.28,0-.53-.03-.76-.09-.23-.06-.43-.15-.61-.25-.18-.11-.33-.23-.46-.37-.13-.14-.24-.29-.32-.45-.08-.16-.15-.33-.19-.5-.04-.17-.06-.34-.06-.5,0-.29.04-.55.11-.79.07-.24.17-.45.3-.63.13-.18.28-.34.45-.47.17-.13.36-.23.56-.31m-5.92-6.23h.87v6.95h-.87v-6.95Zm-3.83,6.94c-.12,0-.2-.02-.26-.06-.06-.04-.09-.1-.09-.2v-.33c0-.06,0-.11.03-.15.02-.04.04-.06.07-.08.03-.02.07-.03.11-.04.04,0,.09-.01.14-.01h1.31v-6.08h.87v6.95h-2.18Zm-1.86-1.6c0-.31-.03-.57-.1-.78-.07-.21-.16-.38-.28-.5-.12-.13-.26-.22-.42-.27-.16-.05-.33-.08-.52-.08-.2,0-.39.04-.58.1-.18.07-.36.16-.52.28-.16.12-.31.26-.45.41-.14.15-.26.32-.37.5-.11.18-.21.35-.29.54-.08.18-.14.36-.19.53h3.71v-.73Zm-5.73,1.6c-.12,0-.2-.02-.26-.06-.06-.04-.09-.1-.09-.2v-.33c0-.06,0-.11.03-.15.02-.04.04-.06.07-.08.03-.02.07-.03.11-.04.04,0,.09-.01.13-.01h1.17c.04-.15.1-.31.18-.49.07-.18.16-.36.26-.55v-5.04h.87v3.83c.13-.14.28-.27.43-.39.15-.12.31-.22.48-.31.17-.09.35-.15.53-.21.19-.05.38-.07.58-.07.37,0,.69.06.95.18.26.12.48.29.65.51.17.22.29.47.37.76.08.29.12.6.12.94v.83h.99c.12,0,.2.02.26.06s.09.11.09.2v.33c0,.06,0,.11-.03.15-.02.04-.04.07-.07.09-.03.02-.07.03-.11.04-.04,0-.09,0-.13,0h-7.59Zm-2-1.67c0-.12-.02-.25-.07-.41-.04-.15-.11-.29-.2-.43-.09-.14-.21-.25-.35-.34-.14-.09-.31-.14-.51-.14s-.36.05-.51.15c-.16.1-.29.23-.41.39-.12.16-.22.35-.3.56-.08.21-.14.43-.17.65.03.05.1.09.19.14.09.05.2.09.33.14.12.04.26.07.4.1.14.02.27.04.4.04.18,0,.35-.01.5-.04.15-.03.28-.07.38-.13.11-.06.19-.15.24-.26.06-.11.08-.25.08-.42m-2.84,1.01c-.07.13-.14.23-.21.32-.08.08-.16.15-.25.21-.09.05-.19.09-.29.11-.11.02-.22.03-.36.03h-.38c-.12,0-.2-.02-.26-.06-.06-.04-.09-.1-.09-.2v-.33c0-.06,0-.11.03-.15.02-.04.04-.06.07-.08.03-.02.07-.03.11-.04.04,0,.09-.01.14-.01h.23c.2,0,.38-.05.53-.14.16-.09.26-.24.32-.44.09-.34.2-.64.31-.89s.24-.46.37-.64c.13-.17.26-.32.39-.42.13-.11.26-.19.39-.25.13-.06.25-.1.37-.12.12-.02.22-.03.32-.03.22,0,.41.03.59.09.18.06.33.14.47.25.14.11.26.23.36.37.1.14.19.28.25.43.07.15.12.3.15.46.03.15.05.3.05.44,0,.18-.03.37-.1.57.15.11.33.2.53.25.21.06.45.08.74.08h.04c.12,0,.2.02.26.06s.09.11.09.2v.33c0,.06,0,.11-.03.15-.02.04-.04.07-.07.09-.03.02-.07.03-.11.04-.04,0-.09,0-.14,0h-.05c-.2,0-.38-.02-.54-.05-.16-.03-.3-.08-.43-.13-.13-.06-.24-.12-.34-.2-.1-.08-.19-.16-.27-.24-.15.19-.35.35-.59.48-.24.13-.53.19-.87.19-.21,0-.41-.02-.59-.07-.18-.04-.35-.1-.49-.17-.15-.07-.28-.14-.39-.23-.11-.08-.21-.17-.28-.25m-6.33-4.81c0-.07.01-.14.04-.2.03-.06.06-.12.11-.16.05-.05.1-.08.16-.11.06-.03.13-.04.2-.04s.14.01.2.04c.06.03.12.07.16.11.05.05.08.1.11.16.03.06.04.13.04.2s-.01.14-.04.2c-.03.06-.06.12-.11.16-.05.04-.1.08-.16.11-.06.03-.13.04-.2.04-.15,0-.27-.05-.37-.15-.1-.1-.15-.22-.15-.37m-.7-1.3c0-.07.01-.14.04-.2.03-.06.06-.12.11-.17.05-.05.1-.08.16-.11.06-.03.13-.04.2-.04s.14.01.2.04c.06.03.12.06.16.11.05.05.08.1.11.17.03.06.04.13.04.2s-.01.14-.04.2c-.03.06-.06.12-.11.16-.05.04-.1.08-.16.11-.06.03-.13.04-.2.04-.15,0-.27-.05-.37-.15-.1-.1-.15-.22-.15-.37m-.68,1.3c0-.07.01-.14.04-.2.03-.06.06-.12.11-.16.05-.05.1-.08.16-.11.06-.03.13-.04.2-.04s.14.01.2.04c.06.03.12.07.16.11.05.05.08.1.11.16.03.06.04.13.04.2s-.01.14-.04.2c-.03.06-.06.12-.11.16-.05.04-.1.08-.16.11-.06.03-.13.04-.2.04-.15,0-.27-.05-.37-.15s-.15-.22-.15-.37m-.05,5.47c-.39,0-.72-.02-1-.06-.28-.04-.52-.1-.71-.18-.19-.08-.35-.17-.47-.28-.12-.11-.21-.23-.27-.35-.07-.13-.11-.27-.13-.42-.02-.15-.03-.3-.03-.46,0-.06,0-.13,0-.21,0-.08.01-.16.02-.25,0-.09.02-.17.03-.26.01-.09.02-.16.04-.23l.82.08-.05.34c-.02.11-.02.22-.02.34,0,.19.02.36.07.49.05.14.15.25.31.34.16.09.39.15.7.19.3.04.72.06,1.23.06h3.26c.1,0,.18-.04.24-.13.06-.09.09-.23.09-.41v-2.32h.87v2.56c.15.1.32.18.52.23.2.05.43.07.71.07h.04c.12,0,.2.02.26.06s.09.11.09.2v.33c0,.06,0,.11-.03.15-.02.04-.04.07-.08.09-.03.02-.07.03-.11.04-.04,0-.09,0-.14,0h-.05c-.34,0-.61-.04-.84-.13-.22-.09-.41-.2-.57-.33-.08.13-.19.24-.32.33-.14.09-.31.13-.52.13h-3.98Z"/>
    <g class="cls-6">
      <path class="cls-9" d="m92.46,69.79c0-.12-.02-.25-.07-.41-.04-.15-.11-.29-.2-.43-.09-.14-.21-.25-.35-.34-.14-.09-.31-.14-.51-.14s-.36.05-.51.15c-.16.1-.29.23-.41.39-.12.16-.22.35-.3.56-.08.21-.14.42-.17.65.03.05.1.09.19.14.09.05.2.09.33.14.12.04.26.07.4.1.14.03.27.04.4.04.18,0,.35-.01.5-.04.15-.03.28-.07.39-.13.11-.06.19-.15.24-.26.06-.11.08-.25.08-.42m-2.84,1.01c-.07.13-.14.23-.21.32-.08.08-.16.15-.25.21-.09.05-.19.09-.29.11-.11.02-.23.03-.36.03h-.38c-.12,0-.2-.02-.26-.06-.06-.04-.09-.1-.09-.2v-.33c0-.06,0-.11.03-.15.02-.04.04-.06.07-.08.03-.02.07-.03.11-.04.04,0,.09,0,.14,0h.23c.2,0,.38-.05.54-.14.15-.09.26-.24.32-.44.09-.34.2-.64.31-.89s.24-.46.37-.64c.13-.17.26-.32.39-.42.13-.11.26-.19.39-.25.13-.06.25-.1.37-.12.12-.02.23-.03.33-.03.22,0,.41.03.59.09.18.06.33.14.47.25.14.1.26.23.36.37.1.14.19.28.26.43.07.15.12.3.15.46.03.15.05.3.05.44,0,.13-.02.26-.05.4-.03.14-.08.28-.15.41-.06.14-.15.26-.25.39-.1.12-.22.23-.36.32-.14.09-.3.17-.47.22-.18.05-.38.08-.59.08s-.41-.02-.59-.07c-.18-.04-.35-.1-.49-.17-.15-.07-.28-.14-.39-.23-.11-.08-.21-.17-.28-.25m-3.18-6.27h.87v5.19c0,.17,0,.32.02.43.01.12.04.21.08.27.04.07.09.11.15.14.06.03.14.04.24.04h.32c.12,0,.2.02.26.06.06.04.09.11.09.2v.33c0,.06,0,.11-.03.15-.02.04-.04.07-.07.08-.03.02-.07.03-.11.04-.04,0-.09,0-.14,0h-.45c-.21,0-.4-.04-.55-.11-.15-.07-.28-.17-.38-.3-.1-.12-.18-.27-.22-.44-.05-.17-.07-.36-.07-.56v-5.54Zm-6,1.47c0-.07.01-.14.04-.2.03-.06.06-.12.11-.16.04-.05.1-.08.16-.11.06-.03.13-.04.2-.04s.14.01.2.04c.06.03.12.06.16.11.05.05.08.1.11.16.03.06.04.13.04.2s-.01.14-.04.2c-.03.06-.07.12-.11.16-.05.04-.1.08-.16.11-.06.03-.13.04-.2.04-.14,0-.27-.05-.36-.15s-.15-.22-.15-.37m.89,4.6v-.91c0-.25-.03-.45-.08-.62-.06-.17-.13-.3-.23-.4-.1-.1-.21-.17-.33-.21-.12-.04-.25-.06-.38-.06-.15,0-.29.03-.42.08-.13.06-.24.13-.34.23-.1.1-.17.21-.22.35-.05.14-.08.29-.08.45s.03.31.09.45c.06.14.14.25.25.35.11.1.24.17.4.22.16.05.34.08.54.08h.8Zm-2.26-4.6c0-.07.01-.14.04-.2.03-.06.06-.12.11-.16.04-.05.1-.08.16-.11.06-.03.13-.04.2-.04s.14.01.2.04c.06.03.12.06.16.11.05.05.08.1.11.16.03.06.04.13.04.2s-.01.14-.04.2c-.03.06-.06.12-.11.16-.05.04-.1.08-.16.11-.06.03-.13.04-.2.04-.14,0-.27-.05-.36-.15s-.15-.22-.15-.37m-.63,3.53c0-.28.05-.54.15-.78.1-.24.24-.45.41-.63.18-.18.39-.32.63-.42.24-.1.51-.15.79-.15s.53.04.75.13c.22.09.41.22.56.38.15.17.27.37.35.61.08.24.12.51.12.82v1.98h-5.01c-.12,0-.2-.02-.26-.06-.06-.04-.09-.1-.09-.2v-.33c0-.06,0-.11.03-.15.02-.04.04-.06.07-.08.03-.02.07-.03.11-.04.04,0,.09,0,.14,0h1.55v-.03s-.08-.1-.12-.17c-.04-.07-.07-.15-.1-.24-.03-.09-.05-.19-.07-.3-.02-.11-.02-.22-.02-.33m-3.47,3.39c0-.07.01-.14.04-.2.03-.06.06-.12.11-.16.04-.05.1-.08.16-.11.06-.03.13-.04.2-.04s.14.01.2.04c.06.03.12.06.16.11.05.05.08.1.11.16.03.06.04.13.04.2s-.01.14-.04.2c-.03.06-.06.12-.11.16-.05.04-.1.08-.16.11-.06.03-.13.04-.2.04-.14,0-.27-.05-.36-.15-.1-.1-.15-.22-.15-.36m.96-2.62c.14.1.32.18.51.22.2.05.43.08.71.08h.04c.12,0,.2.02.26.06.06.04.09.11.09.2v.33c0,.06,0,.11-.03.15-.02.04-.04.07-.07.08-.03.02-.07.03-.11.04-.04,0-.09,0-.14,0h-.05c-.34,0-.61-.04-.84-.13-.22-.09-.41-.2-.57-.33-.08.13-.19.24-.32.33-.13.09-.31.13-.51.13h-1.16c-.12,0-.2-.02-.26-.06-.06-.04-.09-.1-.09-.2v-.33c0-.06,0-.11.03-.15.02-.04.04-.06.07-.08.03-.02.07-.03.11-.04.04,0,.09,0,.14,0h.98c.1,0,.18-.04.24-.14.06-.09.09-.23.09-.41v-2.32h.87v2.56Zm-4.43-5.78h.87v5.68c.15.14.34.24.55.3.21.07.48.1.79.1h.04c.12,0,.2.02.26.06s.09.11.09.2v.33c0,.06,0,.11-.03.15-.02.04-.04.07-.07.08-.03.02-.07.03-.11.04-.04,0-.09,0-.14,0h-.05c-.32,0-.59-.04-.81-.12-.22-.08-.4-.18-.55-.3-.04.37-.14.71-.28,1.01-.15.31-.34.57-.59.79-.25.22-.54.39-.88.51-.34.12-.73.18-1.17.18-.46,0-.86-.07-1.19-.21-.34-.14-.62-.33-.84-.56s-.39-.51-.5-.81c-.11-.31-.16-.63-.16-.97,0-.16.01-.33.04-.5.03-.17.06-.33.11-.5.05-.16.1-.32.16-.46.06-.15.13-.28.21-.39l.74.41c-.05.08-.1.18-.14.28-.04.1-.08.21-.11.33-.03.12-.05.23-.07.35s-.02.24-.02.36c0,.25.04.49.12.71.08.22.2.41.35.57s.35.29.58.39c.23.1.49.14.79.14.32,0,.6-.05.85-.14.25-.09.46-.23.63-.41.17-.18.3-.4.39-.65.09-.26.14-.55.14-.88v-6.08Zm-9.26,0h.87v6.95h-.87v-6.95Zm-2.67,1.47c0-.07.01-.14.04-.2.03-.06.06-.12.11-.16.04-.05.1-.08.16-.11.06-.03.13-.04.2-.04s.14.01.2.04c.06.03.12.06.16.11s.08.1.11.16c.03.06.04.13.04.2s-.01.14-.04.2c-.03.06-.06.12-.11.16-.05.04-.1.08-.16.11-.06.03-.13.04-.2.04-.15,0-.27-.05-.36-.15s-.15-.22-.15-.37m-1.55,5.47c-.12,0-.2-.02-.26-.06-.06-.04-.09-.1-.09-.2v-.33c0-.06.01-.11.03-.15.02-.04.04-.06.08-.08.03-.02.07-.03.11-.04.04,0,.09,0,.13,0h1.59v-2.87h.87v3.74h-2.46Zm-2.65-5.47c0-.07.01-.14.04-.2.03-.06.06-.12.11-.16.05-.05.1-.08.16-.11.06-.03.13-.04.2-.04s.14.01.2.04c.06.03.12.06.16.11.05.05.08.1.11.16.03.06.04.13.04.2s-.01.14-.04.2c-.03.06-.07.12-.11.16-.05.04-.1.08-.16.11-.06.03-.13.04-.2.04-.14,0-.27-.05-.36-.15s-.15-.22-.15-.37m-1.24,3.35c0,.19.04.36.11.52.07.15.18.28.31.39.13.11.28.19.45.25.17.06.36.09.55.09h.31c.04-.06.08-.12.12-.21.04-.08.09-.18.12-.28.04-.1.07-.21.09-.33.03-.12.04-.24.04-.37,0-.18-.03-.33-.08-.47-.06-.14-.13-.25-.22-.34-.09-.09-.2-.16-.32-.21-.12-.05-.25-.07-.38-.07s-.26.02-.39.06c-.13.04-.25.1-.35.18-.1.08-.19.19-.25.32-.06.13-.1.28-.1.45m-.14-3.35c0-.07.01-.14.04-.2.03-.06.06-.12.11-.16.04-.05.1-.08.16-.11.06-.03.13-.04.2-.04s.14.01.2.04c.06.03.12.06.17.11.05.05.08.1.11.16.03.06.04.13.04.2s-.01.14-.04.2c-.03.06-.07.12-.11.16-.05.04-.1.08-.17.11-.06.03-.13.04-.2.04-.14,0-.27-.05-.36-.15-.1-.1-.15-.22-.15-.37m3.5,5.47c-.38,0-.73-.01-1.04-.04-.31-.03-.6-.07-.86-.12-.18.03-.38.06-.59.08-.21.02-.43.04-.66.05-.22.01-.46.02-.69.03-.23,0-.46,0-.69,0h-.5c-.12,0-.2-.02-.26-.06-.06-.04-.09-.1-.09-.2v-.33c0-.06,0-.11.03-.15.02-.04.04-.06.07-.08.03-.02.07-.03.11-.04.04,0,.09,0,.14,0h1.35v-.02c-.09-.07-.17-.16-.23-.26-.06-.1-.11-.2-.15-.3-.04-.1-.07-.2-.09-.3-.02-.1-.03-.19-.03-.27,0-.25.05-.5.14-.73.1-.23.24-.43.41-.61.18-.17.4-.31.65-.41.26-.1.55-.15.87-.15.28,0,.53.05.74.14.21.09.39.21.54.37.15.16.26.34.33.54.07.21.11.43.11.66,0,.14-.01.28-.04.41-.02.13-.05.25-.09.37-.04.12-.07.22-.11.32-.04.1-.07.18-.1.24h1.24c.12,0,.2.02.26.06.06.04.09.11.09.2v.33c0,.06,0,.11-.03.15-.02.04-.04.07-.07.08-.03.02-.07.03-.11.04-.04,0-.09,0-.14,0h-.52Zm-6.89-1.6c0-.31-.04-.57-.1-.78-.07-.21-.16-.38-.28-.51-.12-.13-.26-.22-.42-.27-.16-.05-.33-.08-.52-.08-.2,0-.39.04-.57.1-.18.07-.36.16-.52.28-.16.12-.31.26-.45.41-.14.15-.26.32-.37.5-.11.18-.21.35-.29.54-.08.18-.14.36-.19.53h3.71v-.73Zm-5.73,1.6c-.12,0-.2-.02-.26-.06-.06-.04-.09-.1-.09-.2v-.33c0-.06,0-.11.03-.15.02-.04.04-.06.08-.08.03-.02.07-.03.11-.04.04,0,.09,0,.14,0h1.17c.04-.15.1-.31.18-.49.07-.18.16-.36.27-.55v-5.04h.87v3.83c.14-.14.28-.27.43-.39.15-.12.31-.22.48-.31.17-.09.35-.15.53-.21.19-.05.38-.07.58-.07.37,0,.69.06.95.18.26.12.48.29.65.51.17.22.29.47.37.76.08.29.12.6.12.94v.83h.99c.12,0,.2.02.26.06.06.04.09.11.09.2v.33c0,.06,0,.11-.03.15s-.04.07-.07.08c-.03.02-.07.03-.11.04-.04,0-.09,0-.13,0h-7.59Zm-1.69-6.94h.87v5.19c0,.17,0,.32.02.43.01.12.04.21.08.27.04.07.09.11.15.14.06.03.14.04.24.04h.32c.12,0,.2.02.26.06s.09.11.09.2v.33c0,.06,0,.11-.03.15-.02.04-.04.07-.07.08-.03.02-.07.03-.11.04-.04,0-.09,0-.14,0h-.45c-.21,0-.4-.04-.55-.11-.15-.07-.28-.17-.38-.3-.1-.12-.18-.27-.22-.44-.05-.17-.07-.36-.07-.56v-5.54Zm-4.1,6.23c-.08-.1-.15-.21-.21-.33s-.1-.22-.13-.33c-.03-.11-.05-.21-.06-.31-.01-.1-.02-.19-.02-.28,0-.27.05-.53.14-.78.09-.24.22-.46.39-.64.17-.18.37-.33.61-.43.24-.11.5-.16.78-.16.07,0,.15,0,.23.01.09,0,.18.01.27.02.09,0,.17.02.25.04.08.01.14.03.19.05l-.09.91c-.06-.02-.14-.04-.22-.06-.08-.02-.17-.03-.26-.04-.09-.01-.18-.02-.26-.03-.09,0-.17-.01-.23-.01-.11,0-.22.02-.34.05-.12.03-.22.08-.32.16-.1.08-.18.18-.24.31-.06.13-.09.29-.09.48,0,.17.03.33.09.48.06.15.15.27.26.38.11.11.25.19.4.25.15.06.33.09.52.09h1.17v.87h-2.18c-.17,0-.33.03-.48.09-.15.06-.28.15-.39.27-.11.12-.2.27-.27.44-.07.17-.1.37-.1.59,0,.17.03.34.09.51.06.17.15.32.28.46.13.14.29.25.49.33.2.08.44.13.72.13.15,0,.3-.01.47-.03.17-.02.32-.05.48-.08v.79c-.09.03-.18.05-.26.06-.08.01-.16.03-.24.04-.08.01-.15.02-.23.03-.08,0-.16,0-.24,0-.28,0-.53-.03-.76-.09-.23-.06-.43-.15-.61-.25-.18-.11-.33-.23-.46-.37-.13-.14-.24-.29-.32-.45-.08-.16-.15-.33-.19-.5-.04-.17-.06-.34-.06-.5,0-.29.04-.55.11-.79.07-.24.17-.45.3-.63.13-.18.28-.34.45-.47.17-.13.36-.23.56-.31m-5.92-6.23h.87v6.95h-.87v-6.95Zm-3.83,6.94c-.12,0-.2-.02-.26-.06-.06-.04-.09-.1-.09-.2v-.33c0-.06,0-.11.03-.15.02-.04.04-.06.08-.08.03-.02.07-.03.11-.04.04,0,.09,0,.13,0h1.32v-6.08h.87v6.95h-2.19Zm-1.86-1.6c0-.31-.03-.57-.1-.78-.07-.21-.16-.38-.28-.51-.12-.13-.26-.22-.42-.27s-.33-.08-.52-.08c-.2,0-.39.04-.57.1-.18.07-.36.16-.52.28-.16.12-.31.26-.45.41-.14.15-.26.32-.37.5-.11.18-.2.35-.28.54-.08.18-.14.36-.19.53h3.71v-.73Zm-5.73,1.6c-.12,0-.2-.02-.26-.06-.06-.04-.09-.1-.09-.2v-.33c0-.06,0-.11.03-.15.02-.04.04-.06.08-.08.03-.02.07-.03.11-.04.04,0,.09,0,.14,0h1.17c.05-.15.1-.31.18-.49.07-.18.16-.36.26-.55v-5.04h.87v3.83c.14-.14.28-.27.43-.39.15-.12.31-.22.48-.31.17-.09.35-.15.53-.21.19-.05.38-.07.58-.07.37,0,.69.06.95.18.26.12.48.29.65.51.17.22.29.47.37.76.08.29.12.6.12.94v.83h.99c.12,0,.2.02.26.06.06.04.09.11.09.2v.33c0,.06,0,.11-.03.15-.02.04-.04.07-.07.08-.03.02-.07.03-.11.04-.04,0-.09,0-.14,0h-7.59Zm-2-1.67c0-.12-.02-.25-.06-.41-.04-.15-.11-.29-.2-.43-.09-.14-.21-.25-.35-.34-.14-.09-.31-.14-.51-.14s-.36.05-.51.15c-.16.1-.29.23-.41.39-.12.16-.22.35-.3.56-.08.21-.14.42-.17.65.03.05.1.09.19.14.09.05.2.09.33.14.12.04.26.07.4.1.14.03.27.04.4.04.18,0,.35-.01.5-.04.15-.03.28-.07.39-.13.11-.06.19-.15.24-.26.06-.11.08-.25.08-.42m-2.84,1.01c-.07.13-.14.23-.22.32-.08.08-.16.15-.25.21-.09.05-.19.09-.29.11-.11.02-.23.03-.36.03h-.38c-.12,0-.2-.02-.26-.06-.06-.04-.09-.1-.09-.2v-.33c0-.06,0-.11.03-.15.02-.04.04-.06.08-.08.03-.02.07-.03.11-.04.04,0,.09,0,.13,0h.23c.2,0,.38-.05.53-.14.16-.09.26-.24.32-.44.09-.34.2-.64.31-.89.12-.25.24-.46.37-.64.13-.17.26-.32.39-.42.13-.11.26-.19.39-.25.13-.06.25-.1.37-.12.12-.02.23-.03.33-.03.22,0,.41.03.59.09.18.06.33.14.47.25.14.1.26.23.36.37.1.14.19.28.26.43.07.15.12.3.15.46.03.15.05.3.05.44,0,.18-.03.37-.1.57.15.11.33.2.53.25.2.06.45.08.74.08h.04c.12,0,.2.02.26.06s.09.11.09.2v.33c0,.06,0,.11-.03.15-.02.04-.04.07-.08.08-.03.02-.07.03-.11.04-.04,0-.09,0-.14,0h-.05c-.2,0-.38-.02-.54-.05-.16-.03-.3-.08-.43-.13-.13-.06-.24-.12-.34-.2-.1-.08-.19-.16-.27-.24-.15.19-.35.35-.59.48-.24.13-.53.19-.87.19-.21,0-.41-.02-.59-.07-.18-.04-.35-.1-.49-.17-.15-.07-.28-.14-.39-.23-.12-.08-.21-.17-.28-.25m-6.33-4.81c0-.07.01-.14.04-.2.03-.06.06-.12.11-.16.05-.05.1-.08.16-.11.06-.03.13-.04.2-.04s.14.01.2.04c.06.03.12.06.16.11.05.05.08.1.11.16.03.06.04.13.04.2s-.01.14-.04.2c-.03.06-.06.12-.11.16-.05.04-.1.08-.16.11-.06.03-.13.04-.2.04-.15,0-.27-.05-.37-.15s-.15-.22-.15-.37m-.7-1.3c0-.07.01-.14.04-.2.03-.06.06-.12.11-.16.05-.05.1-.08.16-.11.06-.03.13-.04.2-.04s.14.01.2.04c.06.03.12.07.16.11.05.05.08.1.11.16.03.06.04.13.04.2s-.01.14-.04.2c-.03.06-.06.12-.11.16-.05.05-.1.08-.16.11-.06.03-.13.04-.2.04-.15,0-.27-.05-.36-.15-.1-.1-.15-.22-.15-.37m-.68,1.3c0-.07.01-.14.04-.2.03-.06.06-.12.11-.16.05-.05.1-.08.16-.11.06-.03.13-.04.2-.04s.14.01.2.04c.06.03.12.06.16.11.05.05.08.1.11.16.03.06.04.13.04.2s-.01.14-.04.2c-.03.06-.07.12-.11.16-.05.04-.1.08-.16.11-.06.03-.13.04-.2.04-.15,0-.27-.05-.36-.15-.1-.1-.15-.22-.15-.37m-.05,5.47c-.39,0-.72-.02-1-.06-.28-.04-.52-.1-.71-.18-.19-.08-.35-.17-.47-.28-.12-.11-.21-.23-.28-.35-.06-.13-.11-.27-.13-.42-.02-.15-.03-.3-.03-.46,0-.06,0-.13,0-.21,0-.08.01-.16.02-.25,0-.09.02-.17.03-.26.01-.08.02-.16.04-.23l.82.08c-.02.11-.03.23-.05.34-.02.11-.02.22-.02.34,0,.19.02.36.07.5.05.14.15.25.31.34.16.09.39.15.7.19.31.04.72.06,1.23.06h3.26c.1,0,.18-.04.24-.14.06-.09.09-.23.09-.41v-2.32h.87v2.56c.15.1.32.18.52.23.2.05.44.08.71.08h.04c.12,0,.2.02.26.06.06.04.09.11.09.2v.33c0,.06,0,.11-.03.15-.02.04-.04.07-.08.08-.03.02-.07.03-.11.04-.04,0-.09,0-.14,0h-.05c-.34,0-.62-.04-.84-.13-.22-.09-.41-.2-.57-.33-.08.13-.19.24-.32.33-.14.09-.31.13-.52.13h-3.98Z"/>
    </g>
    <g class="cls-7">
      <path class="cls-9" d="m156.43,101.33c-.07-.02-.14-.04-.22-.06-.08-.02-.17-.03-.26-.04-.09-.01-.18-.02-.26-.03-.09,0-.16-.01-.23-.01-.11,0-.22.02-.34.05-.12.03-.22.08-.32.16-.1.08-.18.18-.24.31-.06.13-.09.29-.09.48,0,.17.03.33.09.48.06.15.15.27.26.38.11.11.25.19.4.25.16.06.33.09.52.09h1.17v.87h-4.29c-.12,0-.2-.02-.26-.06-.06-.04-.09-.1-.09-.2v-.33c0-.06,0-.11.03-.15.02-.04.04-.06.07-.08.03-.02.07-.03.11-.04.04,0,.09,0,.14,0h1.29c-.09-.18-.15-.37-.19-.55-.04-.18-.06-.36-.06-.53,0-.27.05-.53.14-.78.09-.24.22-.46.39-.64.17-.18.37-.33.61-.43.24-.11.5-.16.78-.16.07,0,.14,0,.23.01.09,0,.18.01.27.02.09,0,.17.02.25.04.08.01.14.03.19.05l-.09.91Zm-5.5-4.01h.87v5.19c0,.17,0,.32.02.43.01.12.04.21.08.27.04.07.09.11.15.14.06.03.14.04.24.04h.32c.12,0,.2.02.26.06s.09.11.09.2v.33c0,.06,0,.11-.03.15-.02.04-.04.07-.08.08-.03.02-.07.03-.11.04-.04,0-.09,0-.13,0h-.45c-.21,0-.4-.04-.55-.11-.15-.07-.28-.17-.38-.3-.1-.12-.18-.27-.22-.44-.05-.17-.07-.36-.07-.56v-5.54Zm-2.18,5.27c0-.12-.02-.25-.07-.41-.04-.15-.11-.29-.2-.43-.09-.14-.21-.25-.35-.34-.14-.09-.31-.14-.51-.14s-.36.05-.51.15c-.16.1-.29.23-.41.39-.12.16-.22.35-.3.56-.08.21-.14.42-.17.65.03.05.1.09.19.14.09.05.2.09.33.14.12.04.26.07.4.1.14.03.27.04.4.04.18,0,.35-.01.5-.04.15-.03.28-.07.38-.13.11-.06.19-.15.24-.26.06-.11.09-.25.09-.42m-2.76,1.09c-.15.02-.3.05-.46.1-.15.05-.29.12-.41.23-.12.1-.22.25-.3.42-.08.18-.12.4-.12.67,0,.17.01.35.03.54.02.2.06.41.1.63.04.22.1.44.17.68.07.23.15.47.24.7l-.81.27c-.07-.22-.15-.45-.22-.71-.07-.26-.13-.51-.19-.76-.05-.25-.1-.49-.13-.72-.03-.23-.05-.43-.05-.59,0-.27.03-.51.09-.72.06-.21.13-.39.23-.54.09-.15.2-.29.32-.4.12-.11.24-.21.36-.29.12-.08.24-.15.35-.21.11-.06.21-.11.3-.17.09-.34.2-.64.31-.89s.24-.46.37-.64c.13-.17.26-.32.39-.42.13-.11.26-.19.39-.25.13-.06.25-.1.37-.12.12-.02.22-.03.32-.03.22,0,.41.03.59.09.18.06.33.14.47.25.14.11.26.23.36.37.1.14.19.28.26.43.07.15.12.3.15.46.03.15.05.3.05.44,0,.13-.02.26-.05.4-.03.14-.08.28-.15.41-.07.14-.15.26-.25.39-.1.12-.22.23-.36.32-.14.09-.3.17-.47.22s-.38.08-.59.08c-.19,0-.38-.02-.54-.05-.17-.04-.32-.08-.46-.14-.14-.06-.27-.13-.38-.2-.11-.08-.21-.15-.29-.23m-7.32-.28c.08,0,.16,0,.25-.01.08,0,.16-.02.24-.03.08-.01.15-.03.21-.05.06-.02.11-.03.15-.05v-.42c0-.34-.03-.62-.09-.84-.06-.22-.14-.39-.25-.51-.1-.12-.22-.2-.35-.25-.13-.04-.26-.06-.4-.06-.15,0-.29.03-.41.08s-.24.13-.34.23c-.09.1-.17.22-.22.36-.05.14-.08.29-.08.46,0,.14.02.28.07.41.05.13.12.25.23.35.1.1.24.18.4.24.16.06.36.09.6.09m.84.68c-.08.03-.16.06-.25.09-.09.03-.17.04-.26.06-.09.01-.17.02-.25.03-.08,0-.15.01-.22.01-.37,0-.68-.06-.93-.17-.26-.11-.46-.26-.62-.44-.16-.18-.28-.38-.35-.61-.07-.23-.11-.45-.11-.67,0-.28.05-.54.15-.79s.24-.46.42-.64c.18-.18.4-.32.65-.43.25-.1.54-.15.85-.15.13,0,.26.01.4.04.14.02.27.07.41.13.13.06.26.15.38.25.12.11.23.24.32.4.09.16.16.36.22.58.05.23.08.49.08.79v.81c0,.53-.08.96-.24,1.32-.16.35-.38.65-.66.87-.28.23-.62.4-1,.52-.39.12-.82.19-1.28.24l-.09-.84c.36-.03.67-.08.95-.15.28-.08.51-.18.71-.3.2-.12.36-.26.48-.42.12-.16.21-.34.26-.53m-5.44-6.76h.87v6.95h-.87v-6.95Zm-4.96,3.15c.19-.06.38-.1.58-.15.2-.04.41-.07.66-.07s.47.04.66.12c.19.08.35.19.49.32.14.14.25.3.33.5.09.19.15.4.18.63.03.21.07.4.1.6.03.19.07.36.12.5.05.14.11.26.19.35.08.08.17.13.29.13v.87h-4.51c-.12,0-.2-.02-.26-.06-.06-.04-.09-.1-.09-.2v-.33c0-.06,0-.11.03-.15.02-.04.04-.06.07-.08.03-.02.07-.03.11-.04.04,0,.09,0,.13,0h3.44c-.07-.07-.12-.16-.17-.28-.04-.12-.08-.28-.11-.48-.02-.19-.06-.38-.1-.57-.04-.19-.11-.36-.19-.51-.09-.15-.21-.27-.36-.36-.15-.09-.35-.14-.61-.14-.07,0-.15,0-.24.02-.09.01-.18.03-.28.04-.09.02-.18.04-.26.06-.09.02-.15.05-.21.07v-.79Zm-5.77,3.79v-.87h1.65c.23,0,.42-.01.56-.04.15-.03.26-.07.35-.12.08-.05.14-.12.17-.19.03-.07.05-.16.05-.26,0-.17-.05-.35-.14-.54-.09-.19-.21-.38-.36-.56-.15-.18-.32-.37-.5-.55-.19-.18-.38-.35-.57-.5l.64-.63c.21.18.42.39.63.6.2.22.39.44.55.68.16.23.29.47.39.72.1.25.15.49.15.72,0,.12,0,.23-.03.33.15.12.33.2.54.26.21.06.45.08.74.08h.04c.12,0,.2.02.26.06s.09.11.09.2v.33c0,.06,0,.11-.03.15-.02.04-.04.07-.07.08-.03.02-.07.03-.11.04-.04,0-.09,0-.13,0h-.05c-.19,0-.36-.01-.52-.04-.15-.03-.29-.07-.42-.12-.12-.05-.23-.11-.33-.18-.1-.07-.19-.15-.27-.23-.14.18-.34.32-.58.42-.25.1-.56.15-.94.15h-1.76Z"/>
    </g>
    <path class="cls-9" d="m229.32,69.79c0-.12-.02-.25-.07-.41-.04-.15-.11-.29-.2-.43-.09-.14-.21-.25-.35-.34-.14-.09-.31-.14-.51-.14s-.36.05-.52.15c-.16.1-.29.23-.41.39-.12.16-.22.35-.3.56-.08.21-.14.42-.17.65.03.05.1.09.19.14.09.05.2.09.33.14.12.04.25.07.4.1.14.03.27.04.4.04.18,0,.35-.01.5-.04.15-.03.28-.07.38-.13.11-.06.19-.15.24-.26.06-.11.09-.25.09-.42m-2.84,1.01c-.07.13-.14.23-.21.32-.08.08-.16.15-.25.21-.09.05-.19.09-.29.11-.11.02-.23.03-.36.03h-.38c-.12,0-.2-.02-.26-.06-.06-.04-.09-.1-.09-.2v-.33c0-.06,0-.11.03-.15.02-.04.04-.06.08-.08.03-.02.07-.03.11-.04.04,0,.09,0,.14,0h.23c.2,0,.38-.05.53-.14.16-.09.26-.24.32-.44.09-.34.2-.64.31-.89.12-.25.24-.46.37-.64.13-.17.26-.32.39-.42.13-.11.26-.19.39-.25.13-.06.25-.1.37-.12.12-.02.23-.03.33-.03.22,0,.41.03.59.09.18.06.33.14.47.25.14.1.26.23.36.37.1.14.19.28.26.43.07.15.12.3.15.46.03.15.05.3.05.44,0,.13-.02.26-.05.4-.03.14-.08.28-.14.41-.07.14-.15.26-.25.39-.1.12-.22.23-.36.32-.14.09-.3.17-.47.22-.18.05-.38.08-.59.08s-.41-.02-.59-.07c-.18-.04-.35-.1-.49-.17-.15-.07-.28-.14-.39-.23-.11-.08-.21-.17-.28-.25m-3.18-6.27h.87v5.19c0,.17,0,.32.02.43.02.12.04.21.08.27.04.07.09.11.15.14.06.03.14.04.24.04h.32c.12,0,.2.02.26.06.06.04.09.11.09.2v.33c0,.06,0,.11-.03.15-.02.04-.04.07-.08.08-.03.02-.07.03-.11.04-.04,0-.09,0-.14,0h-.45c-.21,0-.4-.04-.55-.11-.15-.07-.28-.17-.38-.3-.1-.12-.18-.27-.22-.44-.05-.17-.07-.36-.07-.56v-5.54Zm-5.33,8.39c0-.07.01-.14.04-.2.03-.06.06-.12.11-.16.04-.05.1-.08.16-.11.06-.03.13-.04.2-.04s.14.01.2.04c.06.03.12.06.16.11.05.05.08.1.11.16.03.06.04.13.04.2s-.01.14-.04.2c-.03.06-.06.12-.11.16-.05.04-.1.08-.16.11-.06.03-.13.04-.2.04-.15,0-.27-.05-.37-.15-.1-.1-.15-.22-.15-.36m-1.52-1.45c-.12,0-.2-.02-.26-.06-.06-.04-.09-.1-.09-.2v-.33c0-.06,0-.11.03-.15.02-.04.04-.06.07-.08.03-.02.07-.03.11-.04.04,0,.09,0,.14,0h1.59v-2.87h.87v3.74h-2.46Zm-1.69-2.7c0-.07-.02-.14-.07-.2-.04-.06-.11-.12-.2-.17-.09-.05-.19-.09-.32-.12-.12-.03-.26-.05-.42-.05-.18,0-.38.02-.6.07-.22.05-.45.13-.7.24.04.08.11.19.2.32.09.13.2.27.32.41.12.14.25.28.39.41.14.13.27.24.41.33.15-.09.29-.19.41-.31.12-.12.22-.23.31-.35.09-.11.15-.22.2-.32.05-.1.07-.18.07-.25m-1.74,1.6c-.14-.1-.28-.23-.41-.38-.13-.15-.26-.3-.38-.46-.12-.15-.22-.3-.31-.43-.09-.13-.17-.23-.23-.3.01-.07.03-.14.06-.23.03-.08.05-.17.08-.25.03-.08.06-.15.1-.21.03-.06.07-.1.1-.12.1-.06.22-.11.36-.17s.3-.12.48-.17c.18-.05.37-.09.58-.13.21-.03.43-.05.66-.05.17,0,.35.02.53.05.18.03.34.08.48.15.15.07.26.15.35.26.09.1.14.23.14.37,0,.1-.01.22-.04.36-.02.14-.07.29-.15.46-.07.17-.18.36-.33.57-.14.21-.34.44-.58.68.07.04.17.07.28.1.11.03.23.05.36.07.13.02.27.03.43.05.15.01.31.02.47.02h.4c.12,0,.2.02.26.06s.09.11.09.2v.33c0,.06,0,.11-.03.15-.02.04-.04.07-.07.08-.03.02-.07.03-.11.04-.04,0-.09,0-.13,0h-.65c-.26,0-.5-.02-.73-.06-.22-.04-.43-.09-.61-.15-.18-.06-.34-.12-.47-.18-.13-.07-.24-.12-.31-.17-.13.07-.28.15-.43.21-.15.07-.32.13-.5.18-.18.05-.36.09-.56.12-.2.03-.4.05-.62.05h-.62c-.12,0-.2-.02-.26-.06-.06-.04-.09-.1-.09-.2v-.33c0-.06,0-.11.03-.15.02-.04.04-.06.07-.08.03-.02.07-.03.11-.04.04,0,.09,0,.14,0h.68c.18,0,.34,0,.5-.02.15-.01.29-.03.41-.05.12-.02.22-.04.3-.07.08-.03.14-.06.17-.08m-6.93,1.1v-.87h1.65c.23,0,.42-.01.56-.04.15-.03.26-.07.35-.12s.14-.12.17-.19c.03-.07.05-.16.05-.26,0-.17-.05-.35-.14-.54-.09-.19-.21-.38-.36-.56-.15-.19-.32-.37-.51-.55-.19-.18-.38-.35-.57-.5l.64-.63c.21.18.42.39.63.6.2.22.39.44.55.68.16.23.29.47.39.72.1.25.15.49.15.72,0,.12,0,.23-.03.33.15.12.33.2.54.26.21.06.45.08.74.08h.04c.12,0,.2.02.26.06s.09.11.09.2v.33c0,.06,0,.11-.02.15-.02.04-.04.07-.08.08-.03.02-.07.03-.11.04-.04,0-.09,0-.14,0h-.05c-.19,0-.36-.01-.52-.04-.15-.03-.29-.07-.42-.12-.12-.05-.23-.11-.33-.18-.1-.07-.19-.15-.27-.23-.14.18-.34.32-.58.42-.25.1-.56.15-.94.15h-1.76Zm-4.84-6.94h.87v6.95h-.87v-6.95Zm-2.67,1.47c0-.07.01-.14.04-.2.03-.06.06-.12.11-.16.04-.05.1-.08.16-.11.06-.03.13-.04.2-.04s.14.01.2.04c.06.03.12.06.16.11.05.05.08.1.11.16.03.06.04.13.04.2s-.01.14-.04.2c-.03.06-.06.12-.11.16-.05.04-.1.08-.16.11-.06.03-.13.04-.2.04-.15,0-.27-.05-.36-.15-.1-.1-.15-.22-.15-.37m-1.55,5.47c-.12,0-.2-.02-.26-.06-.06-.04-.09-.1-.09-.2v-.33c0-.06,0-.11.03-.15.02-.04.04-.06.07-.08.03-.02.07-.03.11-.04.04,0,.09,0,.14,0h1.59v-2.87h.87v3.74h-2.46Zm-2.65-5.47c0-.07.01-.14.04-.2.03-.06.06-.12.11-.16.04-.05.1-.08.16-.11.06-.03.13-.04.2-.04s.14.01.2.04c.06.03.12.06.16.11.05.05.08.1.11.16.03.06.04.13.04.2s-.01.14-.04.2c-.03.06-.07.12-.11.16-.05.04-.1.08-.16.11-.06.03-.13.04-.2.04-.15,0-.27-.05-.37-.15-.1-.1-.15-.22-.15-.37m-1.24,3.35c0,.19.04.36.11.52.07.15.17.28.3.39.13.11.28.19.45.25.17.06.36.09.55.09h.3c.04-.06.08-.12.13-.21.04-.08.09-.18.12-.28.04-.1.07-.21.09-.33.03-.12.04-.24.04-.37,0-.18-.03-.33-.08-.47-.06-.14-.13-.25-.23-.34-.09-.09-.2-.16-.32-.21-.12-.05-.25-.07-.38-.07s-.26.02-.39.06c-.13.04-.25.1-.35.18-.1.08-.19.19-.25.32-.07.13-.1.28-.1.45m-.14-3.35c0-.07.01-.14.04-.2.03-.06.06-.12.11-.16.04-.05.1-.08.16-.11.06-.03.13-.04.2-.04s.14.01.2.04c.06.03.12.06.16.11.05.05.08.1.11.16.03.06.04.13.04.2s-.01.14-.04.2c-.03.06-.07.12-.11.16-.05.04-.1.08-.16.11-.06.03-.13.04-.2.04-.14,0-.27-.05-.37-.15-.1-.1-.15-.22-.15-.37m3.5,5.47c-.38,0-.73-.01-1.04-.04-.31-.03-.6-.07-.86-.12-.18.03-.38.06-.6.08-.21.02-.43.04-.66.05-.23.01-.46.02-.69.03-.23,0-.46,0-.69,0h-.5c-.12,0-.2-.02-.26-.06-.06-.04-.09-.1-.09-.2v-.33c0-.06,0-.11.03-.15.02-.04.04-.06.07-.08.03-.02.07-.03.11-.04.04,0,.09,0,.13,0h1.35v-.02c-.09-.07-.17-.16-.23-.26-.06-.1-.11-.2-.16-.3-.04-.1-.07-.2-.09-.3-.02-.1-.03-.19-.03-.27,0-.25.05-.5.14-.73.1-.23.24-.43.41-.61.18-.17.4-.31.65-.41.26-.1.55-.15.86-.15.28,0,.53.05.74.14.21.09.4.21.54.37.15.16.26.34.33.54.07.21.11.43.11.66,0,.14-.01.28-.04.41-.02.13-.05.25-.09.37-.04.12-.07.22-.11.32-.04.1-.07.18-.1.24h1.24c.12,0,.2.02.26.06.06.04.09.11.09.2v.33c0,.06,0,.11-.03.15s-.04.07-.07.08c-.03.02-.07.03-.11.04-.04,0-.09,0-.13,0h-.52Zm-6.89-1.6c0-.31-.03-.57-.1-.78-.07-.21-.16-.38-.28-.51-.12-.13-.26-.22-.42-.27s-.33-.08-.52-.08c-.2,0-.39.04-.58.1-.18.07-.36.16-.52.28-.16.12-.31.26-.45.41-.14.15-.26.32-.37.5-.11.18-.21.35-.29.54-.08.18-.14.36-.19.53h3.71v-.73Zm-5.73,1.6c-.12,0-.2-.02-.26-.06-.06-.04-.09-.1-.09-.2v-.33c0-.06,0-.11.03-.15.02-.04.04-.06.07-.08.03-.02.07-.03.11-.04.04,0,.09,0,.14,0h1.16c.04-.15.11-.31.18-.49.07-.18.16-.36.26-.55v-5.04h.87v3.83c.14-.14.28-.27.43-.39.15-.12.31-.22.48-.31.17-.09.35-.15.53-.21.19-.05.38-.07.58-.07.37,0,.69.06.95.18.26.12.48.29.65.51.17.22.29.47.37.76.08.29.12.6.12.94v.83h.99c.12,0,.2.02.26.06s.09.11.09.2v.33c0,.06,0,.11-.03.15-.02.04-.04.07-.07.08-.03.02-.07.03-.11.04-.04,0-.09,0-.14,0h-7.59Zm-1.69-6.94h.87v5.19c0,.17,0,.32.02.43.01.12.04.21.08.27.04.07.09.11.15.14.06.03.14.04.24.04h.32c.12,0,.2.02.26.06s.09.11.09.2v.33c0,.06,0,.11-.03.15-.02.04-.04.07-.07.08-.03.02-.07.03-.11.04-.04,0-.09,0-.13,0h-.45c-.21,0-.4-.04-.55-.11-.15-.07-.28-.17-.38-.3-.1-.12-.18-.27-.22-.44-.05-.17-.07-.36-.07-.56v-5.54Zm-4.1,6.23c-.08-.1-.15-.21-.21-.33-.05-.11-.1-.22-.13-.33-.03-.11-.05-.21-.06-.31-.01-.1-.02-.19-.02-.28,0-.27.05-.53.14-.78.09-.24.22-.46.39-.64.17-.18.37-.33.61-.43.24-.11.5-.16.78-.16.07,0,.14,0,.23.01.09,0,.18.01.27.02.09,0,.17.02.25.04.08.01.14.03.19.05l-.09.91c-.06-.02-.14-.04-.22-.06-.08-.02-.17-.03-.26-.04-.09-.01-.18-.02-.26-.03-.09,0-.17-.01-.23-.01-.11,0-.22.02-.34.05-.12.03-.22.08-.32.16-.1.08-.18.18-.24.31-.06.13-.1.29-.1.48,0,.17.03.33.09.48.06.15.15.27.26.38.11.11.25.19.4.25.15.06.33.09.52.09h1.17v.87h-2.18c-.17,0-.33.03-.48.09-.15.06-.28.15-.39.27-.11.12-.2.27-.27.44-.07.17-.1.37-.1.59,0,.17.03.34.09.51.06.17.15.32.28.46.13.14.29.25.49.33.2.08.44.13.72.13.15,0,.3-.01.47-.03.17-.02.32-.05.48-.08v.79c-.1.03-.18.05-.26.06-.08.01-.16.03-.24.04-.08.01-.15.02-.23.03-.08,0-.16,0-.24,0-.28,0-.53-.03-.76-.09-.23-.06-.43-.15-.61-.25-.18-.11-.33-.23-.46-.37-.13-.14-.24-.29-.32-.45-.08-.16-.15-.33-.19-.5-.04-.17-.06-.34-.06-.5,0-.29.04-.55.11-.79.07-.24.17-.45.3-.63.13-.18.28-.34.45-.47.17-.13.36-.23.56-.31m-5.92-6.23h.87v6.95h-.87v-6.95Zm-3.83,6.94c-.12,0-.2-.02-.26-.06-.06-.04-.09-.1-.09-.2v-.33c0-.06,0-.11.03-.15.02-.04.04-.06.07-.08.03-.02.07-.03.11-.04.04,0,.09,0,.14,0h1.31v-6.08h.87v6.95h-2.18Zm-1.86-1.6c0-.31-.03-.57-.1-.78-.07-.21-.16-.38-.28-.51-.12-.13-.26-.22-.42-.27s-.33-.08-.52-.08c-.2,0-.39.04-.58.1-.18.07-.36.16-.52.28-.16.12-.31.26-.45.41-.14.15-.26.32-.37.5-.11.18-.21.35-.29.54-.08.18-.14.36-.19.53h3.71v-.73Zm-5.73,1.6c-.12,0-.2-.02-.26-.06-.06-.04-.09-.1-.09-.2v-.33c0-.06,0-.11.03-.15.02-.04.04-.06.07-.08.03-.02.07-.03.11-.04.04,0,.09,0,.13,0h1.17c.04-.15.1-.31.18-.49.07-.18.16-.36.26-.55v-5.04h.87v3.83c.13-.14.28-.27.43-.39.15-.12.31-.22.48-.31.17-.09.35-.15.53-.21.19-.05.38-.07.58-.07.37,0,.69.06.95.18.26.12.48.29.65.51.17.22.29.47.37.76.08.29.12.6.12.94v.83h.99c.12,0,.2.02.26.06s.09.11.09.2v.33c0,.06,0,.11-.03.15-.02.04-.04.07-.07.08-.03.02-.07.03-.11.04-.04,0-.09,0-.13,0h-7.59Zm-2-1.67c0-.12-.02-.25-.07-.41-.04-.15-.11-.29-.2-.43-.09-.14-.21-.25-.35-.34-.14-.09-.31-.14-.51-.14s-.36.05-.51.15c-.16.1-.29.23-.41.39-.12.16-.22.35-.3.56-.08.21-.14.42-.17.65.03.05.1.09.19.14.09.05.2.09.33.14.12.04.26.07.4.1.14.03.27.04.4.04.18,0,.35-.01.5-.04.15-.03.28-.07.38-.13.11-.06.19-.15.24-.26.06-.11.08-.25.08-.42m-2.84,1.01c-.07.13-.14.23-.21.32-.08.08-.16.15-.25.21-.09.05-.19.09-.29.11-.11.02-.22.03-.36.03h-.38c-.12,0-.2-.02-.26-.06-.06-.04-.09-.1-.09-.2v-.33c0-.06,0-.11.03-.15.02-.04.04-.06.08-.08.03-.02.07-.03.11-.04.04,0,.09,0,.14,0h.23c.2,0,.38-.05.53-.14.16-.09.26-.24.32-.44.09-.34.2-.64.31-.89s.24-.46.37-.64c.13-.17.26-.32.39-.42.13-.11.26-.19.39-.25.13-.06.25-.1.37-.12.12-.02.22-.03.32-.03.22,0,.41.03.59.09.18.06.33.14.47.25.14.1.26.23.36.37.1.14.19.28.25.43.07.15.12.3.15.46.03.15.05.3.05.44,0,.18-.03.37-.1.57.15.11.33.2.53.25.21.06.45.08.74.08h.04c.12,0,.2.02.26.06s.09.11.09.2v.33c0,.06,0,.11-.03.15-.02.04-.04.07-.07.08-.03.02-.07.03-.11.04-.04,0-.09,0-.14,0h-.05c-.2,0-.38-.02-.54-.05-.16-.03-.3-.08-.43-.13-.13-.06-.24-.12-.34-.2-.1-.08-.19-.16-.27-.24-.15.19-.35.35-.59.48-.24.13-.53.19-.87.19-.21,0-.41-.02-.59-.07-.18-.04-.35-.1-.49-.17-.15-.07-.28-.14-.39-.23-.11-.08-.21-.17-.28-.25m-6.33-4.81c0-.07.01-.14.04-.2.03-.06.06-.12.11-.16.05-.05.1-.08.16-.11.06-.03.13-.04.2-.04s.14.01.2.04c.06.03.12.06.16.11.05.05.08.1.11.16.03.06.04.13.04.2s-.01.14-.04.2c-.03.06-.06.12-.11.16-.05.04-.1.08-.16.11-.06.03-.13.04-.2.04-.15,0-.27-.05-.37-.15-.1-.1-.15-.22-.15-.37m-.7-1.3c0-.07.01-.14.04-.2.03-.06.06-.12.11-.16.05-.05.1-.08.16-.11.06-.03.13-.04.2-.04s.14.01.2.04c.06.03.12.07.16.11.05.05.08.1.11.16.03.06.04.13.04.2s-.01.14-.04.2c-.03.06-.06.12-.11.16-.05.05-.1.08-.16.11-.06.03-.13.04-.2.04-.15,0-.27-.05-.37-.15-.1-.1-.15-.22-.15-.37m-.68,1.3c0-.07.01-.14.04-.2.03-.06.06-.12.11-.16.05-.05.1-.08.16-.11.06-.03.13-.04.2-.04s.14.01.2.04c.06.03.12.06.16.11.05.05.08.1.11.16.03.06.04.13.04.2s-.01.14-.04.2c-.03.06-.06.12-.11.16-.05.04-.1.08-.16.11-.06.03-.13.04-.2.04-.15,0-.27-.05-.37-.15-.1-.1-.15-.22-.15-.37m-.05,5.47c-.39,0-.72-.02-1-.06-.28-.04-.52-.1-.71-.18-.19-.08-.35-.17-.47-.28-.12-.11-.21-.23-.27-.35-.07-.13-.11-.27-.13-.42-.02-.15-.03-.3-.03-.46,0-.06,0-.13,0-.21,0-.08.01-.16.02-.25,0-.09.02-.17.03-.26.01-.08.02-.16.04-.23l.82.08c-.02.11-.03.23-.05.34-.02.11-.02.22-.02.34,0,.19.02.36.07.5.05.14.15.25.31.34.16.09.39.15.7.19.31.04.72.06,1.23.06h3.26c.1,0,.18-.04.24-.14.06-.09.09-.23.09-.41v-2.32h.87v2.56c.15.1.32.18.52.23.2.05.43.08.71.08h.04c.12,0,.2.02.26.06s.09.11.09.2v.33c0,.06,0,.11-.03.15-.02.04-.04.07-.08.08-.03.02-.07.03-.11.04-.04,0-.09,0-.14,0h-.05c-.34,0-.61-.04-.84-.13-.22-.09-.41-.2-.57-.33-.08.13-.19.24-.32.33-.14.09-.31.13-.52.13h-3.98Z"/>
    <g class="cls-2">
      <path class="cls-9" d="m60.83,124.01h.36c.77,0,1.53,0,1.53-1s-.71-1.04-1.53-1.04h-.36v2.04Zm-2.13-3.76h3.26c1.76,0,2.98.82,2.98,2.69s-1.04,2.78-2.9,2.78h-1.21v2.72h-2.13v-8.19Z"/>
      <path class="cls-9" d="m69.72,124.85c-.1-.53-.59-.88-1.12-.88-.58,0-1.05.31-1.17.88h2.29Zm-1.44-2.8l-.88-.64,1.53-1.87,1.21.87-1.86,1.64Zm3.28,3.94h-4.16c0,.8.42,1.24,1.24,1.24.42,0,.73-.14.94-.51h1.9c-.15.65-.54,1.13-1.05,1.44-.51.32-1.14.47-1.78.47-1.85,0-3.23-1.04-3.23-2.96s1.27-2.98,3.08-2.98c1.93,0,3.05,1.19,3.05,3.1v.21Z"/>
    </g>
    <g>
      <path class="cls-9" d="m74.43,123.79h.02c.38-.68,1.03-.99,1.8-.99h.38v1.9c-.27-.15-.53-.19-.84-.19-1.1,0-1.37.73-1.37,1.68v2.25h-1.98v-5.57h1.98v.91Z"/>
      <path class="cls-9" d="m79.35,128.45h-1.97v-5.57h1.97v5.57Zm.12-7.71c0,.61-.5,1.11-1.11,1.11s-1.11-.5-1.11-1.11.5-1.11,1.11-1.11,1.11.5,1.11,1.11"/>
    </g>
    <g class="cls-4">
      <path class="cls-9" d="m82.63,123.57h.02c.47-.62,1.04-.88,1.76-.88.81,0,1.5.33,1.9,1.06.38-.69,1.13-1.06,1.89-1.06,1.41,0,1.9.92,1.9,2.2v3.55h-1.98v-2.66c0-.58.02-1.52-.81-1.52-.91,0-.95.86-.95,1.52v2.66h-1.98v-2.66c0-.62,0-1.56-.88-1.56s-.88.94-.88,1.56v2.66h-1.98v-5.57h1.98v.69Z"/>
      <path class="cls-9" d="m95.27,124.85c-.1-.53-.59-.88-1.12-.88-.58,0-1.05.31-1.17.88h2.29Zm-1.44-2.8l-.88-.64,1.53-1.87,1.21.87-1.86,1.64Zm3.28,3.94h-4.16c0,.8.42,1.24,1.24,1.24.42,0,.73-.14.94-.51h1.9c-.15.65-.54,1.13-1.05,1.44-.51.32-1.14.47-1.78.47-1.85,0-3.23-1.04-3.23-2.96s1.27-2.98,3.08-2.98c1.93,0,3.05,1.19,3.05,3.1v.21Z"/>
    </g>
    <path class="cls-9" d="m99.98,123.59h.02c.46-.67,1.01-.9,1.78-.9,1.5,0,2.1.94,2.1,2.31v3.44h-1.98v-2.71c0-.53.09-1.47-.89-1.47-.8,0-1.03.6-1.03,1.29v2.89h-1.98v-5.57h1.98v.72Z"/>
    <g class="cls-1">
      <path class="cls-9" d="m106.85,125.66c0,.71.47,1.25,1.27,1.25s1.27-.54,1.27-1.25-.47-1.26-1.27-1.26-1.27.58-1.27,1.26m4.63,0c0,1.89-1.56,2.97-3.36,2.97s-3.36-1.06-3.36-2.97,1.56-2.98,3.36-2.98,3.36,1.08,3.36,2.98"/>
      <path class="cls-9" d="m114.22,125.66c0,.71.47,1.25,1.27,1.25s1.27-.54,1.27-1.25-.47-1.26-1.27-1.26-1.27.58-1.27,1.26m.07-2.16h.02c.36-.55,1.03-.81,1.68-.81,1.66,0,2.81,1.39,2.81,2.99s-1.14,2.95-2.79,2.95c-.64,0-1.3-.23-1.73-.72v3.31h-1.98v-8.35h1.98v.63Z"/>
    </g>
    <g>
      <path class="cls-9" d="m121.41,125.66c0,.71.47,1.25,1.27,1.25s1.27-.54,1.27-1.25-.47-1.26-1.27-1.26-1.27.58-1.27,1.26m4.45,2.78h-1.98v-.62h-.02c-.35.55-1.03.8-1.68.8-1.65,0-2.81-1.38-2.81-2.98s1.14-2.97,2.79-2.97c.64,0,1.31.24,1.73.73v-.54h1.98v5.57Z"/>
      <path class="cls-9" d="m129.12,122.87v2.98c0,.71.17,1.21.99,1.21s.99-.5.99-1.21v-2.98h1.98v3.36c0,1.83-1.29,2.4-2.96,2.4s-2.96-.56-2.96-2.4v-3.36h1.98Z"/>
    </g>
    <g class="cls-3">
      <path class="cls-9" d="m138.01,124.31c-.3-.16-.73-.27-1.06-.27-.23,0-.62.1-.62.38,0,.38.62.44.89.49.92.19,1.62.62,1.62,1.65,0,1.47-1.34,2.08-2.63,2.08-.79,0-1.57-.23-2.25-.64l.72-1.38c.4.28,1.08.56,1.56.56.25,0,.62-.12.62-.42,0-.43-.62-.46-1.24-.62-.62-.16-1.24-.47-1.24-1.47,0-1.37,1.24-1.98,2.46-1.98.63,0,1.26.1,1.83.36l-.66,1.26Z"/>
      <path class="cls-9" d="m143.78,124.85c-.1-.53-.59-.88-1.12-.88-.57,0-1.05.31-1.17.88h2.29Zm1.84,1.14h-4.16c0,.8.42,1.24,1.24,1.24.42,0,.73-.14.94-.51h1.9c-.15.65-.54,1.13-1.05,1.44-.51.32-1.14.47-1.78.47-1.85,0-3.23-1.04-3.23-2.96s1.27-2.98,3.08-2.98c1.93,0,3.05,1.19,3.05,3.1v.21Z"/>
    </g>
    <rect class="cls-8" x="114.42" width="5.58" height="108.61"/>
  </g>
</svg>