<?xml version="1.0" encoding="UTF-8"?>
<svg id="Calque_2" data-name="Calque 2" xmlns="http://www.w3.org/2000/svg" viewBox="0 0 93.66 18.84">
  <defs>
    <style>
      .cls-1 {
        fill: #972d83;
      }
    </style>
  </defs>
  <g id="Calque_1-2" data-name="Calque 1">
    <g>
      <path class="cls-1" d="m6.64,18.19c-.98-.43-1.73-1.01-2.26-1.74-.53-.73-.8-1.51-.8-2.35,0-.7.22-2.41.68-5.11l3.29.17c-.12.76-.25,1.64-.39,2.63-.14.99-.21,1.64-.21,1.94,0,.36.12.71.36,1.04.24.33.58.6,1.02.81.44.21.94.31,1.5.31.6,0,1.11-.11,1.52-.33.42-.22.72-.49.92-.82.2-.33.3-.64.3-.96V1.24h3.52v12.88c0,.79-.23,1.55-.7,2.27-.46.72-1.16,1.31-2.09,1.77-.93.46-2.04.69-3.34.69s-2.37-.22-3.35-.65"/>
      <path class="cls-1" d="m22.34,10.78c.27.3.78.45,1.54.45h1.23v-3.85c-.44-.03-.84-.04-1.21-.04s-.67.04-.94.11c-.27.08-.51.27-.72.57-.2.31-.31.78-.31,1.42,0,.59.13,1.03.4,1.33m9.42,3.4h-3.21c-.18,1.29-.61,2.39-1.31,3.3-.69.91-1.83,1.36-3.4,1.36-.89,0-2.18-.14-3.89-.41v-2.93c1.87.26,3.05.4,3.54.4.6,0,1-.13,1.21-.4.21-.26.3-.7.29-1.32h-1.96c-1.31,0-2.3-.23-2.98-.7-.68-.46-1.11-1.02-1.32-1.66-.21-.64-.31-1.37-.31-2.17,0-1.52.22-2.66.67-3.42.44-.76,1.01-1.26,1.7-1.49.69-.23,1.53-.35,2.53-.35s1.91.06,2.86.17c.95.11,1.77.24,2.46.38v6.3h3.13v2.95Z"/>
    </g>
    <path class="cls-1" d="m34.96,0h3.17v3.03h-3.17V0Zm6.47,11.23v2.95h-9.66v-2.95h3.05v-6.45h3.52v6.45h3.09Z"/>
    <path class="cls-1" d="m46.7,15.68h2.48v2.86h-2.48v-2.86Zm-3.48,0h2.48v2.86h-2.48v-2.86Zm7.86-4.46v2.95h-9.66v-2.95h3.05v-6.45h3.52v6.45h3.09Z"/>
    <g>
      <path class="cls-1" d="m57.33,10.4c.06.33.13.6.2.83h3.54v-1.82c0-.44-.03-.78-.09-1.01-.06-.24-.25-.44-.56-.61-.31-.17-.81-.25-1.49-.25-.52,0-1.01.05-1.47.15-.14.69-.21,1.28-.21,1.77,0,.31.03.63.09.96m5.47-5.15c.78.41,1.27.95,1.47,1.6.21.65.31,1.53.31,2.63v4.7h-13.51v-2.95h3.05c-.18-.7-.27-1.3-.27-1.79,0-.59.09-1.27.28-2.05.18-.78.38-1.47.6-2.07.38-.17.97-.33,1.76-.48.79-.14,1.69-.22,2.7-.22,1.62,0,2.82.21,3.6.62"/>
      <path class="cls-1" d="m70.26,10.78c.27.3.78.45,1.55.45h1.23v-3.86c-.44-.02-.84-.04-1.21-.04s-.67.04-.94.11c-.27.07-.51.27-.72.57-.21.31-.31.78-.31,1.42,0,.59.13,1.03.4,1.33m6.1,4.14c-.13.88-.55,1.75-1.25,2.62-.7.87-1.82,1.31-3.35,1.31-.89,0-2.18-.14-3.89-.41v-2.93c1.87.26,3.05.4,3.54.4.6,0,1-.13,1.21-.4.2-.26.3-.7.29-1.32h-1.96c-1.31,0-2.3-.23-2.98-.7-.67-.46-1.11-1.02-1.32-1.67-.2-.64-.31-1.37-.31-2.17,0-1.52.22-2.66.67-3.42.44-.76,1.01-1.26,1.7-1.49.69-.23,1.53-.35,2.53-.35s1.91.06,2.86.17c.95.11,1.77.24,2.45.38v7.28c0,.93-.06,1.83-.19,2.71"/>
      <path class="cls-1" d="m87.09,14.18h-3.91c-.04,1.43-.35,2.56-.92,3.39-.57.83-1.42,1.25-2.54,1.25-.3,0-.79-.02-1.47-.06v-2.92l.31.02c.74,0,1.11-.52,1.11-1.54V4.76h3.52v6.47h3.91v2.95Z"/>
    </g>
    <path class="cls-1" d="m90.39,15.68h3.17v3.03h-3.17v-3.03Zm3.27-10.91v9.4h-6.57v-2.95h3.05v-6.45h3.52Z"/>
    <g>
      <path class="cls-1" d="m3.14,1.9c-.02.13-.1.3-.18.38-.01.01-.02.02-.04.02,0,0-.02,0-.03,0-.06-.01-.15-.04-.32-.04-.34,0-.75.07-.77.19,0,.15.19.73.19,1.45,0,.06,0,.14,0,.2-.03.31-.12.49-.18.49-.03,0-.03-.03-.03-.11,0-.05,0-.11,0-.19,0-.42-.1-.91-.2-1.38-.03-.13-.04-.24-.04-.34,0-.35.15-.47.24-.54,0-.02,0-.04,0-.06,0-.27.2-.71.5-.71.37,0,.66.37.84.6,0,0,0,.02,0,.04"/>
      <path class="cls-1" d="m2.34.89c1.29,0,2.34.91,2.34,2.03s-1.05,2.03-2.34,2.03S0,4.05,0,2.92,1.05.89,2.34.89"/>
    </g>
  </g>
</svg>