<?xml version="1.0" encoding="UTF-8"?>
<svg id="Calque_2" data-name="Calque 2" xmlns="http://www.w3.org/2000/svg" viewBox="0 0 122.97 129.16">
  <defs>
    <style>
      .cls-1 {
        fill: #d1c1df;
      }

      .cls-2 {
        fill: #e88989;
      }

      .cls-3 {
        fill: #e5bdb3;
      }

      .cls-4 {
        fill: #272961;
      }

      .cls-5 {
        fill: #8d69ad;
      }

      .cls-6 {
        fill: snow;
      }
    </style>
  </defs>
  <g id="Calque_1-2" data-name="Calque 1">
    <g>
      <path class="cls-1" d="m61.48,0C27.53,0,0,27.52,0,61.47c0,16.48,6.49,31.45,17.03,42.49l-10.89,25.2,23.46-15.1c9.31,5.64,20.21,8.89,31.88,8.89,33.95,0,61.48-27.52,61.48-61.48S95.44,0,61.48,0"/>
      <g>
        <path class="cls-3" d="m70.13,56.64c-1.14,1.05-1.14,2.85,0,3.9l7.13,6.59,3.96,3.66c2.79,2.57,4.37,6.2,4.37,9.99s-1.52,7.16-3.98,9.61c-2.47,2.47-5.87,3.99-9.62,3.99h-20.7c-7.1,0-12.92-5.43-13.54-12.37-.04-.4-.06-.82-.06-1.23,0-1.9.39-3.75,1.14-5.45.75-1.7,1.84-3.25,3.23-4.54l11.09-10.24c1.14-1.05,1.14-2.85,0-3.9l-11.09-10.24c-2.79-2.57-4.38-6.2-4.38-9.99h0c0-5.46,3.21-10.15,7.82-12.33h.01c1.75-.83,3.7-1.29,5.77-1.29h20.7c2.06,0,4.02.46,5.77,1.29h0c4.62,2.17,7.82,6.87,7.82,12.32h0c0,.21,0,.4-.02.6-.15,3.58-1.71,6.97-4.36,9.41l-4,3.7-7.09,6.55Z"/>
        <path class="cls-2" d="m83.06,85.39c0,4.14-4.78,7.72-11.75,9.46-2.9.73-6.18,1.14-9.66,1.14s-6.75-.41-9.65-1.14c-6.09-1.52-10.51-4.46-11.52-7.93-.15-.5-.23-1.01-.23-1.53,0-2.7,9.55-11.53,21.38-11.53,5.36,0,10.24,1.75,14,3.96,4.55,2.65,7.43,5.95,7.43,7.56"/>
        <path class="cls-5" d="m85.44,16.97v2.61c0,2.48-2.01,4.49-4.49,4.49h-38.63c-2.49,0-4.49-2.02-4.49-4.49v-2.61h47.61Z"/>
        <path class="cls-5" d="m85.44,96.94v2.61h-47.61v-2.61c0-2.48,2.01-4.49,4.49-4.49h38.63c2.49,0,4.49,2.01,4.49,4.49"/>
        <path class="cls-2" d="m61.64,58.58s-7.26,13.19,0,13.19,0-13.19,0-13.19"/>
        <path class="cls-2" d="m51.44,51.56c0-1.97,2.28-3.68,5.6-4.51,1.38-.35,2.95-.54,4.61-.54s3.22.2,4.6.54c2.9.73,5.01,2.12,5.49,3.78.07.24.11.48.11.73,0,1.28-4.55,5.49-10.19,5.49-2.55,0-4.88-.84-6.67-1.89-2.17-1.27-3.54-2.84-3.54-3.6"/>
        <path class="cls-6" d="m49.57,37.1c-.29,1.91,1.29,3.98-.05,5.74-1.25,1.63-3.49,1.2-5,.23-1.77-1.13-3.35-3.09-4.06-5.22-.7-1.59-.74-3.44-.13-5.09.64-1.74,1.87-3.17,3.38-4.2,1.58-1.08,3.79-1.92,5.69-1.25,1.88.67,2.27,2.72,1.94,4.47-.35,1.85-1.49,3.46-1.78,5.32"/>
      </g>
      <rect class="cls-4" x="36.33" y="16.97" width="50.6" height="2.4"/>
    </g>
  </g>
</svg>