<?xml version="1.0" encoding="UTF-8"?>
<svg id="Calque_2" data-name="Calque 2" xmlns="http://www.w3.org/2000/svg" viewBox="0 0 122.97 129.16">
  <defs>
    <style>
      .cls-1 {
        fill: #d1c1df;
      }

      .cls-2 {
        fill: #e5bdb3;
      }

      .cls-3 {
        fill: #c29bb4;
      }

      .cls-4 {
        fill: #8d69ad;
      }
    </style>
  </defs>
  <g id="Calque_1-2" data-name="Calque 1">
    <g>
      <path class="cls-4" d="m103.24,67.18c0,4.62-2.2,8.73-5.61,11.34H29.87c-1.26-1.75-2.01-3.9-2.01-6.22,0-5.87,4.77-10.62,10.62-10.62.86,0,1.71.1,2.5.3.34-7.79,6.76-14.01,14.64-14.01,3,0,5.78.9,8.1,2.43,1.79-5.21,6.73-8.94,12.54-8.94,6.71,0,12.26,4.99,13.15,11.46,7.68.23,13.83,6.53,13.83,14.26"/>
      <path class="cls-2" d="m76.52,68.15c-2.81,2.56-6.01,4.54-9.46,5.88-3.44,1.33-7.13,2.02-10.92,2.02-.57,0-1.15-.02-1.73-.05-15.21-.83-27.46-12.93-28.5-28.11-.57-8.5,2.29-16.58,8.09-22.78,5.71-6.11,13.77-9.61,22.13-9.61,5.21,0,10.36,1.35,14.88,3.9.81.46,1.15,1.38.86,2.24-.29.85-1.11,1.36-2,1.25-1.39-.18-2.83-.23-4.24-.14-10.88.65-19.65,9.33-20.42,20.2-.43,6.14,1.63,11.98,5.8,16.46,4.12,4.42,9.94,6.96,15.97,6.96,2.61,0,5.19-.46,7.63-1.37.85-.32,1.78,0,2.26.78.48.78.34,1.75-.35,2.37"/>
      <path class="cls-2" d="m69.33,80.54s-3.93,18.73-9.56,15.2c-5.62-3.53,9.56-15.2,9.56-15.2"/>
      <path class="cls-2" d="m88.59,80.54s-3.93,18.74-9.55,15.2c-5.63-3.53,9.55-15.2,9.55-15.2"/>
      <path class="cls-2" d="m47.15,80.54s-3.93,18.73-9.55,15.2c-5.62-3.53,9.55-15.2,9.55-15.2"/>
      <path class="cls-2" d="m74.45,94.77s-3.1,14.78-7.54,12c-4.43-2.79,7.54-12,7.54-12"/>
      <path class="cls-2" d="m51.33,94.77s-3.1,14.78-7.54,12c-4.43-2.79,7.54-12,7.54-12"/>
      <path class="cls-1" d="m61.48,0C27.53,0,0,27.52,0,61.47c0,16.48,6.49,31.45,17.03,42.49l-10.89,25.2,23.46-15.1c9.31,5.64,20.21,8.89,31.88,8.89,33.95,0,61.48-27.52,61.48-61.48S95.43,0,61.48,0m-29.59,63.97c-3.41-4.54-5.58-10.06-5.99-16.07-.57-8.5,2.29-16.58,8.09-22.78,5.71-6.11,13.77-9.61,22.13-9.61,5.21,0,10.36,1.35,14.88,3.9.81.46,1.15,1.38.86,2.25-.26.77-.97,1.26-1.76,1.26-.08,0-.16,0-.25-.02-.95-.12-1.91-.18-2.87-.18-.46,0-.91.02-1.37.05-10.88.65-19.65,9.33-20.42,20.2-.21,2.91.15,5.75,1.02,8.41,2.54-2.12,5.82-3.4,9.39-3.4,3,0,5.77.9,8.1,2.43,1.79-5.2,6.73-8.94,12.54-8.94,6.71,0,12.26,4.99,13.15,11.46,7.68.23,13.82,6.52,13.82,14.26,0,4.62-2.2,8.73-5.61,11.34H29.87c-1.26-1.75-2.01-3.89-2.01-6.22,0-3.38,1.58-6.39,4.04-8.33m48.57,32.22c-.46,0-.93-.14-1.41-.44-5.63-3.53,9.55-15.2,9.55-15.2,0,0-3.28,15.65-8.13,15.65m-19.28,0c-.46,0-.93-.14-1.41-.44-5.62-3.53,9.56-15.2,9.56-15.2,0,0-3.28,15.65-8.15,15.65m-22.17,0c-.46,0-.93-.14-1.41-.44-5.62-3.53,9.55-15.2,9.55-15.2,0,0-3.28,15.65-8.14,15.65m29.01,10.93c-.36,0-.74-.11-1.12-.35-4.43-2.79,7.54-12,7.54-12,0,0-2.59,12.35-6.43,12.35m-23.12,0c-.36,0-.73-.11-1.11-.35-4.43-2.79,7.54-12,7.54-12,0,0-2.59,12.35-6.42,12.35"/>
      <path class="cls-4" d="m76.26,41.47c-5.81,0-10.76,3.74-12.54,8.94-2.32-1.53-5.1-2.43-8.1-2.43-3.58,0-6.85,1.28-9.39,3.4.97,2.95,2.58,5.69,4.78,8.04,4.12,4.42,9.94,6.95,15.97,6.95,2.61,0,5.19-.46,7.63-1.37.22-.08.45-.12.67-.12.63,0,1.23.32,1.59.9.48.78.34,1.75-.35,2.37-2.81,2.56-6.01,4.54-9.46,5.88-3.44,1.33-7.13,2.02-10.92,2.02-.57,0-1.15-.02-1.73-.05-9.19-.5-17.3-5.12-22.51-12.04-2.46,1.95-4.04,4.96-4.04,8.33,0,2.32.75,4.47,2.01,6.22h67.77c3.41-2.6,5.61-6.71,5.61-11.34,0-7.73-6.15-14.02-13.83-14.26-.89-6.47-6.44-11.46-13.15-11.46"/>
      <path class="cls-3" d="m56.12,15.51c-8.36,0-16.42,3.5-22.13,9.61-5.79,6.2-8.66,14.28-8.09,22.78.41,6.01,2.58,11.54,5.99,16.07,5.21,6.92,13.32,11.54,22.51,12.04.58.03,1.16.05,1.73.05,3.79,0,7.48-.69,10.92-2.02,3.45-1.34,6.65-3.31,9.46-5.88.68-.62.82-1.59.35-2.37-.35-.58-.95-.9-1.59-.9-.22,0-.45.04-.67.12-2.44.91-5.02,1.37-7.63,1.37-6.03,0-11.85-2.54-15.97-6.96-2.2-2.35-3.81-5.09-4.78-8.04-.87-2.66-1.23-5.5-1.02-8.41.77-10.87,9.54-19.55,20.42-20.2.46-.03.91-.04,1.37-.04.96,0,1.93.06,2.87.18.08,0,.16.02.25.02.79,0,1.5-.49,1.76-1.26.29-.86-.05-1.79-.86-2.25-4.52-2.56-9.67-3.9-14.88-3.9"/>
      <path class="cls-3" d="m69.33,80.54s-15.17,11.67-9.56,15.2c.48.3.96.44,1.41.44,4.86,0,8.14-15.65,8.14-15.65"/>
      <path class="cls-3" d="m88.59,80.54s-15.17,11.67-9.55,15.2c.48.3.96.44,1.41.44,4.85,0,8.13-15.65,8.13-15.65"/>
      <path class="cls-3" d="m47.15,80.54s-15.16,11.67-9.55,15.2c.48.3.95.44,1.41.44,4.85,0,8.14-15.65,8.14-15.65"/>
      <path class="cls-3" d="m74.45,94.77s-11.98,9.21-7.54,12c.38.24.75.35,1.11.35,3.84,0,6.43-12.35,6.43-12.35"/>
      <path class="cls-3" d="m51.33,94.77s-11.97,9.21-7.54,12c.38.24.75.35,1.11.35,3.83,0,6.42-12.35,6.42-12.35"/>
    </g>
  </g>
</svg>