<?xml version="1.0" encoding="utf-8"?>
<!-- Generator: Adobe Illustrator 27.6.1, SVG Export Plug-In . SVG Version: 6.00 Build 0)  -->
<svg version="1.1" id="Calque_2_00000009558998645326059010000001959021956796171188_"
	 xmlns="http://www.w3.org/2000/svg" xmlns:xlink="http://www.w3.org/1999/xlink" x="0px" y="0px" viewBox="0 0 345 416.7"
	 style="enable-background:new 0 0 345 416.7;" xml:space="preserve">
<style type="text/css">
	.st0{clip-path:url(#SVGID_00000014610605924324764550000010272422340539806648_);}
	.st1{fill:#F1C1B5;}
	.st2{fill:#E88989;}
	.st3{fill:#D27070;}
	.st4{fill:#EBAEAD;}
	.st5{fill:#272961;}
	.st6{fill:#525285;}
	.st7{fill:#E18182;}
	.st8{fill:#8D69AD;}
	.st9{fill:#765AA6;}
	.st10{display:none;fill:#FFFAFA;}
</style>
<g id="Calque_1-2">
	<g>
		<defs>
			<rect id="SVGID_1_" x="-49" y="-117" width="498.6" height="533.7"/>
		</defs>
		<clipPath id="SVGID_00000013905802285704347350000004082535735749983408_">
			<use xlink:href="#SVGID_1_"  style="overflow:visible;"/>
		</clipPath>
		<g style="clip-path:url(#SVGID_00000013905802285704347350000004082535735749983408_);">
			<path class="st1" d="M314,204.5c-8.7,89.1-84.8,100.9-139.5,154c-27.9,26.5-64.4,30.4-96.7,8.8c-41.9-26.7-43.6-85.6-28-128.1
				c18.3-43.1,56.9-76,97.8-97.3C204.3,110.1,319.3,120.1,314,204.5"/>
			<path class="st2" d="M217.4,386.6c2.3-9.1,5.6-17.2,9.2-25.5c9.2-21.1,20.1-38.8,34.4-56.8c3.3-4.2,6.8-8.2,10.6-12.3
				c4.2-4.6,8.4-8.9,13.5-13.1c12.3,22.4,7.6,50.8-5.6,71.6C266.4,371.3,242.9,387.9,217.4,386.6"/>
			<path class="st3" d="M283.7,289.5c-10.9,31.7-29,61-52.1,85.2c-2.9,3-7.3,7.3-10.3,10c2.8-3,7-7.4,9.8-10.5
				C253.4,349.4,271.1,320.4,283.7,289.5"/>
			<path class="st3" d="M239.5,342.5c1.5,7.8,1.5,15.8,0.2,23.6l-0.9-0.8c2.3-0.8,4.7-1.5,7.1-2.2c7.1-2,14.4-3.5,21.7-4.3
				c-9.5,2.3-19,4.9-28.3,7.9l-1.1,0.4l0.2-1.2C239.6,358.1,239.9,350.3,239.5,342.5"/>
			<path class="st3" d="M259.2,314.4c1.7,6.9,2.5,14,2.7,21.1l-1-0.6c8-3.9,16.4-7.1,25.1-9.2c-8.3,3.3-16.5,6.7-24.5,10.5l-1,0.5
				v-1.1C260.4,328.5,259.9,321.4,259.2,314.4"/>
			<path class="st3" d="M272.2,296.7c1.5,4.4,2.5,8.8,3.4,13.3l-1.1-0.5c1-0.6,2.1-1.1,3.1-1.6c3.2-1.5,6.4-2.9,9.9-3.8
				c-1,0.6-2,1.1-3.1,1.7c-3.2,1.7-6.9,3.7-10.1,5.5C273.5,306.4,272.6,301.6,272.2,296.7"/>
			<path class="st4" d="M221,396.7c7.2-6,14.6-10.7,22.4-15.4c19.8-11.7,39-19.8,61-26.1c5.1-1.5,10.3-2.7,15.8-3.8
				c6.1-1.2,12-2.3,18.6-2.8c-3,25.3-23.5,45.7-46.3,54.9C269.7,412.9,240.9,412.6,221,396.7"/>
			<path class="st2" d="M331.5,356.6c-27.3,19.4-59.1,32.6-92,38.8c-4.1,0.7-10.1,1.7-14.2,2.1c4-0.8,10-1.9,14.1-2.8
				C271.9,387.5,303.3,374.4,331.5,356.6"/>
			<path class="st2" d="M264.6,373.8c-3.3,7.2-8,13.7-13.5,19.3l-0.3-1.2c2.4,0.7,4.7,1.5,7,2.4c6.9,2.5,13.7,5.5,20.1,9.1
				c-9.1-3.7-18.2-7.1-27.5-10.1l-1.1-0.4l0.8-0.8C255.6,386.6,260.5,380.4,264.6,373.8"/>
			<path class="st2" d="M297.1,362.5c-2.6,6.6-6.1,12.9-10.2,18.7l-0.5-1.1c8.8,1.5,17.5,3.8,25.8,7.2c-8.6-2.2-17.2-4.2-26-5.8
				l-1.1-0.2l0.6-0.9C289.8,374.6,293.6,368.6,297.1,362.5"/>
			<path class="st2" d="M318,355.7c-1.4,4.4-3.1,8.6-5,12.8l-0.6-1c1.2,0.1,2.3,0.3,3.5,0.5c3.5,0.6,6.9,1.4,10.2,2.7
				c-1.2-0.1-2.3-0.3-3.5-0.4c-3.6-0.5-7.8-1-11.4-1.5C313.3,364.4,315.4,359.9,318,355.7"/>
			<path class="st5" d="M291.5,333.6c-2.7,5.1-5.8,10-9.2,14.7c-3.4,4.6-7.2,9-11.3,13.1c-4.2,4.1-8.7,7.9-13.5,11.2
				c-5,3.5-10.3,6.4-15.9,8.9c-5.6,2.4-11.4,4.3-17.3,5.5c-0.7,0.1-1.5,0.3-2.2,0.4c-0.4,0.1-0.4,0.8,0.1,0.7
				c6-1.1,11.9-2.8,17.5-5.1c5.7-2.3,11.1-5.2,16.2-8.5c5-3.3,9.7-7,14-11.1c4.2-4,8.1-8.4,11.6-13c3.5-4.6,6.7-9.5,9.5-14.7
				c0.4-0.6,0.7-1.3,1-1.9C292.4,333.5,291.7,333.2,291.5,333.6"/>
			<path class="st5" d="M289.1,338.2c-1-9.5,4-20.4,11.9-25.8C303.8,322,298.2,334,289.1,338.2"/>
			<path class="st5" d="M283,347.7c5.9-8.2,19.6-9.6,26.9-2.6C302.1,349.6,291.6,350.6,283,347.7"/>
			<path class="st5" d="M279.9,317.8c8.3,6.8,9.9,21.6,3.2,30C278.3,339.3,277.1,327,279.9,317.8"/>
			<path class="st5" d="M273.9,359.5c5.9-8.2,19.6-9.6,26.9-2.6C293,361.4,282.5,362.4,273.9,359.5"/>
			<path class="st5" d="M270.8,329.5c8.3,6.8,9.9,21.6,3.2,30C269.2,351.1,268,338.8,270.8,329.5"/>
			<path class="st5" d="M261.8,370c7.3-6.9,21.1-5.6,26.9,2.6C280.1,375.6,269.6,374.5,261.8,370"/>
			<path class="st5" d="M264.4,340c6.8,8.3,5.5,23.1-2.7,30C258.8,360.8,259.9,348.6,264.4,340"/>
			<path class="st5" d="M248.2,378.8c8.2-5.9,21.6-2.8,26.4,6.2C265.6,386.7,255.4,384.3,248.2,378.8"/>
			<path class="st5" d="M254.8,349.4c5.6,9.1,2.4,23.6-6.6,29.4C246.4,369.3,249.2,357.3,254.8,349.4"/>
			<path class="st5" d="M231.5,385.2c9.1-4.3,21.8,1.1,24.8,10.8C247.3,396.1,237.7,391.9,231.5,385.2"/>
			<path class="st5" d="M243.2,357.5c4,10-1.8,23.6-11.7,27.7C231.5,375.5,236.3,364.2,243.2,357.5"/>
			<path class="st2" d="M127,386.7c-2.3-9.1-5.6-17.2-9.2-25.5c-9.2-21.1-20.1-38.8-34.4-56.8c-3.3-4.2-6.8-8.2-10.6-12.3
				c-4.2-4.6-8.4-8.9-13.5-13.1c-12.3,22.4-7.6,50.8,5.6,71.6C78,371.5,101.5,388.1,127,386.7"/>
			<path class="st3" d="M60.7,289.7c10.9,31.7,29,61,52.1,85.2c2.9,3,7.3,7.3,10.3,10c-2.8-3-7-7.4-9.8-10.5
				C91,349.6,73.2,320.6,60.7,289.7"/>
			<path class="st3" d="M104.9,342.7c-1.5,7.8-1.5,15.8-0.2,23.6l0.9-0.8c-2.3-0.8-4.7-1.5-7.1-2.2c-7.1-2-14.4-3.5-21.7-4.3
				c9.5,2.3,19,4.9,28.3,7.9l1.1,0.4l-0.2-1.2C104.8,358.3,104.5,350.5,104.9,342.7"/>
			<path class="st3" d="M85.2,314.5c-1.7,6.9-2.5,14-2.7,21.1l1-0.6c-8-3.9-16.4-7.1-25.1-9.2c8.3,3.3,16.5,6.7,24.5,10.5l1,0.5
				v-1.1C84,328.6,84.5,321.6,85.2,314.5"/>
			<path class="st3" d="M72.2,296.9c-1.5,4.4-2.5,8.8-3.4,13.3l1.1-0.5c-1-0.6-2.1-1.1-3.1-1.6c-3.2-1.5-6.4-2.9-9.8-3.8
				c1,0.6,2.1,1.1,3.1,1.7c3.2,1.7,6.9,3.7,10.1,5.5C70.9,306.6,71.8,301.8,72.2,296.9"/>
			<path class="st4" d="M123.4,396.9c-7.2-6-14.6-10.7-22.4-15.4c-19.8-11.7-38.9-19.8-61.1-26.1c-5.1-1.5-10.3-2.7-15.8-3.8
				c-6.1-1.2-12-2.3-18.6-2.8c3,25.3,23.5,45.7,46.3,54.9C74.7,413.1,103.5,412.8,123.4,396.9"/>
			<path class="st2" d="M12.9,356.8c27.3,19.4,59.1,32.6,92,38.8c4.1,0.7,10.1,1.7,14.2,2.1c-4-0.8-10-1.9-14.1-2.8
				C72.5,387.7,41.1,374.6,12.9,356.8"/>
			<path class="st2" d="M79.8,374c3.3,7.2,8,13.7,13.6,19.3l0.3-1.2c-2.4,0.7-4.7,1.5-7,2.4c-6.9,2.5-13.7,5.5-20.1,9.2
				c9.1-3.7,18.2-7.1,27.5-10.1l1.1-0.4l-0.8-0.8C88.8,386.7,83.9,380.6,79.8,374"/>
			<path class="st2" d="M47.3,362.7c2.6,6.6,6.1,12.9,10.2,18.7l0.5-1.1c-8.8,1.5-17.5,3.8-25.8,7.2c8.6-2.2,17.2-4.2,26-5.8
				l1.1-0.2l-0.7-0.9C54.6,374.8,50.8,368.8,47.3,362.7"/>
			<path class="st5" d="M52.9,333.8c2.7,5.1,5.8,10,9.2,14.7c3.4,4.6,7.2,9,11.3,13.1c4.2,4.1,8.7,7.9,13.5,11.2
				c5,3.5,10.3,6.4,15.9,8.9c5.6,2.4,11.4,4.3,17.3,5.5c0.7,0.1,1.5,0.3,2.2,0.4c0.4,0.1,0.4,0.8-0.1,0.7c-6-1.1-11.9-2.8-17.5-5.1
				c-5.7-2.3-11.1-5.2-16.2-8.5c-5-3.3-9.7-7-14-11.1c-4.2-4-8.1-8.4-11.6-13c-3.5-4.6-6.7-9.5-9.6-14.7c-0.3-0.6-0.7-1.3-1-1.9
				C52,333.7,52.7,333.4,52.9,333.8"/>
			<path class="st5" d="M55.2,338.4c0.9-9.5-4.1-20.4-11.9-25.8C40.6,322.2,46.2,334.2,55.2,338.4"/>
			<path class="st5" d="M61.4,347.9c-5.9-8.2-19.6-9.6-26.9-2.6C42.3,349.8,52.8,350.8,61.4,347.9"/>
			<path class="st5" d="M64.5,318c-8.3,6.8-9.9,21.6-3.2,30C66.1,339.5,67.3,327.2,64.5,318"/>
			<path class="st5" d="M70.5,359.7c-5.9-8.2-19.6-9.6-26.9-2.6C51.4,361.6,61.9,362.6,70.5,359.7"/>
			<path class="st5" d="M73.6,329.7c-8.3,6.8-9.9,21.6-3.2,30C75.2,351.2,76.4,339,73.6,329.7"/>
			<path class="st5" d="M82.6,370.2c-7.3-6.9-21.1-5.6-26.9,2.6C64.3,375.7,74.8,374.7,82.6,370.2"/>
			<path class="st5" d="M80,340.2c-6.8,8.3-5.5,23.1,2.7,30C85.7,361,84.5,348.7,80,340.2"/>
			<path class="st5" d="M96.2,379c-8.2-5.9-21.7-2.8-26.3,6.2C78.8,386.9,89,384.4,96.2,379"/>
			<path class="st5" d="M89.6,349.6c-5.6,9.1-2.4,23.6,6.6,29.4C98,369.5,95.2,357.5,89.6,349.6"/>
			<path class="st5" d="M112.9,385.4c-9.1-4.3-21.8,1.1-24.8,10.7C97.1,396.2,106.8,392,112.9,385.4"/>
			<path class="st5" d="M101.1,357.6c-3.9,10,1.8,23.6,11.7,27.7C112.9,375.7,108.1,364.4,101.1,357.6"/>
			<path class="st5" d="M224.5,143.7c-1.7-0.1-3.5,0-5.1,0.5c-3.4-1.4-6.7-2.9-9.8-4.9c-4.1-2.6-7.7-6.1-9.8-10.5
				c-1.1-2.4-1.7-4.9-2.1-7.5c-0.5-3.1-0.8-6.3,0-9.4l-0.1-0.1c5.6-6.5,8.9-14,9.2-15.9c0.1-0.5,0.1-1.1,0.2-1.9
				c1-0.4,5.8-3,7.4-10.9c0.8-4.2,1.2-8.1,0.9-11.1c-0.3-3.3-1.4-5.4-3.4-5.7c-2.5-0.3-3.8,1.1-4.5,2.1c0,0.1,1-6.1-10.2-12.4
				c-11.2-6.3-19.3-13.2-19.3-22.9c0,9.7-8.1,16.6-19.3,22.9c-11.3,6.3-10.2,12.4-10.2,12.4c-0.7-1-2-2.4-4.5-2.1
				c-2,0.2-3.1,2.4-3.4,5.7c-0.3,3,0,6.9,0.9,11.1c1.6,7.8,6.4,10.4,7.4,10.9c0,0.7,0.1,1.3,0.2,1.9c0.3,1.9,3.6,9.4,9.2,15.9
				l-0.1,0.1c0.8,3.1,0.5,6.3,0,9.4c-0.4,2.6-1,5.1-2.1,7.5c-2,4.4-5.7,7.9-9.8,10.5c-3.4,2.2-7.2,3.9-11,5.4
				c-0.4-1.1-1.6-1.8-2.8-1.8c-0.4,0-0.9,0-1.3,0.2c-7-30.1,3.6-42.6,6.5-71.3c0.4-4.4,0.7-9.1,0.7-14.4c0-40.1,39.6-40.5,39.6-40.5
				s39.6,0.4,39.6,40.5c0,5.2,0.3,10,0.7,14.4C221.1,100.7,231.8,113.2,224.5,143.7"/>
			<path class="st6" d="M176.4,17.6c1.5,8-1.1,16.6-6.7,22.5c-4.6,4.9-10.9,7.6-15.4,12.5c-4.2,4.7-8.3,11.9-15.5,11.6
				c8.6-1,11.1-10.7,17.2-15.6c4-3.5,8.8-6,12.5-9.7C174,33.4,176.8,25.5,176.4,17.6"/>
			<path class="st6" d="M172.4,18.1c0.2,7.3-1.7,13.2-9.2,15.6c-3.9,1.4-7.5,3.2-9.3,7c-2.7,6.1-7.3,11-14.2,12
				c6.4-2.1,10.2-6.8,12.6-12.8c1.8-4.2,6.2-6.6,10.3-7.8C169.8,30.1,171.3,24.8,172.4,18.1"/>
			<path class="st6" d="M185.1,18.9c0.2,9.5,1.6,20.2,9.3,26.6c3.6,3.1,8.4,5,12.1,8.6c1.9,1.6,3.1,4.1,4.5,6.1
				c1.4,1.9,3.5,3.4,5.8,4.2c-2.5-0.4-4.8-1.8-6.5-3.6c-1.6-1.9-2.8-4-4.7-5.6c-3.6-3.1-8.3-5-12.3-8.2
				C185.2,40.2,183.8,28.6,185.1,18.9"/>
			<path class="st6" d="M143.3,90.2c3.3,18.3-12.8,29.6-7.3,52.5c-3.6-8.5-2.8-18.3,0.4-26.8C139.5,107.5,143.7,99.4,143.3,90.2"/>
			<path class="st6" d="M142.2,139.7c-0.5-0.2-0.7-0.8-0.9-1.3c-0.4-1.5-0.6-3.1-0.7-4.6c-0.9-10.5,2.6-20.7,4.7-30.7
				c0.8-3.9,1.4-8.1,1.3-12.1l1.8-0.2c0.6,3.6,0.8,7.2,1.1,10.8c0.3,3.6,1.1,7.1,1.3,10.7c0.4,7.3-2.1,14.4-0.1,21.5
				c-2.7-6.8-0.6-14.4-1.3-21.4c-0.3-3.6-1.2-7.1-1.6-10.7c-0.4-3.6-0.6-7.2-1.2-10.7l1.8-0.2c0.4,8.5-2.4,16.6-4.4,24.7
				c-1.8,7-3.3,14.1-2.7,21.4C141.5,137.8,141.3,139.1,142.2,139.7"/>
			<path class="st6" d="M217.6,141.9c2-8.8,1.9-17.9,0.4-26.7c-0.7-4.4-1.7-8.8-2.8-13.2c-1-4.4-1.9-9.1-1.1-13.6
				c0,9.1,4.6,17.4,5.7,26.4C221.3,123.8,221.1,133.3,217.6,141.9"/>
			<path class="st6" d="M212,140.1c2-8,1-16.2-0.6-24.1c-1.4-7.1-3.5-17.1-4.6-24.1l1.8-0.2c0.2,7-1,13.8-2.5,20.6
				c-1.7,6.6-3.8,13.2-2.9,20.2c-2.3-10.3,2.3-20.4,3.1-30.6c0.4-3.4,0.7-6.8,0.5-10.1l1.8-0.2l2.2,12.1
				C212.8,115.5,216.4,128.3,212,140.1"/>
			<path class="st7" d="M207.3,77.1c1.1,5.8,1,11.9-0.3,17.7C205.8,89,205.9,82.9,207.3,77.1"/>
			<path class="st8" d="M237,294.1c1.4-19.4,1.8-38.8,1-58.3c1.6-2.8,3-5.7,4.1-8.7c4.5,14.1,10,27.9,16.5,41.2
				c1.2,2.6,2.5,5.1,4,7.6C253.4,280.8,244.8,287,237,294.1 M119.2,270.4c-4.9-0.6-9.9-0.8-14.9-0.6c4.9-12.4,9-25.1,12.3-38.1
				c1.1,3,2.6,5.9,4.2,8.7C119.6,250.3,119.1,260.3,119.2,270.4 M301,283.2c-1.2-20.5-9.4-39.8-14.3-59.7
				c-4.6-18.4-6.3-37.5-12.5-55.4c-0.9-2.5-1.9-5-3.5-7c-2.9-3.5-7.4-5.1-11.6-6.5c-8.7-2.9-17.4-5.8-26-8.8c-2.7-0.9-5.6-1.8-8.4-2
				c-1.7-0.1-3.5,0-5.1,0.5c1.1,0.5,2.2,0.9,3.3,1.3c0,0-11.9,33.1-44.9,33.1s-44.9-33.1-44.9-33.1c0.7-0.3,1.4-0.6,2.1-0.9
				c-0.4-1.1-1.6-1.8-2.8-1.8c-0.4,0-0.9,0-1.3,0.2c-0.9,0.2-1.7,0.6-2.5,1c-6.2,3-12.8,5.2-19.5,6.7c-3.8,0.9-7.8,1.5-11,3.7
				c-4.6,3.2-6.6,9-8.4,14.3C77.3,207.1,64.9,246,64.1,286.1c-0.2,8.3,0.9,18.1,8,22.5c5,3.1,11.4,2.5,17.3,1.6c7.3-1,14.7-2,22-3
				c-15.3,34.2-22.5,72-20.7,109.4h175.7c0.2-9.1,1.2-18.2,0.4-27.3c-0.5-5.7-1.7-11.2-3.1-16.8c-3.8-15.5-9-30.7-15.3-45.4
				c16.5-7,32-16.5,45.9-27.9c2.1-1.7,4.2-3.5,5.4-5.9C301.2,290.3,301.2,286.6,301,283.2"/>
			<path class="st4" d="M215.3,324.8c0,4.4-0.5,8.8-1.3,13.2c-3.1,0.5-6.2,1.4-9.3,2.2c-4.8,1.4-9.7,2.8-14.5,4.1
				c-1.8,0.5-3.5,1-5.3,1.2c-2.8,0.4-5.7,0.1-8.5-0.3c-2.6-0.3-5.3-0.6-7.9-1c-3.2-0.4-6.5-0.8-9.7-1.2c-0.7-0.1-1.5-0.3-1.7-1
				c-0.1-0.3,0-0.7,0.1-1c0.5-1.2,1.6-2.2,2.8-2.7c-4.6-1.9-9.7-2.2-14.5-3.5c-0.2-0.1-0.4-0.1-0.6-0.3c-0.2-0.3-0.2-0.6-0.1-1
				c0.4-1.4,1.3-2.5,2.5-3.2c-1.9-0.8-4.1-0.8-5.9-1.6c-0.5-0.2-1-0.5-1.3-0.9c-0.3-0.4-0.5-1-0.4-1.5c0.1-0.4,0.4-0.7,0.7-1
				c1.4-1.3,3.2-2.1,5-2.3c-0.8-0.2-1.5-0.3-2.3-0.5c-0.6-0.1-1.2-0.4-1.3-0.9c0-0.3,0.1-0.5,0.2-0.7c0.7-1.3,1.7-2.5,3-3.1
				c1.5-0.7,3.3-0.6,5-0.5c4.3,0.3,8.5,0.4,12.8,0.2c2.6-0.1,5.2-0.2,7.6-1.1c-3-0.4-5.8-1.8-7.9-3.9c-1-1-1.8-2.4-1.2-3.6
				c0.6-1.1,2.2-1.3,3.5-1.2c3.3,0.1,6.6,0.1,9.9-0.3c5.6-0.7,11.2-2.6,16.8-2.2c3.5,0.2,6.8,1.4,10.1,2.5c4,1.4,8,2.7,12,4.1
				C214.9,316.1,215.3,320.4,215.3,324.8"/>
			<path class="st4" d="M218.9,296.6c0,0.2-0.1,0.4-0.2,0.5c-0.7,1.4-2.3,2.2-3.8,2.3c0.1,0.1,0.3,0.3,0.4,0.4
				c0.5,0.5,1.1,1.2,1.2,1.9c0,0.6-0.4,1.2-0.8,1.6c-0.5,0.4-1.1,0.6-1.7,0.8c-2.8,0.7-5.6,0.6-8.5,0.4c0.2,0.4,0.4,0.8,0.6,1.1
				c0.1,0.4,0.2,0.7,0.1,1.1c-0.2,0.8-1.3,0.9-2.1,0.9c-6.1-0.1-12.2-0.2-18.3-0.3c-2.7,0-5.4-0.1-8.1-0.5c-9.4-1.4-17.6-7-26.7-9.7
				c-1.1-8.7-2.5-17.7-6.8-25.3c5.8-1.4,11.3-3.9,17-5.5c6.3-1.9,13.4-2.7,19.4-0.1c2.9,1.2,5.4,3.2,8.4,4.2c2,0.6,4.1,0.8,6.2,0.7
				c1,0,1.9-0.1,2.9,0.1c0.9,0.2,1.8,0.9,2.1,1.8c0.2,0.7,0,1.5-0.3,2.2c-0.4,0.9-0.8,1.8-1.4,2.5c-0.5,0.5-1.1,0.9-1.8,1
				c6.3,2.5,12.5,5.3,18.6,8.5c1,0.5,2,1.1,2.6,2c0.6,0.9,0.8,2.2,0.1,3c-0.4,0.5-1,0.7-1.7,0.7c1.1,0.8,2,1.9,2.6,3
				C218.8,296.3,218.9,296.4,218.9,296.6"/>
			<path class="st7" d="M211.9,311.5c-7.2-1.9-14.1-5.4-21.6-5.1c-7.5,0-14.9,2.3-22.4,1.5c7.6-0.6,14.7-3.2,22.4-3.3
				C198,304.4,205.1,308.2,211.9,311.5"/>
			<path class="st7" d="M189.5,314.5c-2.4-0.7-4.8-0.1-7.1,0.2c-2.4,0.4-4.7,0.9-7.1,1.4c-4.7,0.9-9.6,3-14.5,1.7
				c3.7-0.1,7-1.5,10.5-2.6c3.6-1,7.2-1.8,10.9-2C184.7,313.2,187.4,313.1,189.5,314.5"/>
			<path class="st7" d="M145.4,322.9c4.9-0.6,9.9,0.5,14.6,1.5c4.8,1.1,9.5,2.4,14.1,4.2C164.3,328,155,324.8,145.4,322.9"/>
			<path class="st7" d="M147.1,330.4c4.7-0.6,9.5,0.5,14,1.5c4.6,1.1,9.1,1.9,13.7,2.9c-4.7,0.4-9.5-0.1-14.1-1.1
				C156.3,332.6,151.6,331.3,147.1,330.4"/>
			<path class="st7" d="M159.5,338.4c4.9,0,10.9,0.3,15.8,0.5c1.8,0.1,3.5,0.1,5.3,0.3c-3.4,1.2-7.1,1.5-10.6,1.4
				C166.5,340.4,162.9,339.8,159.5,338.4"/>
			<path class="st7" d="M181.9,273.4c2.2-0.3,4.4,0.6,6.4,1.3c2.1,0.7,4.1,1.5,6.1,2.3c4,1.7,7.9,3.4,11.6,5.8
				c-6.3-1.5-12.4-3.9-18.2-6.7C185.8,275.1,184,273.8,181.9,273.4"/>
			<path class="st7" d="M217.3,294.6c-1.8-2.1-4.4-2.5-6.9-3.1c-2.6-0.6-5.1-1.2-7.7-2c-5.1-1.5-10.1-3.3-14.6-6.2
				c3.8,1.1,11.4,3.3,15.1,4.4c2.5,0.8,5,1.5,7.5,2.4C213.2,291,216.2,292.1,217.3,294.6"/>
			<path class="st7" d="M215.5,299.9c-2.3-1.1-5-1.3-7.5-1.9c-7.4-1.4-15.8-2.4-22.6-5.8c7.7,1.5,15.4,2.2,23,4.4
				C210.8,297.5,213.5,298.1,215.5,299.9"/>
			<path class="st7" d="M205.8,304.7c-4.3-1.4-8.6-2.6-13-3.3c-4.4-0.7-9.2-0.4-13.4-2.2c3.4,0.2,6.8,0,10.2,0.1
				C195.3,299.5,201.1,301.2,205.8,304.7"/>
			<path class="st9" d="M122.7,244.5c-11.2-12.3-10.8-31.4-4.2-45.9C114.6,213.8,113.9,230.8,122.7,244.5"/>
			<path class="st9" d="M108,198.3c1.6,8.9,3.8,18.5,6.5,27.1C109.4,217.5,107.1,207.7,108,198.3"/>
			<path class="st9" d="M142.1,245.5c23.1-11.6,49.9-13.5,75.3-10.9C192,234.6,166.1,236.3,142.1,245.5"/>
			<path class="st9" d="M163,244.5c11.2-2.6,23.1-2.7,34.4-0.3C185.9,244.4,174.5,244.4,163,244.5"/>
			<path class="st9" d="M240.7,196.9c2.8,3.3,3.6,7.9,4,12.1c0.3,4.4,0.9,8.5,0.4,12.9c-0.7,4.4-3,8.2-5.1,11.9
				c-2.1,3.7-4,7.5-5.8,11.3c1.1-4.1,2.7-8.1,4.5-11.9c1.8-3.8,4-7.5,4.6-11.5c0.3-2,0.2-4,0.1-6.2
				C243.2,209.4,243.8,202.4,240.7,196.9"/>
			<path class="st9" d="M142.3,270c3.4,4.5,5.2,10.1,6.6,15.5c1.4,5.5,2.6,10.9,3.8,16.4l0.3,1.2c-3.7-0.6-7.4-0.3-11.3,0
				c-3.4,0.3-6.8,0.5-10.1,0.8c-6.6,0.5-13.6,2.1-20.1,3c5.6-1.5,11.6-3.3,17.4-4.2c4.2-0.6,8.5-1,12.7-1.4
				c3.4-0.3,6.9-0.7,10.4-0.2l-1,1.1c-1.2-5.5-2.3-11-3.4-16.5C146.5,280.3,145.2,274.9,142.3,270"/>
			<path class="st9" d="M140.7,270.5c-2.4,1.2-5.2,1.1-7.8,1.4c-2.6,0.1-5.3,0.2-7.9,0.2c-4.6,0-11.1-0.8-15.8-1.3
				c-10.4-0.9-20.7,2.2-30.4,6.1c9.2-5.3,19.8-8.8,30.5-7.9c7.9,1,15.6,1.9,23.6,2C135.5,271,138.2,271.3,140.7,270.5"/>
			<path class="st9" d="M284.9,275c-17.4-7.2-32.5,9.3-45.9,18c-8.5,6.1-17,12.4-26.8,16.3l0.4-1.2c2.6,4.8,3.7,10.4,3.7,15.8
				c0,5.4-0.9,10.8-2.2,16l-0.9-0.8c12.2-3.8,24.2-7.8,36.3-12c-11.8,4.9-23.8,9.3-35.9,13.4l-1.2,0.4c1.3-5.5,2.3-11.2,2.3-16.9
				c0-5.6-1.2-11.1-4.1-15.9c6.7-2.7,12.9-6.4,18.9-10.5c5.7-3.9,11.4-8,17.1-11.9C257.3,278.1,271.4,268.1,284.9,275"/>
			<path class="st9" d="M147.6,353.7c20.5-1.9,40.8-5.5,60.8-10.8C189.2,350.7,168.2,354.4,147.6,353.7"/>
			<path class="st9" d="M205.1,349.9c-15.3,8.4-31.5,15.1-48.2,20.1C172.7,362.6,188.7,355.9,205.1,349.9"/>
			<path class="st4" d="M222.8,145.6c0,0-11.9,33.1-44.9,33.1s-44.9-33.1-44.9-33.1c0.7-0.3,1.4-0.6,2.1-0.9c3.8-1.5,7.6-3.2,11-5.4
				c4.1-2.6,7.7-6.1,9.8-10.5c1.1-2.4,1.7-4.9,2.1-7.5c0.5-3.1,0.8-6.3,0-9.4l0.1-0.1c4.9,5.8,11.7,10.8,19.8,10.8s14.9-5,19.8-10.8
				l0.1,0.1c-0.8,3.1-0.5,6.3,0,9.4c0.4,2.6,1,5.1,2.1,7.5c2,4.4,5.7,7.9,9.8,10.5c3.1,2,6.4,3.5,9.8,4.9
				C220.6,144.7,221.6,145.2,222.8,145.6"/>
			<path class="st4" d="M214.4,83.2c-1.6,7.8-6.4,10.4-7.4,10.9c0,0.7-0.1,1.3-0.2,1.9c-0.3,1.9-3.6,9.4-9.2,15.9
				c-4.9,5.8-11.7,10.8-19.8,10.8s-14.9-5.1-19.8-10.8c-5.6-6.5-8.9-14-9.2-15.9c-0.1-0.5-0.1-1.1-0.2-1.9c-1-0.4-5.8-3-7.4-10.9
				c-0.8-4.2-1.2-8.1-0.9-11.1c0.3-3.3,1.4-5.4,3.4-5.7c2.5-0.3,3.8,1.1,4.5,2.1c0,0.1-1-6.1,10.2-12.4s19.3-13.2,19.3-22.9
				c0,9.7,8.1,16.6,19.3,22.9c11.2,6.3,10.2,12.5,10.2,12.4c0.7-1,2-2.4,4.5-2.1c2,0.2,3.1,2.4,3.4,5.7
				C215.6,75.1,215.3,79,214.4,83.2"/>
			<path class="st7" d="M147.9,78c1.8,5.6,2,11.7,0.7,17.4C147.4,89.7,147.2,83.8,147.9,78"/>
			<path class="st7" d="M156.7,110.5c5.9,5.5,14.3,10.7,22.4,10.8c4.1-0.3,8.1-2.3,11.7-4.3c3.6-2.2,6.9-5.1,9.6-8.4
				c-2.1,3.8-5.2,7.1-8.9,9.6c-3.7,2.5-7.9,4.6-12.4,5C170.6,123,161.8,117.2,156.7,110.5"/>
			<path class="st7" d="M146.6,149.5c7.6,1.6,14.9,4.4,21.5,8.3C160.6,156.2,153.3,153.4,146.6,149.5"/>
			<path class="st7" d="M187.2,157.8c6.6-4.5,14.3-7.3,22.2-8.1C202.2,152.9,194.8,155.6,187.2,157.8"/>
			<path class="st5" d="M154.9,70.8c1.2-2.9,4.1-5.1,7.1-5.9c1.6-0.4,3.1-1,4.8-0.5c1.6,0.4,3.4,1.4,4,3.1l-0.1,0.3
				c-1.7,0-2.9,0.1-4.3,0.1c-1.3,0.1-2.7-0.3-4-0.2c-2.8,0.1-5.4,1.2-7.3,3.3C155.1,71.1,154.8,71,154.9,70.8"/>
			<path class="st5" d="M201.2,71c-2-2.1-4.5-3.2-7.3-3.3c-1.3-0.1-2.7,0.3-4,0.2c-1.3-0.1-2.5-0.2-4.2-0.1l-0.2-0.2
				c0.5-1.7,2.4-2.8,4-3.2c1.7-0.4,3.3,0.1,4.8,0.5c3.1,0.8,5.9,3,7.1,5.9C201.6,71,201.3,71.1,201.2,71"/>
			<path class="st7" d="M184.1,92.5c0.3,1.5-0.6,3.1-2.3,3.3c-0.6,0.2-0.8,0.4-1.5,0.7c-0.8,0.4-1.6,0.4-2.2,0.4
				c-0.7,0-1.5-0.1-2.2-0.4c-0.7-0.3-0.8-0.6-1.5-0.7c-1.6-0.2-2.6-1.8-2.3-3.3c0.6,1,1.3,1.9,2.5,1.7c1.3,0,2.2,0.8,3.5,0.7
				c1.4,0.1,2.2-0.7,3.5-0.7C182.8,94.4,183.5,93.5,184.1,92.5"/>
			<path class="st7" d="M188.1,103c0,0-1.3,1.3-9.9,1.3l0,0c-8.6,0-9.9-1.3-9.9-1.3s3.1-0.4,5-1.4c1-0.5,4.7-0.4,4.9-0.4l0,0
				c0.2,0,3.9-0.1,4.9,0.4C184.9,102.6,188,103,188.1,103"/>
			<path class="st7" d="M172.3,107.3c1.8,0.3,4,0.2,5.7,0.2c2,0.1,3.7,0,5.8,0C181.2,110.6,174.7,110.7,172.3,107.3"/>
			<path class="st7" d="M170.3,77.1c-1.9,2.4-5.5,3.3-8.3,2.1C164.9,78.7,167.6,78.1,170.3,77.1"/>
			<path class="st7" d="M172.7,74.2c1.6,2.3,1.8,5.6,0.5,8.1C172.8,79.6,172.7,77,172.7,74.2"/>
			<path class="st7" d="M185.7,77.1c2.8,0.9,5.4,1.6,8.3,2.1C191.2,80.4,187.5,79.5,185.7,77.1"/>
			<path class="st7" d="M183.3,74.2c0,2.8-0.1,5.4-0.5,8.1C181.5,79.9,181.7,76.6,183.3,74.2"/>
			<path class="st5" d="M186.1,75.6c2.5-0.8,5.2-0.8,7.8-0.8c2.7-0.2,4.8-0.1,7.5,0.3l0.1,0.2c-3.2,3.2-7.8,1.2-11.6,0.7
				c-1.2-0.2-2.5-0.3-3.8-0.2L186.1,75.6L186.1,75.6z"/>
			<path class="st5" d="M170,75.8c-2.6-0.1-5,0.5-7.6,0.9c-2.6,0.7-5.7,0.7-7.8-1.4l0.1-0.2c2.7-0.4,4.9-0.5,7.5-0.3
				c2.6,0,5.3-0.1,7.8,0.8L170,75.8L170,75.8z"/>
			<path class="st10" d="M376.2,82.3c-0.3,1.9,1.3,4,0,5.7c-1.2,1.6-3.5,1.2-5,0.2c-1.8-1.1-3.4-3.1-4.1-5.2
				c-0.7-1.6-0.7-3.4-0.1-5.1c0.6-1.7,1.9-3.2,3.4-4.2c1.6-1.1,3.8-1.9,5.7-1.2c1.9,0.7,2.3,2.7,1.9,4.5
				C377.6,78.8,376.5,80.4,376.2,82.3"/>
		</g>
	</g>
</g>
</svg>
